<ttFont>
<head>
    <!-- Most of this table will be recalculated by the compiler -->
    <tableVersion value="1.0"/>
    <fontRevision value="5.0"/>
    <checkSumAdjustment value="0x1873e39c"/>
    <magicNumber value="0x5f0f3cf5"/>
    <flags value="00000000 00001011"/>
    <unitsPerEm value="2048"/>
    <created value="Sun May 15 08:57:39 2005"/>
    <modified value="Thu Apr 14 13:37:51 2011"/>
    <xMin value="0"/>
    <yMin value="-969"/>
    <xMax value="8267"/>
    <yMax value="2308"/>
    <macStyle value="00000000 00000000"/>
    <lowestRecPPEM value="8"/>
    <fontDirectionHint value="2"/>
    <indexToLocFormat value="0"/>
    <glyphDataFormat value="0"/>
  </head>
    <TTGlyph name=".notdef" xMin="142" yMin="226" xMax="842" yMax="1588">
      <contour>
        <pt x="142" y="226" on="1"/>
        <pt x="142" y="1588" on="1"/>
        <pt x="842" y="1588" on="1"/>
        <pt x="842" y="226" on="1"/>
      </contour>
      <contour>
        <pt x="284" y="368" on="1"/>
        <pt x="700" y="368" on="1"/>
        <pt x="700" y="1447" on="1"/>
        <pt x="284" y="1447" on="1"/>
      </contour>
    </TTGlyph>
    <TTGlyph name=".null" xMin="142" yMin="226" xMax="842" yMax="1588">
      <contour>
        <pt x="142" y="226" on="1"/>
        <pt x="142" y="1588" on="1"/>
        <pt x="842" y="1588" on="1"/>
        <pt x="842" y="226" on="1"/>
      </contour>
      <contour>
        <pt x="284" y="368" on="1"/>
        <pt x="700" y="368" on="1"/>
        <pt x="700" y="1447" on="1"/>
        <pt x="284" y="1447" on="1"/>
      </contour>
    </TTGlyph>
    <TTGlyph name="afii57381" xMin="142" yMin="226" xMax="842" yMax="1588">
      <contour>
        <pt x="142" y="226" on="1"/>
        <pt x="142" y="1588" on="1"/>
        <pt x="842" y="1588" on="1"/>
        <pt x="842" y="226" on="1"/>
      </contour>
      <contour>
        <pt x="284" y="368" on="1"/>
        <pt x="700" y="368" on="1"/>
        <pt x="700" y="1447" on="1"/>
        <pt x="284" y="1447" on="1"/>
      </contour>
    </TTGlyph>
    <TTGlyph name="afii57388" xMin="142" yMin="226" xMax="842" yMax="1588">
      <contour>
        <pt x="142" y="226" on="1"/>
        <pt x="142" y="1588" on="1"/>
        <pt x="842" y="1588" on="1"/>
        <pt x="842" y="226" on="1"/>
      </contour>
      <contour>
        <pt x="284" y="368" on="1"/>
        <pt x="700" y="368" on="1"/>
        <pt x="700" y="1447" on="1"/>
        <pt x="284" y="1447" on="1"/>
      </contour>
    </TTGlyph>
    <TTGlyph name="afii57396" xMin="142" yMin="226" xMax="842" yMax="1588">
      <contour>
        <pt x="142" y="226" on="1"/>
        <pt x="142" y="1588" on="1"/>
        <pt x="842" y="1588" on="1"/>
        <pt x="842" y="226" on="1"/>
      </contour>
      <contour>
        <pt x="284" y="368" on="1"/>
        <pt x="700" y="368" on="1"/>
        <pt x="700" y="1447" on="1"/>
        <pt x="284" y="1447" on="1"/>
      </contour>
    </TTGlyph>
    <TTGlyph name="afii57397" xMin="142" yMin="226" xMax="842" yMax="1588">
      <contour>
        <pt x="142" y="226" on="1"/>
        <pt x="142" y="1588" on="1"/>
        <pt x="842" y="1588" on="1"/>
        <pt x="842" y="226" on="1"/>
      </contour>
      <contour>
        <pt x="284" y="368" on="1"/>
        <pt x="700" y="368" on="1"/>
        <pt x="700" y="1447" on="1"/>
        <pt x="284" y="1447" on="1"/>
      </contour>
    </TTGlyph>
    <TTGlyph name="afii57398" xMin="142" yMin="226" xMax="842" yMax="1588">
      <contour>
        <pt x="142" y="226" on="1"/>
        <pt x="142" y="1588" on="1"/>
        <pt x="842" y="1588" on="1"/>
        <pt x="842" y="226" on="1"/>
      </contour>
      <contour>
        <pt x="284" y="368" on="1"/>
        <pt x="700" y="368" on="1"/>
        <pt x="700" y="1447" on="1"/>
        <pt x="284" y="1447" on="1"/>
      </contour>
    </TTGlyph>
    <TTGlyph name="afii57403" xMin="142" yMin="226" xMax="842" yMax="1588">
      <contour>
        <pt x="142" y="226" on="1"/>
        <pt x="142" y="1588" on="1"/>
        <pt x="842" y="1588" on="1"/>
        <pt x="842" y="226" on="1"/>
      </contour>
      <contour>
        <pt x="284" y="368" on="1"/>
        <pt x="700" y="368" on="1"/>
        <pt x="700" y="1447" on="1"/>
        <pt x="284" y="1447" on="1"/>
      </contour>
    </TTGlyph>
    <TTGlyph name="afii57407" xMin="142" yMin="226" xMax="842" yMax="1588">
      <contour>
        <pt x="142" y="226" on="1"/>
        <pt x="142" y="1588" on="1"/>
        <pt x="842" y="1588" on="1"/>
        <pt x="842" y="226" on="1"/>
      </contour>
      <contour>
        <pt x="284" y="368" on="1"/>
        <pt x="700" y="368" on="1"/>
        <pt x="700" y="1447" on="1"/>
        <pt x="284" y="1447" on="1"/>
      </contour>
    </TTGlyph>
    <TTGlyph name="afii57440" xMin="142" yMin="226" xMax="842" yMax="1588">
      <contour>
        <pt x="142" y="226" on="1"/>
        <pt x="142" y="1588" on="1"/>
        <pt x="842" y="1588" on="1"/>
        <pt x="842" y="226" on="1"/>
      </contour>
      <contour>
        <pt x="284" y="368" on="1"/>
        <pt x="700" y="368" on="1"/>
        <pt x="700" y="1447" on="1"/>
        <pt x="284" y="1447" on="1"/>
      </contour>
    </TTGlyph>
    <TTGlyph name="afii57451" xMin="142" yMin="226" xMax="842" yMax="1588">
      <contour>
        <pt x="142" y="226" on="1"/>
        <pt x="142" y="1588" on="1"/>
        <pt x="842" y="1588" on="1"/>
        <pt x="842" y="226" on="1"/>
      </contour>
      <contour>
        <pt x="284" y="368" on="1"/>
        <pt x="700" y="368" on="1"/>
        <pt x="700" y="1447" on="1"/>
        <pt x="284" y="1447" on="1"/>
      </contour>
    </TTGlyph>
    <TTGlyph name="afii57452" xMin="142" yMin="226" xMax="842" yMax="1588">
      <contour>
        <pt x="142" y="226" on="1"/>
        <pt x="142" y="1588" on="1"/>
        <pt x="842" y="1588" on="1"/>
        <pt x="842" y="226" on="1"/>
      </contour>
      <contour>
        <pt x="284" y="368" on="1"/>
        <pt x="700" y="368" on="1"/>
        <pt x="700" y="1447" on="1"/>
        <pt x="284" y="1447" on="1"/>
      </contour>
    </TTGlyph>
    <TTGlyph name="afii57453" xMin="142" yMin="226" xMax="842" yMax="1588">
      <contour>
        <pt x="142" y="226" on="1"/>
        <pt x="142" y="1588" on="1"/>
        <pt x="842" y="1588" on="1"/>
        <pt x="842" y="226" on="1"/>
      </contour>
      <contour>
        <pt x="284" y="368" on="1"/>
        <pt x="700" y="368" on="1"/>
        <pt x="700" y="1447" on="1"/>
        <pt x="284" y="1447" on="1"/>
      </contour>
    </TTGlyph>
    <TTGlyph name="afii57454" xMin="142" yMin="226" xMax="842" yMax="1588">
      <contour>
        <pt x="142" y="226" on="1"/>
        <pt x="142" y="1588" on="1"/>
        <pt x="842" y="1588" on="1"/>
        <pt x="842" y="226" on="1"/>
      </contour>
      <contour>
        <pt x="284" y="368" on="1"/>
        <pt x="700" y="368" on="1"/>
        <pt x="700" y="1447" on="1"/>
        <pt x="284" y="1447" on="1"/>
      </contour>
    </TTGlyph>
    <TTGlyph name="afii57455" xMin="142" yMin="226" xMax="842" yMax="1588">
      <contour>
        <pt x="142" y="226" on="1"/>
        <pt x="142" y="1588" on="1"/>
        <pt x="842" y="1588" on="1"/>
        <pt x="842" y="226" on="1"/>
      </contour>
      <contour>
        <pt x="284" y="368" on="1"/>
        <pt x="700" y="368" on="1"/>
        <pt x="700" y="1447" on="1"/>
        <pt x="284" y="1447" on="1"/>
      </contour>
    </TTGlyph>
    <TTGlyph name="afii57456" xMin="142" yMin="226" xMax="842" yMax="1588">
      <contour>
        <pt x="142" y="226" on="1"/>
        <pt x="142" y="1588" on="1"/>
        <pt x="842" y="1588" on="1"/>
        <pt x="842" y="226" on="1"/>
      </contour>
      <contour>
        <pt x="284" y="368" on="1"/>
        <pt x="700" y="368" on="1"/>
        <pt x="700" y="1447" on="1"/>
        <pt x="284" y="1447" on="1"/>
      </contour>
    </TTGlyph>
    <TTGlyph name="afii57457" xMin="142" yMin="226" xMax="842" yMax="1588">
      <contour>
        <pt x="142" y="226" on="1"/>
        <pt x="142" y="1588" on="1"/>
        <pt x="842" y="1588" on="1"/>
        <pt x="842" y="226" on="1"/>
      </contour>
      <contour>
        <pt x="284" y="368" on="1"/>
        <pt x="700" y="368" on="1"/>
        <pt x="700" y="1447" on="1"/>
        <pt x="284" y="1447" on="1"/>
      </contour>
    </TTGlyph>
    <TTGlyph name="afii57458" xMin="142" yMin="226" xMax="842" yMax="1588">
      <contour>
        <pt x="142" y="226" on="1"/>
        <pt x="142" y="1588" on="1"/>
        <pt x="842" y="1588" on="1"/>
        <pt x="842" y="226" on="1"/>
      </contour>
      <contour>
        <pt x="284" y="368" on="1"/>
        <pt x="700" y="368" on="1"/>
        <pt x="700" y="1447" on="1"/>
        <pt x="284" y="1447" on="1"/>
      </contour>
    </TTGlyph>
    <TTGlyph name="afii57505" xMin="142" yMin="226" xMax="842" yMax="1588">
      <contour>
        <pt x="142" y="226" on="1"/>
        <pt x="142" y="1588" on="1"/>
        <pt x="842" y="1588" on="1"/>
        <pt x="842" y="226" on="1"/>
      </contour>
      <contour>
        <pt x="284" y="368" on="1"/>
        <pt x="700" y="368" on="1"/>
        <pt x="700" y="1447" on="1"/>
        <pt x="284" y="1447" on="1"/>
      </contour>
    </TTGlyph>
    <TTGlyph name="afii57506" xMin="142" yMin="226" xMax="842" yMax="1588">
      <contour>
        <pt x="142" y="226" on="1"/>
        <pt x="142" y="1588" on="1"/>
        <pt x="842" y="1588" on="1"/>
        <pt x="842" y="226" on="1"/>
      </contour>
      <contour>
        <pt x="284" y="368" on="1"/>
        <pt x="700" y="368" on="1"/>
        <pt x="700" y="1447" on="1"/>
        <pt x="284" y="1447" on="1"/>
      </contour>
    </TTGlyph>
    <TTGlyph name="afii57507" xMin="142" yMin="226" xMax="842" yMax="1588">
      <contour>
        <pt x="142" y="226" on="1"/>
        <pt x="142" y="1588" on="1"/>
        <pt x="842" y="1588" on="1"/>
        <pt x="842" y="226" on="1"/>
      </contour>
      <contour>
        <pt x="284" y="368" on="1"/>
        <pt x="700" y="368" on="1"/>
        <pt x="700" y="1447" on="1"/>
        <pt x="284" y="1447" on="1"/>
      </contour>
    </TTGlyph>
    <TTGlyph name="afii57508" xMin="142" yMin="226" xMax="842" yMax="1588">
      <contour>
        <pt x="142" y="226" on="1"/>
        <pt x="142" y="1588" on="1"/>
        <pt x="842" y="1588" on="1"/>
        <pt x="842" y="226" on="1"/>
      </contour>
      <contour>
        <pt x="284" y="368" on="1"/>
        <pt x="700" y="368" on="1"/>
        <pt x="700" y="1447" on="1"/>
        <pt x="284" y="1447" on="1"/>
      </contour>
    </TTGlyph>
    <TTGlyph name="afii57509" xMin="142" yMin="226" xMax="842" yMax="1588">
      <contour>
        <pt x="142" y="226" on="1"/>
        <pt x="142" y="1588" on="1"/>
        <pt x="842" y="1588" on="1"/>
        <pt x="842" y="226" on="1"/>
      </contour>
      <contour>
        <pt x="284" y="368" on="1"/>
        <pt x="700" y="368" on="1"/>
        <pt x="700" y="1447" on="1"/>
        <pt x="284" y="1447" on="1"/>
      </contour>
    </TTGlyph>
    <TTGlyph name="afii57511" xMin="142" yMin="226" xMax="842" yMax="1588">
      <contour>
        <pt x="142" y="226" on="1"/>
        <pt x="142" y="1588" on="1"/>
        <pt x="842" y="1588" on="1"/>
        <pt x="842" y="226" on="1"/>
      </contour>
      <contour>
        <pt x="284" y="368" on="1"/>
        <pt x="700" y="368" on="1"/>
        <pt x="700" y="1447" on="1"/>
        <pt x="284" y="1447" on="1"/>
      </contour>
    </TTGlyph>
    <TTGlyph name="afii57512" xMin="142" yMin="226" xMax="842" yMax="1588">
      <contour>
        <pt x="142" y="226" on="1"/>
        <pt x="142" y="1588" on="1"/>
        <pt x="842" y="1588" on="1"/>
        <pt x="842" y="226" on="1"/>
      </contour>
      <contour>
        <pt x="284" y="368" on="1"/>
        <pt x="700" y="368" on="1"/>
        <pt x="700" y="1447" on="1"/>
        <pt x="284" y="1447" on="1"/>
      </contour>
    </TTGlyph>
    <TTGlyph name="afii57513" xMin="142" yMin="226" xMax="842" yMax="1588">
      <contour>
        <pt x="142" y="226" on="1"/>
        <pt x="142" y="1588" on="1"/>
        <pt x="842" y="1588" on="1"/>
        <pt x="842" y="226" on="1"/>
      </contour>
      <contour>
        <pt x="284" y="368" on="1"/>
        <pt x="700" y="368" on="1"/>
        <pt x="700" y="1447" on="1"/>
        <pt x="284" y="1447" on="1"/>
      </contour>
    </TTGlyph>
    <TTGlyph name="afii57514" xMin="142" yMin="226" xMax="842" yMax="1588">
      <contour>
        <pt x="142" y="226" on="1"/>
        <pt x="142" y="1588" on="1"/>
        <pt x="842" y="1588" on="1"/>
        <pt x="842" y="226" on="1"/>
      </contour>
      <contour>
        <pt x="284" y="368" on="1"/>
        <pt x="700" y="368" on="1"/>
        <pt x="700" y="1447" on="1"/>
        <pt x="284" y="1447" on="1"/>
      </contour>
    </TTGlyph>
    <TTGlyph name="afii57519" xMin="142" yMin="226" xMax="842" yMax="1588">
      <contour>
        <pt x="142" y="226" on="1"/>
        <pt x="142" y="1588" on="1"/>
        <pt x="842" y="1588" on="1"/>
        <pt x="842" y="226" on="1"/>
      </contour>
      <contour>
        <pt x="284" y="368" on="1"/>
        <pt x="700" y="368" on="1"/>
        <pt x="700" y="1447" on="1"/>
        <pt x="284" y="1447" on="1"/>
      </contour>
    </TTGlyph>
    <TTGlyph name="afii57534" xMin="142" yMin="226" xMax="842" yMax="1588">
      <contour>
        <pt x="142" y="226" on="1"/>
        <pt x="142" y="1588" on="1"/>
        <pt x="842" y="1588" on="1"/>
        <pt x="842" y="226" on="1"/>
      </contour>
      <contour>
        <pt x="284" y="368" on="1"/>
        <pt x="700" y="368" on="1"/>
        <pt x="700" y="1447" on="1"/>
        <pt x="284" y="1447" on="1"/>
      </contour>
    </TTGlyph>
    <TTGlyph name="afii63167" xMin="142" yMin="226" xMax="842" yMax="1588">
      <contour>
        <pt x="142" y="226" on="1"/>
        <pt x="142" y="1588" on="1"/>
        <pt x="842" y="1588" on="1"/>
        <pt x="842" y="226" on="1"/>
      </contour>
      <contour>
        <pt x="284" y="368" on="1"/>
        <pt x="700" y="368" on="1"/>
        <pt x="700" y="1447" on="1"/>
        <pt x="284" y="1447" on="1"/>
      </contour>
    </TTGlyph>
    <TTGlyph name="alefmaksurainitial" xMin="142" yMin="226" xMax="842" yMax="1588">
      <contour>
        <pt x="142" y="226" on="1"/>
        <pt x="142" y="1588" on="1"/>
        <pt x="842" y="1588" on="1"/>
        <pt x="842" y="226" on="1"/>
      </contour>
      <contour>
        <pt x="284" y="368" on="1"/>
        <pt x="700" y="368" on="1"/>
        <pt x="700" y="1447" on="1"/>
        <pt x="284" y="1447" on="1"/>
      </contour>
    </TTGlyph>
    <TTGlyph name="alefwaslafinalarabic" xMin="142" yMin="226" xMax="842" yMax="1588">
      <contour>
        <pt x="142" y="226" on="1"/>
        <pt x="142" y="1588" on="1"/>
        <pt x="842" y="1588" on="1"/>
        <pt x="842" y="226" on="1"/>
      </contour>
      <contour>
        <pt x="284" y="368" on="1"/>
        <pt x="700" y="368" on="1"/>
        <pt x="700" y="1447" on="1"/>
        <pt x="284" y="1447" on="1"/>
      </contour>
    </TTGlyph>
    <TTGlyph name="ampersand" xMin="142" yMin="226" xMax="842" yMax="1588">
      <contour>
        <pt x="142" y="226" on="1"/>
        <pt x="142" y="1588" on="1"/>
        <pt x="842" y="1588" on="1"/>
        <pt x="842" y="226" on="1"/>
      </contour>
      <contour>
        <pt x="284" y="368" on="1"/>
        <pt x="700" y="368" on="1"/>
        <pt x="700" y="1447" on="1"/>
        <pt x="284" y="1447" on="1"/>
      </contour>
    </TTGlyph>
    <TTGlyph name="asterisk" xMin="142" yMin="226" xMax="842" yMax="1588">
      <contour>
        <pt x="142" y="226" on="1"/>
        <pt x="142" y="1588" on="1"/>
        <pt x="842" y="1588" on="1"/>
        <pt x="842" y="226" on="1"/>
      </contour>
      <contour>
        <pt x="284" y="368" on="1"/>
        <pt x="700" y="368" on="1"/>
        <pt x="700" y="1447" on="1"/>
        <pt x="284" y="1447" on="1"/>
      </contour>
    </TTGlyph>
    <TTGlyph name="behmeemisolatedarabic" xMin="142" yMin="226" xMax="842" yMax="1588">
      <contour>
        <pt x="142" y="226" on="1"/>
        <pt x="142" y="1588" on="1"/>
        <pt x="842" y="1588" on="1"/>
        <pt x="842" y="226" on="1"/>
      </contour>
      <contour>
        <pt x="284" y="368" on="1"/>
        <pt x="700" y="368" on="1"/>
        <pt x="700" y="1447" on="1"/>
        <pt x="284" y="1447" on="1"/>
      </contour>
    </TTGlyph>
    <TTGlyph name="behnoonfinalarabic" xMin="142" yMin="226" xMax="842" yMax="1588">
      <contour>
        <pt x="142" y="226" on="1"/>
        <pt x="142" y="1588" on="1"/>
        <pt x="842" y="1588" on="1"/>
        <pt x="842" y="226" on="1"/>
      </contour>
      <contour>
        <pt x="284" y="368" on="1"/>
        <pt x="700" y="368" on="1"/>
        <pt x="700" y="1447" on="1"/>
        <pt x="284" y="1447" on="1"/>
      </contour>
    </TTGlyph>
    <TTGlyph name="colon" xMin="142" yMin="226" xMax="842" yMax="1588">
      <contour>
        <pt x="142" y="226" on="1"/>
        <pt x="142" y="1588" on="1"/>
        <pt x="842" y="1588" on="1"/>
        <pt x="842" y="226" on="1"/>
      </contour>
      <contour>
        <pt x="284" y="368" on="1"/>
        <pt x="700" y="368" on="1"/>
        <pt x="700" y="1447" on="1"/>
        <pt x="284" y="1447" on="1"/>
      </contour>
    </TTGlyph>
    <TTGlyph name="dagger" xMin="142" yMin="226" xMax="842" yMax="1588">
      <contour>
        <pt x="142" y="226" on="1"/>
        <pt x="142" y="1588" on="1"/>
        <pt x="842" y="1588" on="1"/>
        <pt x="842" y="226" on="1"/>
      </contour>
      <contour>
        <pt x="284" y="368" on="1"/>
        <pt x="700" y="368" on="1"/>
        <pt x="700" y="1447" on="1"/>
        <pt x="284" y="1447" on="1"/>
      </contour>
    </TTGlyph>
    <TTGlyph name="dalringfinal" xMin="142" yMin="226" xMax="842" yMax="1588">
      <contour>
        <pt x="142" y="226" on="1"/>
        <pt x="142" y="1588" on="1"/>
        <pt x="842" y="1588" on="1"/>
        <pt x="842" y="226" on="1"/>
      </contour>
      <contour>
        <pt x="284" y="368" on="1"/>
        <pt x="700" y="368" on="1"/>
        <pt x="700" y="1447" on="1"/>
        <pt x="284" y="1447" on="1"/>
      </contour>
    </TTGlyph>
    <TTGlyph name="ddalfinalarabic" xMin="142" yMin="226" xMax="842" yMax="1588">
      <contour>
        <pt x="142" y="226" on="1"/>
        <pt x="142" y="1588" on="1"/>
        <pt x="842" y="1588" on="1"/>
        <pt x="842" y="226" on="1"/>
      </contour>
      <contour>
        <pt x="284" y="368" on="1"/>
        <pt x="700" y="368" on="1"/>
        <pt x="700" y="1447" on="1"/>
        <pt x="284" y="1447" on="1"/>
      </contour>
    </TTGlyph>
    <TTGlyph name="divide" xMin="142" yMin="226" xMax="842" yMax="1588">
      <contour>
        <pt x="142" y="226" on="1"/>
        <pt x="142" y="1588" on="1"/>
        <pt x="842" y="1588" on="1"/>
        <pt x="842" y="226" on="1"/>
      </contour>
      <contour>
        <pt x="284" y="368" on="1"/>
        <pt x="700" y="368" on="1"/>
        <pt x="700" y="1447" on="1"/>
        <pt x="284" y="1447" on="1"/>
      </contour>
    </TTGlyph>
    <TTGlyph name="dollar" xMin="142" yMin="226" xMax="842" yMax="1588">
      <contour>
        <pt x="142" y="226" on="1"/>
        <pt x="142" y="1588" on="1"/>
        <pt x="842" y="1588" on="1"/>
        <pt x="842" y="226" on="1"/>
      </contour>
      <contour>
        <pt x="284" y="368" on="1"/>
        <pt x="700" y="368" on="1"/>
        <pt x="700" y="1447" on="1"/>
        <pt x="284" y="1447" on="1"/>
      </contour>
    </TTGlyph>
    <TTGlyph name="dotlessyehfinalarabic" xMin="142" yMin="226" xMax="842" yMax="1588">
      <contour>
        <pt x="142" y="226" on="1"/>
        <pt x="142" y="1588" on="1"/>
        <pt x="842" y="1588" on="1"/>
        <pt x="842" y="226" on="1"/>
      </contour>
      <contour>
        <pt x="284" y="368" on="1"/>
        <pt x="700" y="368" on="1"/>
        <pt x="700" y="1447" on="1"/>
        <pt x="284" y="1447" on="1"/>
      </contour>
    </TTGlyph>
    <TTGlyph name="dotlessyehinitialarabic" xMin="142" yMin="226" xMax="842" yMax="1588">
      <contour>
        <pt x="142" y="226" on="1"/>
        <pt x="142" y="1588" on="1"/>
        <pt x="842" y="1588" on="1"/>
        <pt x="842" y="226" on="1"/>
      </contour>
      <contour>
        <pt x="284" y="368" on="1"/>
        <pt x="700" y="368" on="1"/>
        <pt x="700" y="1447" on="1"/>
        <pt x="284" y="1447" on="1"/>
      </contour>
    </TTGlyph>
    <TTGlyph name="dotlessyehmedialarabic" xMin="142" yMin="226" xMax="842" yMax="1588">
      <contour>
        <pt x="142" y="226" on="1"/>
        <pt x="142" y="1588" on="1"/>
        <pt x="842" y="1588" on="1"/>
        <pt x="842" y="226" on="1"/>
      </contour>
      <contour>
        <pt x="284" y="368" on="1"/>
        <pt x="700" y="368" on="1"/>
        <pt x="700" y="1447" on="1"/>
        <pt x="284" y="1447" on="1"/>
      </contour>
    </TTGlyph>
    <TTGlyph name="elefmaksuramedial" xMin="142" yMin="226" xMax="842" yMax="1588">
      <contour>
        <pt x="142" y="226" on="1"/>
        <pt x="142" y="1588" on="1"/>
        <pt x="842" y="1588" on="1"/>
        <pt x="842" y="226" on="1"/>
      </contour>
      <contour>
        <pt x="284" y="368" on="1"/>
        <pt x="700" y="368" on="1"/>
        <pt x="700" y="1447" on="1"/>
        <pt x="284" y="1447" on="1"/>
      </contour>
    </TTGlyph>
    <TTGlyph name="ellipsis" xMin="142" yMin="226" xMax="842" yMax="1588">
      <contour>
        <pt x="142" y="226" on="1"/>
        <pt x="142" y="1588" on="1"/>
        <pt x="842" y="1588" on="1"/>
        <pt x="842" y="226" on="1"/>
      </contour>
      <contour>
        <pt x="284" y="368" on="1"/>
        <pt x="700" y="368" on="1"/>
        <pt x="700" y="1447" on="1"/>
        <pt x="284" y="1447" on="1"/>
      </contour>
    </TTGlyph>
    <TTGlyph name="emdash" xMin="352" yMin="-420" xMax="2400" yMax="1618">
      <contour>
        <pt x="2338" y="1529" on="1"/>
        <pt x="2339" y="1501" on="0"/>
        <pt x="2291" y="1438" on="1"/>
        <pt x="2266" y="1408" on="0"/>
        <pt x="2241" y="1379" on="1"/>
        <pt x="2202" y="1325" on="0"/>
        <pt x="2123" y="1219" on="1"/>
        <pt x="2105" y="1219" on="1"/>
        <pt x="2099" y="1232" on="0"/>
        <pt x="2099" y="1259" on="1"/>
        <pt x="2099" y="1304" on="0"/>
        <pt x="2202" y="1435" on="1"/>
        <pt x="2261" y="1505" on="0"/>
        <pt x="2320" y="1575" on="1"/>
        <pt x="2338" y="1575" on="1"/>
      </contour>
      <contour>
        <pt x="2114" y="1565" on="1"/>
        <pt x="2116" y="1520" on="0"/>
        <pt x="2112" y="1498" on="1"/>
        <pt x="2099" y="1416" on="0"/>
        <pt x="2078" y="1375" on="1"/>
        <pt x="2067" y="1353" on="0"/>
        <pt x="2028" y="1325" on="1"/>
        <pt x="1993" y="1300" on="0"/>
        <pt x="1982" y="1300" on="1"/>
        <pt x="1977" y="1300" on="0"/>
        <pt x="1957" y="1311" on="0"/>
        <pt x="1952" y="1311" on="1"/>
        <pt x="1922" y="1311" on="0"/>
        <pt x="1904" y="1250" on="1"/>
        <pt x="1886" y="1250" on="1"/>
        <pt x="1886" y="1294" on="1"/>
        <pt x="1885" y="1335" on="0"/>
        <pt x="1937" y="1418" on="1"/>
        <pt x="1950" y="1421" on="0"/>
        <pt x="1979" y="1435" on="1"/>
        <pt x="1986" y="1440" on="0"/>
        <pt x="1990" y="1461" on="1"/>
        <pt x="1997" y="1488" on="0"/>
        <pt x="1999" y="1493" on="1"/>
        <pt x="2019" y="1538" on="0"/>
        <pt x="2038" y="1583" on="1"/>
        <pt x="2056" y="1618" on="0"/>
        <pt x="2076" y="1618" on="1"/>
        <pt x="2087" y="1618" on="0"/>
      </contour>
      <contour>
        <pt x="2069" y="261" on="1"/>
        <pt x="2069" y="197" on="0"/>
        <pt x="2047" y="93" on="1"/>
        <pt x="2028" y="93" on="1"/>
        <pt x="1957" y="1116" on="1"/>
        <pt x="1963" y="1180" on="0"/>
        <pt x="1989" y="1248" on="1"/>
        <pt x="1998" y="1248" on="0"/>
        <pt x="2005" y="1225" on="1"/>
        <pt x="2008" y="1029" on="0"/>
        <pt x="2019" y="886" on="1"/>
      </contour>
      <contour>
        <pt x="1803" y="1303" on="1"/>
        <pt x="1782" y="1255" on="0"/>
        <pt x="1709" y="1187" on="1"/>
        <pt x="1643" y="1126" on="0"/>
        <pt x="1628" y="1126" on="1"/>
        <pt x="1609" y="1126" on="0"/>
        <pt x="1600" y="1163" on="1"/>
        <pt x="1628" y="1199" on="0"/>
        <pt x="1686" y="1276" on="1"/>
        <pt x="1682" y="1300" on="0"/>
        <pt x="1664" y="1300" on="1"/>
        <pt x="1657" y="1300" on="0"/>
        <pt x="1633" y="1279" on="1"/>
        <pt x="1604" y="1255" on="0"/>
        <pt x="1595" y="1250" on="1"/>
        <pt x="1595" y="1284" on="1"/>
        <pt x="1595" y="1334" on="0"/>
        <pt x="1637" y="1377" on="1"/>
        <pt x="1672" y="1413" on="0"/>
        <pt x="1692" y="1413" on="1"/>
        <pt x="1710" y="1413" on="0"/>
        <pt x="1803" y="1360" on="1"/>
      </contour>
      <contour>
        <pt x="2400" y="271" on="1"/>
        <pt x="2400" y="111" on="0"/>
        <pt x="2337" y="-95" on="1"/>
        <pt x="2265" y="-338" on="0"/>
        <pt x="2173" y="-338" on="1"/>
        <pt x="2152" y="-338" on="0"/>
        <pt x="2087" y="-321" on="1"/>
        <pt x="2008" y="-303" on="0"/>
        <pt x="1988" y="-284" on="1"/>
        <pt x="1988" y="-276" on="0"/>
        <pt x="1989" y="-258" on="1"/>
        <pt x="2008" y="-235" on="0"/>
        <pt x="2025" y="-235" on="1"/>
        <pt x="2031" y="-235" on="0"/>
        <pt x="2050" y="-245" on="0"/>
        <pt x="2056" y="-245" on="1"/>
        <pt x="2138" y="-245" on="0"/>
        <pt x="2188" y="-203" on="1"/>
        <pt x="2232" y="-163" on="0"/>
        <pt x="2287" y="-36" on="1"/>
        <pt x="2337" y="83" on="0"/>
        <pt x="2359" y="188" on="1"/>
        <pt x="2352" y="205" on="1"/>
        <pt x="2347" y="179" on="0"/>
        <pt x="2328" y="161" on="1"/>
        <pt x="2311" y="143" on="0"/>
        <pt x="2296" y="143" on="1"/>
        <pt x="2268" y="143" on="0"/>
        <pt x="2246" y="206" on="1"/>
        <pt x="2227" y="260" on="0"/>
        <pt x="2227" y="302" on="1"/>
        <pt x="2227" y="360" on="0"/>
        <pt x="2245" y="452" on="1"/>
        <pt x="2268" y="573" on="0"/>
        <pt x="2303" y="573" on="1"/>
        <pt x="2323" y="573" on="0"/>
        <pt x="2355" y="489" on="1"/>
        <pt x="2400" y="367" on="0"/>
      </contour>
      <contour>
        <pt x="1309" y="1551" on="1"/>
        <pt x="1309" y="1504" on="0"/>
        <pt x="1266" y="1443" on="1"/>
        <pt x="1237" y="1406" on="0"/>
        <pt x="1207" y="1369" on="1"/>
        <pt x="1126" y="1262" on="0"/>
        <pt x="1083" y="1198" on="1"/>
        <pt x="1065" y="1220" on="0"/>
        <pt x="1065" y="1244" on="1"/>
        <pt x="1065" y="1291" on="0"/>
        <pt x="1106" y="1346" on="1"/>
        <pt x="1140" y="1385" on="0"/>
        <pt x="1173" y="1425" on="1"/>
        <pt x="1217" y="1485" on="0"/>
        <pt x="1302" y="1587" on="1"/>
        <pt x="1309" y="1572" on="0"/>
      </contour>
      <contour>
        <pt x="993" y="1249" on="1"/>
        <pt x="993" y="1188" on="0"/>
        <pt x="973" y="1188" on="1"/>
        <pt x="968" y="1188" on="0"/>
        <pt x="926" y="1249" on="0"/>
        <pt x="920" y="1249" on="1"/>
        <pt x="916" y="1249" on="0"/>
        <pt x="865" y="1163" on="1"/>
        <pt x="809" y="1067" on="0"/>
        <pt x="784" y="1037" on="1"/>
        <pt x="754" y="1003" on="0"/>
        <pt x="736" y="1004" on="1"/>
        <pt x="714" y="1004" on="1"/>
        <pt x="714" y="1041" on="1"/>
        <pt x="754" y="1096" on="0"/>
        <pt x="793" y="1152" on="1"/>
        <pt x="845" y="1225" on="0"/>
        <pt x="866" y="1285" on="1"/>
        <pt x="847" y="1316" on="0"/>
        <pt x="828" y="1349" on="1"/>
        <pt x="810" y="1381" on="0"/>
        <pt x="810" y="1413" on="1"/>
        <pt x="810" y="1457" on="0"/>
        <pt x="873" y="1597" on="0"/>
        <pt x="894" y="1597" on="1"/>
        <pt x="936" y="1597" on="0"/>
        <pt x="936" y="1460" on="1"/>
        <pt x="936" y="1438" on="0"/>
        <pt x="935" y="1407" on="1"/>
        <pt x="933" y="1381" on="0"/>
        <pt x="934" y="1380" on="1"/>
        <pt x="953" y="1343" on="0"/>
        <pt x="971" y="1307" on="1"/>
        <pt x="993" y="1262" on="0"/>
      </contour>
      <contour>
        <pt x="1931" y="348" on="1"/>
        <pt x="1931" y="235" on="0"/>
        <pt x="1744" y="107" on="1"/>
        <pt x="1586" y="0" on="0"/>
        <pt x="1539" y="0" on="1"/>
        <pt x="1533" y="0" on="0"/>
        <pt x="1430" y="-10" on="0"/>
        <pt x="1424" y="-10" on="1"/>
        <pt x="1252" y="-10" on="0"/>
        <pt x="1220" y="184" on="1"/>
        <pt x="1180" y="103" on="0"/>
        <pt x="1122" y="78" on="1"/>
        <pt x="1074" y="57" on="0"/>
        <pt x="1059" y="-9" on="1"/>
        <pt x="996" y="2" on="0"/>
        <pt x="929" y="54" on="1"/>
        <pt x="925" y="57" on="0"/>
        <pt x="912" y="86" on="1"/>
        <pt x="901" y="112" on="0"/>
        <pt x="894" y="112" on="1"/>
        <pt x="884" y="112" on="0"/>
        <pt x="851" y="75" on="1"/>
        <pt x="816" y="35" on="0"/>
        <pt x="811" y="13" on="1"/>
        <pt x="764" y="-215" on="0"/>
        <pt x="710" y="-316" on="1"/>
        <pt x="655" y="-420" on="0"/>
        <pt x="573" y="-420" on="1"/>
        <pt x="568" y="-420" on="0"/>
        <pt x="502" y="-409" on="0"/>
        <pt x="495" y="-409" on="1"/>
        <pt x="489" y="-409" on="0"/>
        <pt x="470" y="-392" on="1"/>
        <pt x="448" y="-371" on="0"/>
        <pt x="439" y="-367" on="1"/>
        <pt x="439" y="-329" on="1"/>
        <pt x="443" y="-327" on="0"/>
        <pt x="572" y="-327" on="0"/>
        <pt x="587" y="-315" on="1"/>
        <pt x="626" y="-284" on="0"/>
        <pt x="679" y="-199" on="1"/>
        <pt x="746" y="-92" on="0"/>
        <pt x="760" y="-4" on="1"/>
        <pt x="760" y="6" on="0"/>
        <pt x="751" y="17" on="1"/>
        <pt x="742" y="20" on="0"/>
        <pt x="723" y="20" on="1"/>
        <pt x="715" y="20" on="1"/>
        <pt x="657" y="20" on="0"/>
        <pt x="634" y="84" on="1"/>
        <pt x="627" y="103" on="0"/>
        <pt x="627" y="169" on="1"/>
        <pt x="627" y="226" on="0"/>
        <pt x="650" y="323" on="1"/>
        <pt x="678" y="440" on="0"/>
        <pt x="711" y="440" on="1"/>
        <pt x="736" y="440" on="0"/>
        <pt x="772" y="319" on="1"/>
        <pt x="790" y="251" on="0"/>
        <pt x="809" y="184" on="1"/>
        <pt x="834" y="193" on="0"/>
        <pt x="878" y="227" on="1"/>
        <pt x="885" y="238" on="0"/>
        <pt x="931" y="330" on="1"/>
        <pt x="966" y="399" on="0"/>
        <pt x="983" y="399" on="1"/>
        <pt x="984" y="399" on="0"/>
        <pt x="1075" y="225" on="0"/>
        <pt x="1116" y="225" on="1"/>
        <pt x="1151" y="225" on="0"/>
        <pt x="1189" y="268" on="1"/>
        <pt x="1208" y="290" on="0"/>
        <pt x="1208" y="338" on="1"/>
        <pt x="1162" y="988" on="1"/>
        <pt x="1165" y="1022" on="0"/>
        <pt x="1169" y="1057" on="1"/>
        <pt x="1176" y="1108" on="0"/>
        <pt x="1195" y="1126" on="1"/>
        <pt x="1199" y="1119" on="0"/>
        <pt x="1205" y="1102" on="1"/>
        <pt x="1212" y="972" on="0"/>
        <pt x="1224" y="743" on="1"/>
        <pt x="1238" y="646" on="0"/>
        <pt x="1252" y="455" on="1"/>
        <pt x="1253" y="250" on="0"/>
        <pt x="1320" y="188" on="1"/>
        <pt x="1356" y="153" on="0"/>
        <pt x="1455" y="153" on="1"/>
        <pt x="1522" y="153" on="0"/>
        <pt x="1532" y="155" on="1"/>
        <pt x="1580" y="163" on="0"/>
        <pt x="1615" y="201" on="1"/>
        <pt x="1590" y="298" on="0"/>
        <pt x="1590" y="333" on="1"/>
        <pt x="1590" y="346" on="0"/>
        <pt x="1599" y="383" on="1"/>
        <pt x="1611" y="431" on="0"/>
        <pt x="1613" y="447" on="1"/>
        <pt x="1627" y="521" on="0"/>
        <pt x="1647" y="582" on="1"/>
        <pt x="1657" y="609" on="0"/>
        <pt x="1728" y="696" on="0"/>
        <pt x="1743" y="696" on="1"/>
        <pt x="1791" y="696" on="0"/>
        <pt x="1855" y="570" on="1"/>
        <pt x="1855" y="532" on="0"/>
        <pt x="1839" y="532" on="1"/>
        <pt x="1833" y="532" on="0"/>
        <pt x="1797" y="573" on="0"/>
        <pt x="1791" y="573" on="1"/>
        <pt x="1767" y="573" on="0"/>
        <pt x="1717" y="528" on="1"/>
        <pt x="1656" y="473" on="0"/>
        <pt x="1656" y="415" on="1"/>
        <pt x="1656" y="366" on="0"/>
        <pt x="1686" y="305" on="1"/>
        <pt x="1715" y="246" on="0"/>
        <pt x="1733" y="246" on="1"/>
        <pt x="1738" y="246" on="0"/>
        <pt x="1810" y="303" on="1"/>
        <pt x="1816" y="307" on="0"/>
        <pt x="1859" y="348" on="1"/>
        <pt x="1891" y="378" on="0"/>
        <pt x="1898" y="378" on="1"/>
        <pt x="1924" y="378" on="1"/>
        <pt x="1931" y="365" on="0"/>
      </contour>
      <contour>
        <pt x="759" y="1405" on="1"/>
        <pt x="752" y="1312" on="0"/>
        <pt x="656" y="1221" on="1"/>
        <pt x="650" y="1218" on="0"/>
        <pt x="635" y="1218" on="1"/>
        <pt x="630" y="1218" on="0"/>
        <pt x="560" y="1239" on="0"/>
        <pt x="553" y="1239" on="1"/>
        <pt x="547" y="1239" on="0"/>
        <pt x="531" y="1211" on="1"/>
        <pt x="506" y="1167" on="0"/>
        <pt x="500" y="1158" on="1"/>
        <pt x="500" y="1222" on="1"/>
        <pt x="500" y="1248" on="0"/>
        <pt x="549" y="1362" on="0"/>
        <pt x="558" y="1362" on="1"/>
        <pt x="564" y="1362" on="0"/>
        <pt x="633" y="1331" on="0"/>
        <pt x="640" y="1331" on="1"/>
        <pt x="660" y="1331" on="0"/>
        <pt x="706" y="1372" on="1"/>
        <pt x="727" y="1393" on="0"/>
        <pt x="748" y="1414" on="1"/>
      </contour>
      <contour>
        <pt x="474" y="1428" on="1"/>
        <pt x="474" y="1366" on="0"/>
        <pt x="453" y="1306" on="1"/>
        <pt x="428" y="1239" on="0"/>
        <pt x="395" y="1239" on="1"/>
        <pt x="352" y="1239" on="0"/>
        <pt x="352" y="1325" on="1"/>
        <pt x="352" y="1368" on="0"/>
        <pt x="375" y="1450" on="1"/>
        <pt x="402" y="1546" on="0"/>
        <pt x="431" y="1546" on="1"/>
        <pt x="450" y="1546" on="0"/>
        <pt x="464" y="1491" on="1"/>
        <pt x="474" y="1451" on="0"/>
      </contour>
      <contour>
        <pt x="474" y="241" on="1"/>
        <pt x="474" y="234" on="0"/>
        <pt x="458" y="103" on="1"/>
        <pt x="455" y="103" on="0"/>
        <pt x="437" y="93" on="0"/>
        <pt x="434" y="93" on="1"/>
        <pt x="382" y="972" on="1"/>
        <pt x="382" y="1031" on="0"/>
        <pt x="391" y="1090" on="1"/>
        <pt x="402" y="1168" on="0"/>
        <pt x="422" y="1176" on="1"/>
      </contour>
      <contour>
        <pt x="2066" y="1469" on="1"/>
        <pt x="2068" y="1475" on="0"/>
        <pt x="2062" y="1494" on="1"/>
        <pt x="2035" y="1468" on="0"/>
        <pt x="2031" y="1434" on="1"/>
        <pt x="2045" y="1444" on="0"/>
      </contour>
      <contour>
        <pt x="2323" y="330" on="1"/>
        <pt x="2324" y="347" on="0"/>
        <pt x="2302" y="400" on="0"/>
        <pt x="2290" y="410" on="1"/>
        <pt x="2288" y="404" on="0"/>
        <pt x="2275" y="369" on="0"/>
        <pt x="2272" y="365" on="1"/>
        <pt x="2287" y="307" on="0"/>
        <pt x="2303" y="307" on="1"/>
        <pt x="2311" y="307" on="0"/>
      </contour>
      <contour>
        <pt x="895" y="1403" on="1"/>
        <pt x="895" y="1415" on="0"/>
        <pt x="891" y="1458" on="0"/>
        <pt x="891" y="1463" on="1"/>
        <pt x="872" y="1463" on="1"/>
        <pt x="866" y="1439" on="1"/>
        <pt x="866" y="1423" on="0"/>
        <pt x="879" y="1415" on="1"/>
        <pt x="894" y="1405" on="0"/>
      </contour>
      <contour>
        <pt x="428" y="1422" on="1"/>
        <pt x="404" y="1422" on="1"/>
        <pt x="387" y="1389" on="0"/>
        <pt x="387" y="1377" on="1"/>
        <pt x="387" y="1342" on="0"/>
        <pt x="422" y="1342" on="1"/>
        <pt x="434" y="1382" on="0"/>
      </contour>
      <contour>
        <pt x="988" y="206" on="1"/>
        <pt x="975" y="262" on="0"/>
        <pt x="961" y="276" on="1"/>
        <pt x="948" y="264" on="1"/>
        <pt x="948" y="229" on="1"/>
        <pt x="954" y="222" on="0"/>
        <pt x="965" y="206" on="1"/>
      </contour>
      <contour>
        <pt x="729" y="186" on="1"/>
        <pt x="710" y="264" on="0"/>
        <pt x="689" y="265" on="1"/>
        <pt x="684" y="206" on="1"/>
        <pt x="688" y="206" on="0"/>
        <pt x="700" y="186" on="1"/>
      </contour>
    </TTGlyph>
    <TTGlyph name="endash" xMin="352" yMin="-420" xMax="1376" yMax="1618">
      <contour>
        <pt x="1345" y="1529" on="1"/>
        <pt x="1345" y="1501" on="0"/>
        <pt x="1321" y="1438" on="1"/>
        <pt x="1309" y="1408" on="0"/>
        <pt x="1296" y="1379" on="1"/>
        <pt x="1277" y="1325" on="0"/>
        <pt x="1237" y="1219" on="1"/>
        <pt x="1229" y="1219" on="1"/>
        <pt x="1225" y="1232" on="0"/>
        <pt x="1225" y="1259" on="1"/>
        <pt x="1225" y="1304" on="0"/>
        <pt x="1277" y="1435" on="1"/>
        <pt x="1307" y="1505" on="0"/>
        <pt x="1336" y="1575" on="1"/>
        <pt x="1345" y="1575" on="1"/>
      </contour>
      <contour>
        <pt x="1233" y="1565" on="1"/>
        <pt x="1234" y="1520" on="0"/>
        <pt x="1232" y="1498" on="1"/>
        <pt x="1225" y="1416" on="0"/>
        <pt x="1215" y="1375" on="1"/>
        <pt x="1209" y="1353" on="0"/>
        <pt x="1190" y="1325" on="1"/>
        <pt x="1173" y="1300" on="0"/>
        <pt x="1167" y="1300" on="1"/>
        <pt x="1164" y="1300" on="0"/>
        <pt x="1155" y="1311" on="0"/>
        <pt x="1152" y="1311" on="1"/>
        <pt x="1137" y="1311" on="0"/>
        <pt x="1128" y="1250" on="1"/>
        <pt x="1119" y="1250" on="1"/>
        <pt x="1119" y="1294" on="1"/>
        <pt x="1119" y="1335" on="0"/>
        <pt x="1145" y="1418" on="1"/>
        <pt x="1151" y="1421" on="0"/>
        <pt x="1165" y="1435" on="1"/>
        <pt x="1169" y="1440" on="0"/>
        <pt x="1171" y="1461" on="1"/>
        <pt x="1175" y="1488" on="0"/>
        <pt x="1175" y="1493" on="1"/>
        <pt x="1185" y="1538" on="0"/>
        <pt x="1195" y="1583" on="1"/>
        <pt x="1204" y="1618" on="0"/>
        <pt x="1214" y="1618" on="1"/>
        <pt x="1219" y="1618" on="0"/>
      </contour>
      <contour>
        <pt x="1210" y="261" on="1"/>
        <pt x="1210" y="197" on="0"/>
        <pt x="1200" y="93" on="1"/>
        <pt x="1190" y="93" on="1"/>
        <pt x="1154" y="1116" on="1"/>
        <pt x="1157" y="1180" on="0"/>
        <pt x="1170" y="1248" on="1"/>
        <pt x="1175" y="1248" on="0"/>
        <pt x="1179" y="1225" on="1"/>
        <pt x="1180" y="1029" on="0"/>
        <pt x="1186" y="886" on="1"/>
      </contour>
      <contour>
        <pt x="1078" y="1303" on="1"/>
        <pt x="1067" y="1255" on="0"/>
        <pt x="1030" y="1187" on="1"/>
        <pt x="997" y="1126" on="0"/>
        <pt x="990" y="1126" on="1"/>
        <pt x="980" y="1126" on="0"/>
        <pt x="976" y="1163" on="1"/>
        <pt x="990" y="1199" on="0"/>
        <pt x="1019" y="1276" on="1"/>
        <pt x="1017" y="1300" on="0"/>
        <pt x="1008" y="1300" on="1"/>
        <pt x="1004" y="1300" on="0"/>
        <pt x="992" y="1279" on="1"/>
        <pt x="978" y="1255" on="0"/>
        <pt x="974" y="1250" on="1"/>
        <pt x="974" y="1284" on="1"/>
        <pt x="974" y="1334" on="0"/>
        <pt x="994" y="1377" on="1"/>
        <pt x="1012" y="1413" on="0"/>
        <pt x="1022" y="1413" on="1"/>
        <pt x="1031" y="1413" on="0"/>
        <pt x="1078" y="1360" on="1"/>
      </contour>
      <contour>
        <pt x="1376" y="271" on="1"/>
        <pt x="1376" y="111" on="0"/>
        <pt x="1345" y="-95" on="1"/>
        <pt x="1308" y="-338" on="0"/>
        <pt x="1263" y="-338" on="1"/>
        <pt x="1252" y="-338" on="0"/>
        <pt x="1219" y="-321" on="1"/>
        <pt x="1180" y="-303" on="0"/>
        <pt x="1170" y="-284" on="1"/>
        <pt x="1170" y="-276" on="0"/>
        <pt x="1171" y="-258" on="1"/>
        <pt x="1180" y="-235" on="0"/>
        <pt x="1189" y="-235" on="1"/>
        <pt x="1191" y="-235" on="0"/>
        <pt x="1201" y="-245" on="0"/>
        <pt x="1204" y="-245" on="1"/>
        <pt x="1245" y="-245" on="0"/>
        <pt x="1270" y="-203" on="1"/>
        <pt x="1292" y="-163" on="0"/>
        <pt x="1319" y="-36" on="1"/>
        <pt x="1345" y="83" on="0"/>
        <pt x="1356" y="188" on="1"/>
        <pt x="1352" y="205" on="1"/>
        <pt x="1350" y="179" on="0"/>
        <pt x="1340" y="161" on="1"/>
        <pt x="1332" y="143" on="0"/>
        <pt x="1324" y="143" on="1"/>
        <pt x="1310" y="143" on="0"/>
        <pt x="1299" y="206" on="1"/>
        <pt x="1289" y="260" on="0"/>
        <pt x="1289" y="302" on="1"/>
        <pt x="1289" y="360" on="0"/>
        <pt x="1298" y="452" on="1"/>
        <pt x="1310" y="573" on="0"/>
        <pt x="1327" y="573" on="1"/>
        <pt x="1338" y="573" on="0"/>
        <pt x="1353" y="489" on="1"/>
        <pt x="1376" y="367" on="0"/>
      </contour>
      <contour>
        <pt x="831" y="1551" on="1"/>
        <pt x="831" y="1504" on="0"/>
        <pt x="809" y="1443" on="1"/>
        <pt x="794" y="1406" on="0"/>
        <pt x="779" y="1369" on="1"/>
        <pt x="739" y="1262" on="0"/>
        <pt x="717" y="1198" on="1"/>
        <pt x="709" y="1220" on="0"/>
        <pt x="709" y="1244" on="1"/>
        <pt x="709" y="1291" on="0"/>
        <pt x="729" y="1346" on="1"/>
        <pt x="746" y="1385" on="0"/>
        <pt x="763" y="1425" on="1"/>
        <pt x="785" y="1485" on="0"/>
        <pt x="827" y="1587" on="1"/>
        <pt x="831" y="1572" on="0"/>
      </contour>
      <contour>
        <pt x="673" y="1249" on="1"/>
        <pt x="673" y="1188" on="0"/>
        <pt x="662" y="1188" on="1"/>
        <pt x="660" y="1188" on="0"/>
        <pt x="639" y="1249" on="0"/>
        <pt x="636" y="1249" on="1"/>
        <pt x="634" y="1249" on="0"/>
        <pt x="609" y="1163" on="1"/>
        <pt x="580" y="1067" on="0"/>
        <pt x="568" y="1037" on="1"/>
        <pt x="553" y="1003" on="0"/>
        <pt x="544" y="1004" on="1"/>
        <pt x="533" y="1004" on="1"/>
        <pt x="533" y="1041" on="1"/>
        <pt x="553" y="1096" on="0"/>
        <pt x="572" y="1152" on="1"/>
        <pt x="598" y="1225" on="0"/>
        <pt x="609" y="1285" on="1"/>
        <pt x="600" y="1316" on="0"/>
        <pt x="590" y="1349" on="1"/>
        <pt x="581" y="1381" on="0"/>
        <pt x="581" y="1413" on="1"/>
        <pt x="581" y="1457" on="0"/>
        <pt x="612" y="1597" on="0"/>
        <pt x="623" y="1597" on="1"/>
        <pt x="644" y="1597" on="0"/>
        <pt x="644" y="1460" on="1"/>
        <pt x="644" y="1438" on="0"/>
        <pt x="643" y="1407" on="1"/>
        <pt x="643" y="1381" on="0"/>
        <pt x="643" y="1380" on="1"/>
        <pt x="652" y="1343" on="0"/>
        <pt x="661" y="1307" on="1"/>
        <pt x="673" y="1262" on="0"/>
      </contour>
      <contour>
        <pt x="1142" y="348" on="1"/>
        <pt x="1142" y="235" on="0"/>
        <pt x="1048" y="107" on="1"/>
        <pt x="969" y="0" on="0"/>
        <pt x="946" y="0" on="1"/>
        <pt x="943" y="0" on="0"/>
        <pt x="891" y="-10" on="0"/>
        <pt x="888" y="-10" on="1"/>
        <pt x="802" y="-10" on="0"/>
        <pt x="786" y="184" on="1"/>
        <pt x="766" y="103" on="0"/>
        <pt x="737" y="78" on="1"/>
        <pt x="713" y="57" on="0"/>
        <pt x="705" y="-9" on="1"/>
        <pt x="674" y="2" on="0"/>
        <pt x="641" y="54" on="1"/>
        <pt x="638" y="57" on="0"/>
        <pt x="632" y="86" on="1"/>
        <pt x="627" y="112" on="0"/>
        <pt x="623" y="112" on="1"/>
        <pt x="618" y="112" on="0"/>
        <pt x="602" y="75" on="1"/>
        <pt x="584" y="35" on="0"/>
        <pt x="582" y="13" on="1"/>
        <pt x="558" y="-215" on="0"/>
        <pt x="531" y="-316" on="1"/>
        <pt x="503" y="-420" on="0"/>
        <pt x="463" y="-420" on="1"/>
        <pt x="460" y="-420" on="0"/>
        <pt x="427" y="-409" on="0"/>
        <pt x="423" y="-409" on="1"/>
        <pt x="420" y="-409" on="0"/>
        <pt x="411" y="-392" on="1"/>
        <pt x="400" y="-371" on="0"/>
        <pt x="396" y="-367" on="1"/>
        <pt x="396" y="-329" on="1"/>
        <pt x="397" y="-327" on="0"/>
        <pt x="462" y="-327" on="0"/>
        <pt x="470" y="-315" on="1"/>
        <pt x="489" y="-284" on="0"/>
        <pt x="516" y="-199" on="1"/>
        <pt x="549" y="-92" on="0"/>
        <pt x="556" y="-4" on="1"/>
        <pt x="556" y="6" on="0"/>
        <pt x="551" y="17" on="1"/>
        <pt x="547" y="20" on="0"/>
        <pt x="537" y="20" on="1"/>
        <pt x="533" y="20" on="1"/>
        <pt x="504" y="20" on="0"/>
        <pt x="493" y="84" on="1"/>
        <pt x="490" y="103" on="0"/>
        <pt x="490" y="169" on="1"/>
        <pt x="490" y="226" on="0"/>
        <pt x="501" y="323" on="1"/>
        <pt x="515" y="440" on="0"/>
        <pt x="532" y="440" on="1"/>
        <pt x="544" y="440" on="0"/>
        <pt x="562" y="319" on="1"/>
        <pt x="571" y="251" on="0"/>
        <pt x="580" y="184" on="1"/>
        <pt x="593" y="193" on="0"/>
        <pt x="615" y="227" on="1"/>
        <pt x="619" y="238" on="0"/>
        <pt x="642" y="330" on="1"/>
        <pt x="659" y="399" on="0"/>
        <pt x="668" y="399" on="1"/>
        <pt x="668" y="399" on="0"/>
        <pt x="713" y="225" on="0"/>
        <pt x="734" y="225" on="1"/>
        <pt x="752" y="225" on="0"/>
        <pt x="770" y="268" on="1"/>
        <pt x="780" y="290" on="0"/>
        <pt x="780" y="338" on="1"/>
        <pt x="757" y="988" on="1"/>
        <pt x="759" y="1022" on="0"/>
        <pt x="761" y="1057" on="1"/>
        <pt x="764" y="1108" on="0"/>
        <pt x="774" y="1126" on="1"/>
        <pt x="775" y="1119" on="0"/>
        <pt x="779" y="1102" on="1"/>
        <pt x="782" y="972" on="0"/>
        <pt x="788" y="743" on="1"/>
        <pt x="795" y="646" on="0"/>
        <pt x="802" y="455" on="1"/>
        <pt x="802" y="250" on="0"/>
        <pt x="836" y="188" on="1"/>
        <pt x="854" y="153" on="0"/>
        <pt x="903" y="153" on="1"/>
        <pt x="937" y="153" on="0"/>
        <pt x="942" y="155" on="1"/>
        <pt x="966" y="163" on="0"/>
        <pt x="984" y="201" on="1"/>
        <pt x="971" y="298" on="0"/>
        <pt x="971" y="333" on="1"/>
        <pt x="971" y="346" on="0"/>
        <pt x="975" y="383" on="1"/>
        <pt x="981" y="431" on="0"/>
        <pt x="983" y="447" on="1"/>
        <pt x="989" y="521" on="0"/>
        <pt x="1000" y="582" on="1"/>
        <pt x="1005" y="609" on="0"/>
        <pt x="1040" y="696" on="0"/>
        <pt x="1047" y="696" on="1"/>
        <pt x="1072" y="696" on="0"/>
        <pt x="1103" y="570" on="1"/>
        <pt x="1103" y="532" on="0"/>
        <pt x="1096" y="532" on="1"/>
        <pt x="1092" y="532" on="0"/>
        <pt x="1075" y="573" on="0"/>
        <pt x="1071" y="573" on="1"/>
        <pt x="1060" y="573" on="0"/>
        <pt x="1034" y="528" on="1"/>
        <pt x="1004" y="473" on="0"/>
        <pt x="1004" y="415" on="1"/>
        <pt x="1004" y="366" on="0"/>
        <pt x="1019" y="305" on="1"/>
        <pt x="1033" y="246" on="0"/>
        <pt x="1042" y="246" on="1"/>
        <pt x="1045" y="246" on="0"/>
        <pt x="1081" y="303" on="1"/>
        <pt x="1084" y="307" on="0"/>
        <pt x="1106" y="348" on="1"/>
        <pt x="1121" y="378" on="0"/>
        <pt x="1125" y="378" on="1"/>
        <pt x="1138" y="378" on="1"/>
        <pt x="1142" y="365" on="0"/>
      </contour>
      <contour>
        <pt x="556" y="1405" on="1"/>
        <pt x="552" y="1312" on="0"/>
        <pt x="504" y="1221" on="1"/>
        <pt x="501" y="1218" on="0"/>
        <pt x="493" y="1218" on="1"/>
        <pt x="491" y="1218" on="0"/>
        <pt x="456" y="1239" on="0"/>
        <pt x="453" y="1239" on="1"/>
        <pt x="450" y="1239" on="0"/>
        <pt x="442" y="1211" on="1"/>
        <pt x="429" y="1167" on="0"/>
        <pt x="426" y="1158" on="1"/>
        <pt x="426" y="1222" on="1"/>
        <pt x="426" y="1248" on="0"/>
        <pt x="451" y="1362" on="0"/>
        <pt x="455" y="1362" on="1"/>
        <pt x="458" y="1362" on="0"/>
        <pt x="493" y="1331" on="0"/>
        <pt x="496" y="1331" on="1"/>
        <pt x="506" y="1331" on="0"/>
        <pt x="529" y="1372" on="1"/>
        <pt x="539" y="1393" on="0"/>
        <pt x="550" y="1414" on="1"/>
      </contour>
      <contour>
        <pt x="413" y="1428" on="1"/>
        <pt x="413" y="1366" on="0"/>
        <pt x="402" y="1306" on="1"/>
        <pt x="390" y="1239" on="0"/>
        <pt x="374" y="1239" on="1"/>
        <pt x="352" y="1239" on="0"/>
        <pt x="352" y="1325" on="1"/>
        <pt x="352" y="1368" on="0"/>
        <pt x="363" y="1450" on="1"/>
        <pt x="377" y="1546" on="0"/>
        <pt x="391" y="1546" on="1"/>
        <pt x="401" y="1546" on="0"/>
        <pt x="408" y="1491" on="1"/>
        <pt x="413" y="1451" on="0"/>
      </contour>
      <contour>
        <pt x="413" y="241" on="1"/>
        <pt x="413" y="234" on="0"/>
        <pt x="405" y="103" on="1"/>
        <pt x="403" y="103" on="0"/>
        <pt x="394" y="93" on="0"/>
        <pt x="393" y="93" on="1"/>
        <pt x="367" y="972" on="1"/>
        <pt x="367" y="1031" on="0"/>
        <pt x="371" y="1090" on="1"/>
        <pt x="377" y="1168" on="0"/>
        <pt x="387" y="1176" on="1"/>
      </contour>
      <contour>
        <pt x="1209" y="1469" on="1"/>
        <pt x="1210" y="1475" on="0"/>
        <pt x="1207" y="1494" on="1"/>
        <pt x="1194" y="1468" on="0"/>
        <pt x="1192" y="1434" on="1"/>
        <pt x="1198" y="1444" on="0"/>
      </contour>
      <contour>
        <pt x="1338" y="330" on="1"/>
        <pt x="1338" y="347" on="0"/>
        <pt x="1327" y="400" on="0"/>
        <pt x="1321" y="410" on="1"/>
        <pt x="1320" y="404" on="0"/>
        <pt x="1314" y="369" on="0"/>
        <pt x="1312" y="365" on="1"/>
        <pt x="1319" y="307" on="0"/>
        <pt x="1327" y="307" on="1"/>
        <pt x="1332" y="307" on="0"/>
      </contour>
      <contour>
        <pt x="624" y="1403" on="1"/>
        <pt x="624" y="1415" on="0"/>
        <pt x="622" y="1458" on="0"/>
        <pt x="622" y="1463" on="1"/>
        <pt x="612" y="1463" on="1"/>
        <pt x="609" y="1439" on="1"/>
        <pt x="609" y="1423" on="0"/>
        <pt x="615" y="1415" on="1"/>
        <pt x="623" y="1405" on="0"/>
      </contour>
      <contour>
        <pt x="390" y="1422" on="1"/>
        <pt x="378" y="1422" on="1"/>
        <pt x="370" y="1389" on="0"/>
        <pt x="370" y="1377" on="1"/>
        <pt x="370" y="1342" on="0"/>
        <pt x="387" y="1342" on="1"/>
        <pt x="393" y="1382" on="0"/>
      </contour>
      <contour>
        <pt x="670" y="206" on="1"/>
        <pt x="664" y="262" on="0"/>
        <pt x="656" y="276" on="1"/>
        <pt x="650" y="264" on="1"/>
        <pt x="650" y="229" on="1"/>
        <pt x="653" y="222" on="0"/>
        <pt x="658" y="206" on="1"/>
      </contour>
      <contour>
        <pt x="540" y="186" on="1"/>
        <pt x="531" y="264" on="0"/>
        <pt x="520" y="265" on="1"/>
        <pt x="518" y="206" on="1"/>
        <pt x="520" y="206" on="0"/>
        <pt x="526" y="186" on="1"/>
      </contour>
    </TTGlyph>
    <TTGlyph name="equal" xMin="142" yMin="226" xMax="842" yMax="1588">
      <contour>
        <pt x="142" y="226" on="1"/>
        <pt x="142" y="1588" on="1"/>
        <pt x="842" y="1588" on="1"/>
        <pt x="842" y="226" on="1"/>
      </contour>
      <contour>
        <pt x="284" y="368" on="1"/>
        <pt x="700" y="368" on="1"/>
        <pt x="700" y="1447" on="1"/>
        <pt x="284" y="1447" on="1"/>
      </contour>
    </TTGlyph>
    <TTGlyph name="exclam" xMin="142" yMin="226" xMax="842" yMax="1588">
      <contour>
        <pt x="142" y="226" on="1"/>
        <pt x="142" y="1588" on="1"/>
        <pt x="842" y="1588" on="1"/>
        <pt x="842" y="226" on="1"/>
      </contour>
      <contour>
        <pt x="284" y="368" on="1"/>
        <pt x="700" y="368" on="1"/>
        <pt x="700" y="1447" on="1"/>
        <pt x="284" y="1447" on="1"/>
      </contour>
    </TTGlyph>
    <TTGlyph name="figuredash" xMin="352" yMin="-420" xMax="4468" yMax="1618">
      <contour>
        <pt x="4344" y="1529" on="1"/>
        <pt x="4345" y="1501" on="0"/>
        <pt x="4248" y="1438" on="1"/>
        <pt x="4198" y="1408" on="0"/>
        <pt x="4148" y="1379" on="1"/>
        <pt x="4070" y="1325" on="0"/>
        <pt x="3911" y="1219" on="1"/>
        <pt x="3876" y="1219" on="1"/>
        <pt x="3863" y="1232" on="0"/>
        <pt x="3863" y="1259" on="1"/>
        <pt x="3863" y="1304" on="0"/>
        <pt x="4071" y="1435" on="1"/>
        <pt x="4189" y="1505" on="0"/>
        <pt x="4307" y="1575" on="1"/>
        <pt x="4344" y="1575" on="1"/>
      </contour>
      <contour>
        <pt x="3893" y="1565" on="1"/>
        <pt x="3897" y="1520" on="0"/>
        <pt x="3890" y="1498" on="1"/>
        <pt x="3863" y="1416" on="0"/>
        <pt x="3821" y="1375" on="1"/>
        <pt x="3798" y="1353" on="0"/>
        <pt x="3721" y="1325" on="1"/>
        <pt x="3651" y="1300" on="0"/>
        <pt x="3628" y="1300" on="1"/>
        <pt x="3617" y="1300" on="0"/>
        <pt x="3578" y="1311" on="0"/>
        <pt x="3567" y="1311" on="1"/>
        <pt x="3508" y="1311" on="0"/>
        <pt x="3472" y="1250" on="1"/>
        <pt x="3434" y="1250" on="1"/>
        <pt x="3434" y="1294" on="1"/>
        <pt x="3433" y="1335" on="0"/>
        <pt x="3538" y="1418" on="1"/>
        <pt x="3564" y="1421" on="0"/>
        <pt x="3621" y="1435" on="1"/>
        <pt x="3635" y="1440" on="0"/>
        <pt x="3645" y="1461" on="1"/>
        <pt x="3659" y="1488" on="0"/>
        <pt x="3662" y="1493" on="1"/>
        <pt x="3702" y="1538" on="0"/>
        <pt x="3741" y="1583" on="1"/>
        <pt x="3776" y="1618" on="0"/>
        <pt x="3817" y="1618" on="1"/>
        <pt x="3838" y="1618" on="0"/>
      </contour>
      <contour>
        <pt x="3802" y="261" on="1"/>
        <pt x="3802" y="197" on="0"/>
        <pt x="3759" y="93" on="1"/>
        <pt x="3721" y="93" on="1"/>
        <pt x="3577" y="1116" on="1"/>
        <pt x="3589" y="1180" on="0"/>
        <pt x="3641" y="1248" on="1"/>
        <pt x="3661" y="1248" on="0"/>
        <pt x="3675" y="1225" on="1"/>
        <pt x="3680" y="1029" on="0"/>
        <pt x="3703" y="886" on="1"/>
      </contour>
      <contour>
        <pt x="3269" y="1303" on="1"/>
        <pt x="3226" y="1255" on="0"/>
        <pt x="3079" y="1187" on="1"/>
        <pt x="2946" y="1126" on="0"/>
        <pt x="2916" y="1126" on="1"/>
        <pt x="2878" y="1126" on="0"/>
        <pt x="2860" y="1163" on="1"/>
        <pt x="2917" y="1199" on="0"/>
        <pt x="3034" y="1276" on="1"/>
        <pt x="3025" y="1300" on="0"/>
        <pt x="2988" y="1300" on="1"/>
        <pt x="2974" y="1300" on="0"/>
        <pt x="2926" y="1279" on="1"/>
        <pt x="2869" y="1255" on="0"/>
        <pt x="2851" y="1250" on="1"/>
        <pt x="2851" y="1284" on="1"/>
        <pt x="2851" y="1334" on="0"/>
        <pt x="2934" y="1377" on="1"/>
        <pt x="3004" y="1413" on="0"/>
        <pt x="3045" y="1413" on="1"/>
        <pt x="3082" y="1413" on="0"/>
        <pt x="3269" y="1360" on="1"/>
      </contour>
      <contour>
        <pt x="4468" y="271" on="1"/>
        <pt x="4468" y="111" on="0"/>
        <pt x="4342" y="-95" on="1"/>
        <pt x="4196" y="-338" on="0"/>
        <pt x="4012" y="-338" on="1"/>
        <pt x="3970" y="-338" on="0"/>
        <pt x="3838" y="-321" on="1"/>
        <pt x="3680" y="-303" on="0"/>
        <pt x="3639" y="-284" on="1"/>
        <pt x="3639" y="-276" on="0"/>
        <pt x="3642" y="-258" on="1"/>
        <pt x="3681" y="-235" on="0"/>
        <pt x="3715" y="-235" on="1"/>
        <pt x="3726" y="-235" on="0"/>
        <pt x="3765" y="-245" on="0"/>
        <pt x="3776" y="-245" on="1"/>
        <pt x="3942" y="-245" on="0"/>
        <pt x="4041" y="-203" on="1"/>
        <pt x="4131" y="-163" on="0"/>
        <pt x="4240" y="-36" on="1"/>
        <pt x="4342" y="83" on="0"/>
        <pt x="4386" y="188" on="1"/>
        <pt x="4371" y="205" on="1"/>
        <pt x="4362" y="179" on="0"/>
        <pt x="4324" y="161" on="1"/>
        <pt x="4290" y="143" on="0"/>
        <pt x="4258" y="143" on="1"/>
        <pt x="4203" y="143" on="0"/>
        <pt x="4158" y="206" on="1"/>
        <pt x="4120" y="260" on="0"/>
        <pt x="4120" y="302" on="1"/>
        <pt x="4120" y="360" on="0"/>
        <pt x="4156" y="452" on="1"/>
        <pt x="4203" y="573" on="0"/>
        <pt x="4273" y="573" on="1"/>
        <pt x="4314" y="573" on="0"/>
        <pt x="4377" y="489" on="1"/>
        <pt x="4468" y="367" on="0"/>
      </contour>
      <contour>
        <pt x="2276" y="1551" on="1"/>
        <pt x="2276" y="1504" on="0"/>
        <pt x="2189" y="1443" on="1"/>
        <pt x="2130" y="1406" on="0"/>
        <pt x="2070" y="1369" on="1"/>
        <pt x="1908" y="1262" on="0"/>
        <pt x="1821" y="1198" on="1"/>
        <pt x="1785" y="1220" on="0"/>
        <pt x="1785" y="1244" on="1"/>
        <pt x="1785" y="1291" on="0"/>
        <pt x="1867" y="1346" on="1"/>
        <pt x="1935" y="1385" on="0"/>
        <pt x="2003" y="1425" on="1"/>
        <pt x="2091" y="1485" on="0"/>
        <pt x="2262" y="1587" on="1"/>
        <pt x="2276" y="1572" on="0"/>
      </contour>
      <contour>
        <pt x="1641" y="1249" on="1"/>
        <pt x="1641" y="1188" on="0"/>
        <pt x="1600" y="1188" on="1"/>
        <pt x="1590" y="1188" on="0"/>
        <pt x="1506" y="1249" on="0"/>
        <pt x="1493" y="1249" on="1"/>
        <pt x="1485" y="1249" on="0"/>
        <pt x="1384" y="1163" on="1"/>
        <pt x="1270" y="1067" on="0"/>
        <pt x="1220" y="1037" on="1"/>
        <pt x="1159" y="1003" on="0"/>
        <pt x="1124" y="1004" on="1"/>
        <pt x="1079" y="1004" on="1"/>
        <pt x="1079" y="1041" on="1"/>
        <pt x="1159" y="1096" on="0"/>
        <pt x="1238" y="1152" on="1"/>
        <pt x="1342" y="1225" on="0"/>
        <pt x="1386" y="1285" on="1"/>
        <pt x="1347" y="1316" on="0"/>
        <pt x="1308" y="1349" on="1"/>
        <pt x="1273" y="1381" on="0"/>
        <pt x="1273" y="1413" on="1"/>
        <pt x="1273" y="1457" on="0"/>
        <pt x="1399" y="1597" on="0"/>
        <pt x="1442" y="1597" on="1"/>
        <pt x="1525" y="1597" on="0"/>
        <pt x="1525" y="1460" on="1"/>
        <pt x="1525" y="1438" on="0"/>
        <pt x="1523" y="1407" on="1"/>
        <pt x="1520" y="1381" on="0"/>
        <pt x="1521" y="1380" on="1"/>
        <pt x="1559" y="1343" on="0"/>
        <pt x="1596" y="1307" on="1"/>
        <pt x="1641" y="1262" on="0"/>
      </contour>
      <contour>
        <pt x="3526" y="348" on="1"/>
        <pt x="3526" y="235" on="0"/>
        <pt x="3150" y="107" on="1"/>
        <pt x="2833" y="0" on="0"/>
        <pt x="2738" y="0" on="1"/>
        <pt x="2726" y="0" on="0"/>
        <pt x="2519" y="-10" on="0"/>
        <pt x="2506" y="-10" on="1"/>
        <pt x="2161" y="-10" on="0"/>
        <pt x="2096" y="184" on="1"/>
        <pt x="2016" y="103" on="0"/>
        <pt x="1899" y="78" on="1"/>
        <pt x="1804" y="57" on="0"/>
        <pt x="1772" y="-9" on="1"/>
        <pt x="1647" y="2" on="0"/>
        <pt x="1512" y="54" on="1"/>
        <pt x="1503" y="57" on="0"/>
        <pt x="1478" y="86" on="1"/>
        <pt x="1456" y="112" on="0"/>
        <pt x="1442" y="112" on="1"/>
        <pt x="1422" y="112" on="0"/>
        <pt x="1355" y="75" on="1"/>
        <pt x="1284" y="35" on="0"/>
        <pt x="1275" y="13" on="1"/>
        <pt x="1181" y="-215" on="0"/>
        <pt x="1072" y="-316" on="1"/>
        <pt x="960" y="-420" on="0"/>
        <pt x="797" y="-420" on="1"/>
        <pt x="786" y="-420" on="0"/>
        <pt x="653" y="-409" on="0"/>
        <pt x="639" y="-409" on="1"/>
        <pt x="627" y="-409" on="0"/>
        <pt x="590" y="-392" on="1"/>
        <pt x="545" y="-371" on="0"/>
        <pt x="527" y="-367" on="1"/>
        <pt x="527" y="-329" on="1"/>
        <pt x="534" y="-327" on="0"/>
        <pt x="795" y="-327" on="0"/>
        <pt x="825" y="-315" on="1"/>
        <pt x="903" y="-284" on="0"/>
        <pt x="1010" y="-199" on="1"/>
        <pt x="1144" y="-92" on="0"/>
        <pt x="1171" y="-4" on="1"/>
        <pt x="1171" y="6" on="0"/>
        <pt x="1153" y="17" on="1"/>
        <pt x="1135" y="20" on="0"/>
        <pt x="1097" y="20" on="1"/>
        <pt x="1081" y="20" on="1"/>
        <pt x="964" y="20" on="0"/>
        <pt x="918" y="84" on="1"/>
        <pt x="905" y="103" on="0"/>
        <pt x="905" y="169" on="1"/>
        <pt x="905" y="226" on="0"/>
        <pt x="951" y="323" on="1"/>
        <pt x="1007" y="440" on="0"/>
        <pt x="1074" y="440" on="1"/>
        <pt x="1124" y="440" on="0"/>
        <pt x="1197" y="319" on="1"/>
        <pt x="1233" y="251" on="0"/>
        <pt x="1270" y="184" on="1"/>
        <pt x="1321" y="193" on="0"/>
        <pt x="1409" y="227" on="1"/>
        <pt x="1424" y="238" on="0"/>
        <pt x="1516" y="330" on="1"/>
        <pt x="1585" y="399" on="0"/>
        <pt x="1621" y="399" on="1"/>
        <pt x="1623" y="399" on="0"/>
        <pt x="1805" y="225" on="0"/>
        <pt x="1887" y="225" on="1"/>
        <pt x="1958" y="225" on="0"/>
        <pt x="2034" y="268" on="1"/>
        <pt x="2072" y="290" on="0"/>
        <pt x="2072" y="338" on="1"/>
        <pt x="1980" y="988" on="1"/>
        <pt x="1986" y="1022" on="0"/>
        <pt x="1994" y="1057" on="1"/>
        <pt x="2008" y="1108" on="0"/>
        <pt x="2047" y="1126" on="1"/>
        <pt x="2054" y="1119" on="0"/>
        <pt x="2067" y="1102" on="1"/>
        <pt x="2080" y="972" on="0"/>
        <pt x="2105" y="743" on="1"/>
        <pt x="2132" y="646" on="0"/>
        <pt x="2160" y="455" on="1"/>
        <pt x="2162" y="250" on="0"/>
        <pt x="2297" y="188" on="1"/>
        <pt x="2370" y="153" on="0"/>
        <pt x="2568" y="153" on="1"/>
        <pt x="2703" y="153" on="0"/>
        <pt x="2724" y="155" on="1"/>
        <pt x="2820" y="163" on="0"/>
        <pt x="2891" y="201" on="1"/>
        <pt x="2840" y="298" on="0"/>
        <pt x="2840" y="333" on="1"/>
        <pt x="2840" y="346" on="0"/>
        <pt x="2858" y="383" on="1"/>
        <pt x="2882" y="431" on="0"/>
        <pt x="2887" y="447" on="1"/>
        <pt x="2914" y="521" on="0"/>
        <pt x="2955" y="582" on="1"/>
        <pt x="2975" y="609" on="0"/>
        <pt x="3118" y="696" on="0"/>
        <pt x="3147" y="696" on="1"/>
        <pt x="3245" y="696" on="0"/>
        <pt x="3372" y="570" on="1"/>
        <pt x="3372" y="532" on="0"/>
        <pt x="3341" y="532" on="1"/>
        <pt x="3328" y="532" on="0"/>
        <pt x="3257" y="573" on="0"/>
        <pt x="3244" y="573" on="1"/>
        <pt x="3196" y="573" on="0"/>
        <pt x="3095" y="528" on="1"/>
        <pt x="2973" y="473" on="0"/>
        <pt x="2973" y="415" on="1"/>
        <pt x="2973" y="366" on="0"/>
        <pt x="3033" y="305" on="1"/>
        <pt x="3091" y="246" on="0"/>
        <pt x="3127" y="246" on="1"/>
        <pt x="3137" y="246" on="0"/>
        <pt x="3283" y="303" on="1"/>
        <pt x="3295" y="307" on="0"/>
        <pt x="3381" y="348" on="1"/>
        <pt x="3445" y="378" on="0"/>
        <pt x="3460" y="378" on="1"/>
        <pt x="3512" y="378" on="1"/>
        <pt x="3526" y="365" on="0"/>
      </contour>
      <contour>
        <pt x="1170" y="1405" on="1"/>
        <pt x="1156" y="1312" on="0"/>
        <pt x="962" y="1221" on="1"/>
        <pt x="951" y="1218" on="0"/>
        <pt x="920" y="1218" on="1"/>
        <pt x="910" y="1218" on="0"/>
        <pt x="770" y="1239" on="0"/>
        <pt x="756" y="1239" on="1"/>
        <pt x="744" y="1239" on="0"/>
        <pt x="712" y="1211" on="1"/>
        <pt x="662" y="1167" on="0"/>
        <pt x="650" y="1158" on="1"/>
        <pt x="650" y="1222" on="1"/>
        <pt x="649" y="1248" on="0"/>
        <pt x="748" y="1362" on="0"/>
        <pt x="767" y="1362" on="1"/>
        <pt x="779" y="1362" on="0"/>
        <pt x="917" y="1331" on="0"/>
        <pt x="930" y="1331" on="1"/>
        <pt x="972" y="1331" on="0"/>
        <pt x="1063" y="1372" on="1"/>
        <pt x="1105" y="1393" on="0"/>
        <pt x="1147" y="1414" on="1"/>
      </contour>
      <contour>
        <pt x="598" y="1428" on="1"/>
        <pt x="598" y="1366" on="0"/>
        <pt x="554" y="1306" on="1"/>
        <pt x="505" y="1239" on="0"/>
        <pt x="439" y="1239" on="1"/>
        <pt x="352" y="1239" on="0"/>
        <pt x="352" y="1325" on="1"/>
        <pt x="352" y="1368" on="0"/>
        <pt x="398" y="1450" on="1"/>
        <pt x="453" y="1546" on="0"/>
        <pt x="510" y="1546" on="1"/>
        <pt x="549" y="1546" on="0"/>
        <pt x="577" y="1491" on="1"/>
        <pt x="598" y="1451" on="0"/>
      </contour>
      <contour>
        <pt x="598" y="241" on="1"/>
        <pt x="598" y="234" on="0"/>
        <pt x="565" y="103" on="1"/>
        <pt x="559" y="103" on="0"/>
        <pt x="522" y="93" on="0"/>
        <pt x="517" y="93" on="1"/>
        <pt x="413" y="972" on="1"/>
        <pt x="413" y="1031" on="0"/>
        <pt x="430" y="1090" on="1"/>
        <pt x="453" y="1168" on="0"/>
        <pt x="493" y="1176" on="1"/>
      </contour>
      <contour>
        <pt x="3797" y="1469" on="1"/>
        <pt x="3801" y="1475" on="0"/>
        <pt x="3789" y="1494" on="1"/>
        <pt x="3735" y="1468" on="0"/>
        <pt x="3727" y="1434" on="1"/>
        <pt x="3754" y="1444" on="0"/>
      </contour>
      <contour>
        <pt x="4314" y="330" on="1"/>
        <pt x="4315" y="347" on="0"/>
        <pt x="4271" y="400" on="0"/>
        <pt x="4246" y="410" on="1"/>
        <pt x="4242" y="404" on="0"/>
        <pt x="4217" y="369" on="0"/>
        <pt x="4211" y="365" on="1"/>
        <pt x="4240" y="307" on="0"/>
        <pt x="4273" y="307" on="1"/>
        <pt x="4290" y="307" on="0"/>
      </contour>
      <contour>
        <pt x="1444" y="1403" on="1"/>
        <pt x="1444" y="1415" on="0"/>
        <pt x="1436" y="1458" on="0"/>
        <pt x="1436" y="1463" on="1"/>
        <pt x="1398" y="1463" on="1"/>
        <pt x="1386" y="1439" on="1"/>
        <pt x="1386" y="1423" on="0"/>
        <pt x="1411" y="1415" on="1"/>
        <pt x="1442" y="1405" on="0"/>
      </contour>
      <contour>
        <pt x="504" y="1422" on="1"/>
        <pt x="457" y="1422" on="1"/>
        <pt x="423" y="1389" on="0"/>
        <pt x="423" y="1377" on="1"/>
        <pt x="423" y="1342" on="0"/>
        <pt x="493" y="1342" on="1"/>
        <pt x="516" y="1382" on="0"/>
      </contour>
      <contour>
        <pt x="1631" y="206" on="1"/>
        <pt x="1605" y="262" on="0"/>
        <pt x="1575" y="276" on="1"/>
        <pt x="1550" y="264" on="1"/>
        <pt x="1550" y="229" on="1"/>
        <pt x="1562" y="222" on="0"/>
        <pt x="1583" y="206" on="1"/>
      </contour>
      <contour>
        <pt x="1109" y="186" on="1"/>
        <pt x="1071" y="264" on="0"/>
        <pt x="1029" y="265" on="1"/>
        <pt x="1019" y="206" on="1"/>
        <pt x="1028" y="206" on="0"/>
        <pt x="1051" y="186" on="1"/>
      </contour>
    </TTGlyph>
    <TTGlyph name="gaffinalarabic" xMin="142" yMin="226" xMax="842" yMax="1588">
      <contour>
        <pt x="142" y="226" on="1"/>
        <pt x="142" y="1588" on="1"/>
        <pt x="842" y="1588" on="1"/>
        <pt x="842" y="226" on="1"/>
      </contour>
      <contour>
        <pt x="284" y="368" on="1"/>
        <pt x="700" y="368" on="1"/>
        <pt x="700" y="1447" on="1"/>
        <pt x="284" y="1447" on="1"/>
      </contour>
    </TTGlyph>
    <TTGlyph name="gafinitialarabic" xMin="142" yMin="226" xMax="842" yMax="1588">
      <contour>
        <pt x="142" y="226" on="1"/>
        <pt x="142" y="1588" on="1"/>
        <pt x="842" y="1588" on="1"/>
        <pt x="842" y="226" on="1"/>
      </contour>
      <contour>
        <pt x="284" y="368" on="1"/>
        <pt x="700" y="368" on="1"/>
        <pt x="700" y="1447" on="1"/>
        <pt x="284" y="1447" on="1"/>
      </contour>
    </TTGlyph>
    <TTGlyph name="gafmedialarabic" xMin="142" yMin="226" xMax="842" yMax="1588">
      <contour>
        <pt x="142" y="226" on="1"/>
        <pt x="142" y="1588" on="1"/>
        <pt x="842" y="1588" on="1"/>
        <pt x="842" y="226" on="1"/>
      </contour>
      <contour>
        <pt x="284" y="368" on="1"/>
        <pt x="700" y="368" on="1"/>
        <pt x="700" y="1447" on="1"/>
        <pt x="284" y="1447" on="1"/>
      </contour>
    </TTGlyph>
    <TTGlyph name="glyph41" xMin="142" yMin="226" xMax="842" yMax="1588">
      <contour>
        <pt x="142" y="226" on="1"/>
        <pt x="142" y="1588" on="1"/>
        <pt x="842" y="1588" on="1"/>
        <pt x="842" y="226" on="1"/>
      </contour>
      <contour>
        <pt x="284" y="368" on="1"/>
        <pt x="700" y="368" on="1"/>
        <pt x="700" y="1447" on="1"/>
        <pt x="284" y="1447" on="1"/>
      </contour>
    </TTGlyph>
    <TTGlyph name="glyph42" xMin="142" yMin="226" xMax="842" yMax="1588">
      <contour>
        <pt x="142" y="226" on="1"/>
        <pt x="142" y="1588" on="1"/>
        <pt x="842" y="1588" on="1"/>
        <pt x="842" y="226" on="1"/>
      </contour>
      <contour>
        <pt x="284" y="368" on="1"/>
        <pt x="700" y="368" on="1"/>
        <pt x="700" y="1447" on="1"/>
        <pt x="284" y="1447" on="1"/>
      </contour>
    </TTGlyph>
    <TTGlyph name="glyph43" xMin="142" yMin="226" xMax="842" yMax="1588">
      <contour>
        <pt x="142" y="226" on="1"/>
        <pt x="142" y="1588" on="1"/>
        <pt x="842" y="1588" on="1"/>
        <pt x="842" y="226" on="1"/>
      </contour>
      <contour>
        <pt x="284" y="368" on="1"/>
        <pt x="700" y="368" on="1"/>
        <pt x="700" y="1447" on="1"/>
        <pt x="284" y="1447" on="1"/>
      </contour>
    </TTGlyph>
    <TTGlyph name="glyph44" xMin="142" yMin="226" xMax="842" yMax="1588">
      <contour>
        <pt x="142" y="226" on="1"/>
        <pt x="142" y="1588" on="1"/>
        <pt x="842" y="1588" on="1"/>
        <pt x="842" y="226" on="1"/>
      </contour>
      <contour>
        <pt x="284" y="368" on="1"/>
        <pt x="700" y="368" on="1"/>
        <pt x="700" y="1447" on="1"/>
        <pt x="284" y="1447" on="1"/>
      </contour>
    </TTGlyph>
    <TTGlyph name="glyph45" xMin="142" yMin="226" xMax="842" yMax="1588">
      <contour>
        <pt x="142" y="226" on="1"/>
        <pt x="142" y="1588" on="1"/>
        <pt x="842" y="1588" on="1"/>
        <pt x="842" y="226" on="1"/>
      </contour>
      <contour>
        <pt x="284" y="368" on="1"/>
        <pt x="700" y="368" on="1"/>
        <pt x="700" y="1447" on="1"/>
        <pt x="284" y="1447" on="1"/>
      </contour>
    </TTGlyph>
    <TTGlyph name="glyph46" xMin="142" yMin="226" xMax="842" yMax="1588">
      <contour>
        <pt x="142" y="226" on="1"/>
        <pt x="142" y="1588" on="1"/>
        <pt x="842" y="1588" on="1"/>
        <pt x="842" y="226" on="1"/>
      </contour>
      <contour>
        <pt x="284" y="368" on="1"/>
        <pt x="700" y="368" on="1"/>
        <pt x="700" y="1447" on="1"/>
        <pt x="284" y="1447" on="1"/>
      </contour>
    </TTGlyph>
    <TTGlyph name="glyph47" xMin="142" yMin="226" xMax="842" yMax="1588">
      <contour>
        <pt x="142" y="226" on="1"/>
        <pt x="142" y="1588" on="1"/>
        <pt x="842" y="1588" on="1"/>
        <pt x="842" y="226" on="1"/>
      </contour>
      <contour>
        <pt x="284" y="368" on="1"/>
        <pt x="700" y="368" on="1"/>
        <pt x="700" y="1447" on="1"/>
        <pt x="284" y="1447" on="1"/>
      </contour>
    </TTGlyph>
    <TTGlyph name="glyph48" xMin="142" yMin="226" xMax="842" yMax="1588">
      <contour>
        <pt x="142" y="226" on="1"/>
        <pt x="142" y="1588" on="1"/>
        <pt x="842" y="1588" on="1"/>
        <pt x="842" y="226" on="1"/>
      </contour>
      <contour>
        <pt x="284" y="368" on="1"/>
        <pt x="700" y="368" on="1"/>
        <pt x="700" y="1447" on="1"/>
        <pt x="284" y="1447" on="1"/>
      </contour>
    </TTGlyph>
    <TTGlyph name="glyph50" xMin="142" yMin="226" xMax="842" yMax="1588">
      <contour>
        <pt x="142" y="226" on="1"/>
        <pt x="142" y="1588" on="1"/>
        <pt x="842" y="1588" on="1"/>
        <pt x="842" y="226" on="1"/>
      </contour>
      <contour>
        <pt x="284" y="368" on="1"/>
        <pt x="700" y="368" on="1"/>
        <pt x="700" y="1447" on="1"/>
        <pt x="284" y="1447" on="1"/>
      </contour>
    </TTGlyph>
    <TTGlyph name="glyph51" xMin="142" yMin="226" xMax="842" yMax="1588">
      <contour>
        <pt x="142" y="226" on="1"/>
        <pt x="142" y="1588" on="1"/>
        <pt x="842" y="1588" on="1"/>
        <pt x="842" y="226" on="1"/>
      </contour>
      <contour>
        <pt x="284" y="368" on="1"/>
        <pt x="700" y="368" on="1"/>
        <pt x="700" y="1447" on="1"/>
        <pt x="284" y="1447" on="1"/>
      </contour>
    </TTGlyph>
    <TTGlyph name="greater" xMin="142" yMin="226" xMax="842" yMax="1588">
      <contour>
        <pt x="142" y="226" on="1"/>
        <pt x="142" y="1588" on="1"/>
        <pt x="842" y="1588" on="1"/>
        <pt x="842" y="226" on="1"/>
      </contour>
      <contour>
        <pt x="284" y="368" on="1"/>
        <pt x="700" y="368" on="1"/>
        <pt x="700" y="1447" on="1"/>
        <pt x="284" y="1447" on="1"/>
      </contour>
    </TTGlyph>
    <TTGlyph name="hahhamzabovefinal" xMin="142" yMin="226" xMax="842" yMax="1588">
      <contour>
        <pt x="142" y="226" on="1"/>
        <pt x="142" y="1588" on="1"/>
        <pt x="842" y="1588" on="1"/>
        <pt x="842" y="226" on="1"/>
      </contour>
      <contour>
        <pt x="284" y="368" on="1"/>
        <pt x="700" y="368" on="1"/>
        <pt x="700" y="1447" on="1"/>
        <pt x="284" y="1447" on="1"/>
      </contour>
    </TTGlyph>
    <TTGlyph name="hahhamzaboveinitial" xMin="142" yMin="226" xMax="842" yMax="1588">
      <contour>
        <pt x="142" y="226" on="1"/>
        <pt x="142" y="1588" on="1"/>
        <pt x="842" y="1588" on="1"/>
        <pt x="842" y="226" on="1"/>
      </contour>
      <contour>
        <pt x="284" y="368" on="1"/>
        <pt x="700" y="368" on="1"/>
        <pt x="700" y="1447" on="1"/>
        <pt x="284" y="1447" on="1"/>
      </contour>
    </TTGlyph>
    <TTGlyph name="hahhamzabovemedial" xMin="142" yMin="226" xMax="842" yMax="1588">
      <contour>
        <pt x="142" y="226" on="1"/>
        <pt x="142" y="1588" on="1"/>
        <pt x="842" y="1588" on="1"/>
        <pt x="842" y="226" on="1"/>
      </contour>
      <contour>
        <pt x="284" y="368" on="1"/>
        <pt x="700" y="368" on="1"/>
        <pt x="700" y="1447" on="1"/>
        <pt x="284" y="1447" on="1"/>
      </contour>
    </TTGlyph>
    <TTGlyph name="hahthreedotsabovefinal" xMin="142" yMin="226" xMax="842" yMax="1588">
      <contour>
        <pt x="142" y="226" on="1"/>
        <pt x="142" y="1588" on="1"/>
        <pt x="842" y="1588" on="1"/>
        <pt x="842" y="226" on="1"/>
      </contour>
      <contour>
        <pt x="284" y="368" on="1"/>
        <pt x="700" y="368" on="1"/>
        <pt x="700" y="1447" on="1"/>
        <pt x="284" y="1447" on="1"/>
      </contour>
    </TTGlyph>
    <TTGlyph name="hahthreedotsaboveinitial" xMin="142" yMin="226" xMax="842" yMax="1588">
      <contour>
        <pt x="142" y="226" on="1"/>
        <pt x="142" y="1588" on="1"/>
        <pt x="842" y="1588" on="1"/>
        <pt x="842" y="226" on="1"/>
      </contour>
      <contour>
        <pt x="284" y="368" on="1"/>
        <pt x="700" y="368" on="1"/>
        <pt x="700" y="1447" on="1"/>
        <pt x="284" y="1447" on="1"/>
      </contour>
    </TTGlyph>
    <TTGlyph name="hahthreedotsabovemedial" xMin="142" yMin="226" xMax="842" yMax="1588">
      <contour>
        <pt x="142" y="226" on="1"/>
        <pt x="142" y="1588" on="1"/>
        <pt x="842" y="1588" on="1"/>
        <pt x="842" y="226" on="1"/>
      </contour>
      <contour>
        <pt x="284" y="368" on="1"/>
        <pt x="700" y="368" on="1"/>
        <pt x="700" y="1447" on="1"/>
        <pt x="284" y="1447" on="1"/>
      </contour>
    </TTGlyph>
    <TTGlyph name="hehdoachashmeefinalarabic" xMin="142" yMin="226" xMax="842" yMax="1588">
      <contour>
        <pt x="142" y="226" on="1"/>
        <pt x="142" y="1588" on="1"/>
        <pt x="842" y="1588" on="1"/>
        <pt x="842" y="226" on="1"/>
      </contour>
      <contour>
        <pt x="284" y="368" on="1"/>
        <pt x="700" y="368" on="1"/>
        <pt x="700" y="1447" on="1"/>
        <pt x="284" y="1447" on="1"/>
      </contour>
    </TTGlyph>
    <TTGlyph name="hehdoachashmeeinitialarabic" xMin="142" yMin="226" xMax="842" yMax="1588">
      <contour>
        <pt x="142" y="226" on="1"/>
        <pt x="142" y="1588" on="1"/>
        <pt x="842" y="1588" on="1"/>
        <pt x="842" y="226" on="1"/>
      </contour>
      <contour>
        <pt x="284" y="368" on="1"/>
        <pt x="700" y="368" on="1"/>
        <pt x="700" y="1447" on="1"/>
        <pt x="284" y="1447" on="1"/>
      </contour>
    </TTGlyph>
    <TTGlyph name="hehdoachashmeemedialarabic" xMin="142" yMin="226" xMax="842" yMax="1588">
      <contour>
        <pt x="142" y="226" on="1"/>
        <pt x="142" y="1588" on="1"/>
        <pt x="842" y="1588" on="1"/>
        <pt x="842" y="226" on="1"/>
      </contour>
      <contour>
        <pt x="284" y="368" on="1"/>
        <pt x="700" y="368" on="1"/>
        <pt x="700" y="1447" on="1"/>
        <pt x="284" y="1447" on="1"/>
      </contour>
    </TTGlyph>
    <TTGlyph name="hehfinalaltonearabic" xMin="142" yMin="226" xMax="842" yMax="1588">
      <contour>
        <pt x="142" y="226" on="1"/>
        <pt x="142" y="1588" on="1"/>
        <pt x="842" y="1588" on="1"/>
        <pt x="842" y="226" on="1"/>
      </contour>
      <contour>
        <pt x="284" y="368" on="1"/>
        <pt x="700" y="368" on="1"/>
        <pt x="700" y="1447" on="1"/>
        <pt x="284" y="1447" on="1"/>
      </contour>
    </TTGlyph>
    <TTGlyph name="hehhamzaabovefinalarabic" xMin="142" yMin="226" xMax="842" yMax="1588">
      <contour>
        <pt x="142" y="226" on="1"/>
        <pt x="142" y="1588" on="1"/>
        <pt x="842" y="1588" on="1"/>
        <pt x="842" y="226" on="1"/>
      </contour>
      <contour>
        <pt x="284" y="368" on="1"/>
        <pt x="700" y="368" on="1"/>
        <pt x="700" y="1447" on="1"/>
        <pt x="284" y="1447" on="1"/>
      </contour>
    </TTGlyph>
    <TTGlyph name="hehinitialaltonearabic" xMin="142" yMin="226" xMax="842" yMax="1588">
      <contour>
        <pt x="142" y="226" on="1"/>
        <pt x="142" y="1588" on="1"/>
        <pt x="842" y="1588" on="1"/>
        <pt x="842" y="226" on="1"/>
      </contour>
      <contour>
        <pt x="284" y="368" on="1"/>
        <pt x="700" y="368" on="1"/>
        <pt x="700" y="1447" on="1"/>
        <pt x="284" y="1447" on="1"/>
      </contour>
    </TTGlyph>
    <TTGlyph name="hehmedialaltonearabic" xMin="142" yMin="226" xMax="842" yMax="1588">
      <contour>
        <pt x="142" y="226" on="1"/>
        <pt x="142" y="1588" on="1"/>
        <pt x="842" y="1588" on="1"/>
        <pt x="842" y="226" on="1"/>
      </contour>
      <contour>
        <pt x="284" y="368" on="1"/>
        <pt x="700" y="368" on="1"/>
        <pt x="700" y="1447" on="1"/>
        <pt x="284" y="1447" on="1"/>
      </contour>
    </TTGlyph>
    <TTGlyph name="hyphen" xMin="352" yMin="-420" xMax="4468" yMax="1618">
      <contour>
        <pt x="4344" y="1529" on="1"/>
        <pt x="4345" y="1501" on="0"/>
        <pt x="4248" y="1438" on="1"/>
        <pt x="4198" y="1408" on="0"/>
        <pt x="4148" y="1379" on="1"/>
        <pt x="4070" y="1325" on="0"/>
        <pt x="3911" y="1219" on="1"/>
        <pt x="3876" y="1219" on="1"/>
        <pt x="3863" y="1232" on="0"/>
        <pt x="3863" y="1259" on="1"/>
        <pt x="3863" y="1304" on="0"/>
        <pt x="4071" y="1435" on="1"/>
        <pt x="4189" y="1505" on="0"/>
        <pt x="4307" y="1575" on="1"/>
        <pt x="4344" y="1575" on="1"/>
      </contour>
      <contour>
        <pt x="3893" y="1565" on="1"/>
        <pt x="3897" y="1520" on="0"/>
        <pt x="3890" y="1498" on="1"/>
        <pt x="3863" y="1416" on="0"/>
        <pt x="3821" y="1375" on="1"/>
        <pt x="3798" y="1353" on="0"/>
        <pt x="3721" y="1325" on="1"/>
        <pt x="3651" y="1300" on="0"/>
        <pt x="3628" y="1300" on="1"/>
        <pt x="3617" y="1300" on="0"/>
        <pt x="3578" y="1311" on="0"/>
        <pt x="3567" y="1311" on="1"/>
        <pt x="3508" y="1311" on="0"/>
        <pt x="3472" y="1250" on="1"/>
        <pt x="3434" y="1250" on="1"/>
        <pt x="3434" y="1294" on="1"/>
        <pt x="3433" y="1335" on="0"/>
        <pt x="3538" y="1418" on="1"/>
        <pt x="3564" y="1421" on="0"/>
        <pt x="3621" y="1435" on="1"/>
        <pt x="3635" y="1440" on="0"/>
        <pt x="3645" y="1461" on="1"/>
        <pt x="3659" y="1488" on="0"/>
        <pt x="3662" y="1493" on="1"/>
        <pt x="3702" y="1538" on="0"/>
        <pt x="3741" y="1583" on="1"/>
        <pt x="3776" y="1618" on="0"/>
        <pt x="3817" y="1618" on="1"/>
        <pt x="3838" y="1618" on="0"/>
      </contour>
      <contour>
        <pt x="3802" y="261" on="1"/>
        <pt x="3802" y="197" on="0"/>
        <pt x="3759" y="93" on="1"/>
        <pt x="3721" y="93" on="1"/>
        <pt x="3577" y="1116" on="1"/>
        <pt x="3589" y="1180" on="0"/>
        <pt x="3641" y="1248" on="1"/>
        <pt x="3661" y="1248" on="0"/>
        <pt x="3675" y="1225" on="1"/>
        <pt x="3680" y="1029" on="0"/>
        <pt x="3703" y="886" on="1"/>
      </contour>
      <contour>
        <pt x="3269" y="1303" on="1"/>
        <pt x="3226" y="1255" on="0"/>
        <pt x="3079" y="1187" on="1"/>
        <pt x="2946" y="1126" on="0"/>
        <pt x="2916" y="1126" on="1"/>
        <pt x="2878" y="1126" on="0"/>
        <pt x="2860" y="1163" on="1"/>
        <pt x="2917" y="1199" on="0"/>
        <pt x="3034" y="1276" on="1"/>
        <pt x="3025" y="1300" on="0"/>
        <pt x="2988" y="1300" on="1"/>
        <pt x="2974" y="1300" on="0"/>
        <pt x="2926" y="1279" on="1"/>
        <pt x="2869" y="1255" on="0"/>
        <pt x="2851" y="1250" on="1"/>
        <pt x="2851" y="1284" on="1"/>
        <pt x="2851" y="1334" on="0"/>
        <pt x="2934" y="1377" on="1"/>
        <pt x="3004" y="1413" on="0"/>
        <pt x="3045" y="1413" on="1"/>
        <pt x="3082" y="1413" on="0"/>
        <pt x="3269" y="1360" on="1"/>
      </contour>
      <contour>
        <pt x="4468" y="271" on="1"/>
        <pt x="4468" y="111" on="0"/>
        <pt x="4342" y="-95" on="1"/>
        <pt x="4196" y="-338" on="0"/>
        <pt x="4012" y="-338" on="1"/>
        <pt x="3970" y="-338" on="0"/>
        <pt x="3838" y="-321" on="1"/>
        <pt x="3680" y="-303" on="0"/>
        <pt x="3639" y="-284" on="1"/>
        <pt x="3639" y="-276" on="0"/>
        <pt x="3642" y="-258" on="1"/>
        <pt x="3681" y="-235" on="0"/>
        <pt x="3715" y="-235" on="1"/>
        <pt x="3726" y="-235" on="0"/>
        <pt x="3765" y="-245" on="0"/>
        <pt x="3776" y="-245" on="1"/>
        <pt x="3942" y="-245" on="0"/>
        <pt x="4041" y="-203" on="1"/>
        <pt x="4131" y="-163" on="0"/>
        <pt x="4240" y="-36" on="1"/>
        <pt x="4342" y="83" on="0"/>
        <pt x="4386" y="188" on="1"/>
        <pt x="4371" y="205" on="1"/>
        <pt x="4362" y="179" on="0"/>
        <pt x="4324" y="161" on="1"/>
        <pt x="4290" y="143" on="0"/>
        <pt x="4258" y="143" on="1"/>
        <pt x="4203" y="143" on="0"/>
        <pt x="4158" y="206" on="1"/>
        <pt x="4120" y="260" on="0"/>
        <pt x="4120" y="302" on="1"/>
        <pt x="4120" y="360" on="0"/>
        <pt x="4156" y="452" on="1"/>
        <pt x="4203" y="573" on="0"/>
        <pt x="4273" y="573" on="1"/>
        <pt x="4314" y="573" on="0"/>
        <pt x="4377" y="489" on="1"/>
        <pt x="4468" y="367" on="0"/>
      </contour>
      <contour>
        <pt x="2276" y="1551" on="1"/>
        <pt x="2276" y="1504" on="0"/>
        <pt x="2189" y="1443" on="1"/>
        <pt x="2130" y="1406" on="0"/>
        <pt x="2070" y="1369" on="1"/>
        <pt x="1908" y="1262" on="0"/>
        <pt x="1821" y="1198" on="1"/>
        <pt x="1785" y="1220" on="0"/>
        <pt x="1785" y="1244" on="1"/>
        <pt x="1785" y="1291" on="0"/>
        <pt x="1867" y="1346" on="1"/>
        <pt x="1935" y="1385" on="0"/>
        <pt x="2003" y="1425" on="1"/>
        <pt x="2091" y="1485" on="0"/>
        <pt x="2262" y="1587" on="1"/>
        <pt x="2276" y="1572" on="0"/>
      </contour>
      <contour>
        <pt x="1641" y="1249" on="1"/>
        <pt x="1641" y="1188" on="0"/>
        <pt x="1600" y="1188" on="1"/>
        <pt x="1590" y="1188" on="0"/>
        <pt x="1506" y="1249" on="0"/>
        <pt x="1493" y="1249" on="1"/>
        <pt x="1485" y="1249" on="0"/>
        <pt x="1384" y="1163" on="1"/>
        <pt x="1270" y="1067" on="0"/>
        <pt x="1220" y="1037" on="1"/>
        <pt x="1159" y="1003" on="0"/>
        <pt x="1124" y="1004" on="1"/>
        <pt x="1079" y="1004" on="1"/>
        <pt x="1079" y="1041" on="1"/>
        <pt x="1159" y="1096" on="0"/>
        <pt x="1238" y="1152" on="1"/>
        <pt x="1342" y="1225" on="0"/>
        <pt x="1386" y="1285" on="1"/>
        <pt x="1347" y="1316" on="0"/>
        <pt x="1308" y="1349" on="1"/>
        <pt x="1273" y="1381" on="0"/>
        <pt x="1273" y="1413" on="1"/>
        <pt x="1273" y="1457" on="0"/>
        <pt x="1399" y="1597" on="0"/>
        <pt x="1442" y="1597" on="1"/>
        <pt x="1525" y="1597" on="0"/>
        <pt x="1525" y="1460" on="1"/>
        <pt x="1525" y="1438" on="0"/>
        <pt x="1523" y="1407" on="1"/>
        <pt x="1520" y="1381" on="0"/>
        <pt x="1521" y="1380" on="1"/>
        <pt x="1559" y="1343" on="0"/>
        <pt x="1596" y="1307" on="1"/>
        <pt x="1641" y="1262" on="0"/>
      </contour>
      <contour>
        <pt x="3526" y="348" on="1"/>
        <pt x="3526" y="235" on="0"/>
        <pt x="3150" y="107" on="1"/>
        <pt x="2833" y="0" on="0"/>
        <pt x="2738" y="0" on="1"/>
        <pt x="2726" y="0" on="0"/>
        <pt x="2519" y="-10" on="0"/>
        <pt x="2506" y="-10" on="1"/>
        <pt x="2161" y="-10" on="0"/>
        <pt x="2096" y="184" on="1"/>
        <pt x="2016" y="103" on="0"/>
        <pt x="1899" y="78" on="1"/>
        <pt x="1804" y="57" on="0"/>
        <pt x="1772" y="-9" on="1"/>
        <pt x="1647" y="2" on="0"/>
        <pt x="1512" y="54" on="1"/>
        <pt x="1503" y="57" on="0"/>
        <pt x="1478" y="86" on="1"/>
        <pt x="1456" y="112" on="0"/>
        <pt x="1442" y="112" on="1"/>
        <pt x="1422" y="112" on="0"/>
        <pt x="1355" y="75" on="1"/>
        <pt x="1284" y="35" on="0"/>
        <pt x="1275" y="13" on="1"/>
        <pt x="1181" y="-215" on="0"/>
        <pt x="1072" y="-316" on="1"/>
        <pt x="960" y="-420" on="0"/>
        <pt x="797" y="-420" on="1"/>
        <pt x="786" y="-420" on="0"/>
        <pt x="653" y="-409" on="0"/>
        <pt x="639" y="-409" on="1"/>
        <pt x="627" y="-409" on="0"/>
        <pt x="590" y="-392" on="1"/>
        <pt x="545" y="-371" on="0"/>
        <pt x="527" y="-367" on="1"/>
        <pt x="527" y="-329" on="1"/>
        <pt x="534" y="-327" on="0"/>
        <pt x="795" y="-327" on="0"/>
        <pt x="825" y="-315" on="1"/>
        <pt x="903" y="-284" on="0"/>
        <pt x="1010" y="-199" on="1"/>
        <pt x="1144" y="-92" on="0"/>
        <pt x="1171" y="-4" on="1"/>
        <pt x="1171" y="6" on="0"/>
        <pt x="1153" y="17" on="1"/>
        <pt x="1135" y="20" on="0"/>
        <pt x="1097" y="20" on="1"/>
        <pt x="1081" y="20" on="1"/>
        <pt x="964" y="20" on="0"/>
        <pt x="918" y="84" on="1"/>
        <pt x="905" y="103" on="0"/>
        <pt x="905" y="169" on="1"/>
        <pt x="905" y="226" on="0"/>
        <pt x="951" y="323" on="1"/>
        <pt x="1007" y="440" on="0"/>
        <pt x="1074" y="440" on="1"/>
        <pt x="1124" y="440" on="0"/>
        <pt x="1197" y="319" on="1"/>
        <pt x="1233" y="251" on="0"/>
        <pt x="1270" y="184" on="1"/>
        <pt x="1321" y="193" on="0"/>
        <pt x="1409" y="227" on="1"/>
        <pt x="1424" y="238" on="0"/>
        <pt x="1516" y="330" on="1"/>
        <pt x="1585" y="399" on="0"/>
        <pt x="1621" y="399" on="1"/>
        <pt x="1623" y="399" on="0"/>
        <pt x="1805" y="225" on="0"/>
        <pt x="1887" y="225" on="1"/>
        <pt x="1958" y="225" on="0"/>
        <pt x="2034" y="268" on="1"/>
        <pt x="2072" y="290" on="0"/>
        <pt x="2072" y="338" on="1"/>
        <pt x="1980" y="988" on="1"/>
        <pt x="1986" y="1022" on="0"/>
        <pt x="1994" y="1057" on="1"/>
        <pt x="2008" y="1108" on="0"/>
        <pt x="2047" y="1126" on="1"/>
        <pt x="2054" y="1119" on="0"/>
        <pt x="2067" y="1102" on="1"/>
        <pt x="2080" y="972" on="0"/>
        <pt x="2105" y="743" on="1"/>
        <pt x="2132" y="646" on="0"/>
        <pt x="2160" y="455" on="1"/>
        <pt x="2162" y="250" on="0"/>
        <pt x="2297" y="188" on="1"/>
        <pt x="2370" y="153" on="0"/>
        <pt x="2568" y="153" on="1"/>
        <pt x="2703" y="153" on="0"/>
        <pt x="2724" y="155" on="1"/>
        <pt x="2820" y="163" on="0"/>
        <pt x="2891" y="201" on="1"/>
        <pt x="2840" y="298" on="0"/>
        <pt x="2840" y="333" on="1"/>
        <pt x="2840" y="346" on="0"/>
        <pt x="2858" y="383" on="1"/>
        <pt x="2882" y="431" on="0"/>
        <pt x="2887" y="447" on="1"/>
        <pt x="2914" y="521" on="0"/>
        <pt x="2955" y="582" on="1"/>
        <pt x="2975" y="609" on="0"/>
        <pt x="3118" y="696" on="0"/>
        <pt x="3147" y="696" on="1"/>
        <pt x="3245" y="696" on="0"/>
        <pt x="3372" y="570" on="1"/>
        <pt x="3372" y="532" on="0"/>
        <pt x="3341" y="532" on="1"/>
        <pt x="3328" y="532" on="0"/>
        <pt x="3257" y="573" on="0"/>
        <pt x="3244" y="573" on="1"/>
        <pt x="3196" y="573" on="0"/>
        <pt x="3095" y="528" on="1"/>
        <pt x="2973" y="473" on="0"/>
        <pt x="2973" y="415" on="1"/>
        <pt x="2973" y="366" on="0"/>
        <pt x="3033" y="305" on="1"/>
        <pt x="3091" y="246" on="0"/>
        <pt x="3127" y="246" on="1"/>
        <pt x="3137" y="246" on="0"/>
        <pt x="3283" y="303" on="1"/>
        <pt x="3295" y="307" on="0"/>
        <pt x="3381" y="348" on="1"/>
        <pt x="3445" y="378" on="0"/>
        <pt x="3460" y="378" on="1"/>
        <pt x="3512" y="378" on="1"/>
        <pt x="3526" y="365" on="0"/>
      </contour>
      <contour>
        <pt x="1170" y="1405" on="1"/>
        <pt x="1156" y="1312" on="0"/>
        <pt x="962" y="1221" on="1"/>
        <pt x="951" y="1218" on="0"/>
        <pt x="920" y="1218" on="1"/>
        <pt x="910" y="1218" on="0"/>
        <pt x="770" y="1239" on="0"/>
        <pt x="756" y="1239" on="1"/>
        <pt x="744" y="1239" on="0"/>
        <pt x="712" y="1211" on="1"/>
        <pt x="662" y="1167" on="0"/>
        <pt x="650" y="1158" on="1"/>
        <pt x="650" y="1222" on="1"/>
        <pt x="649" y="1248" on="0"/>
        <pt x="748" y="1362" on="0"/>
        <pt x="767" y="1362" on="1"/>
        <pt x="779" y="1362" on="0"/>
        <pt x="917" y="1331" on="0"/>
        <pt x="930" y="1331" on="1"/>
        <pt x="972" y="1331" on="0"/>
        <pt x="1063" y="1372" on="1"/>
        <pt x="1105" y="1393" on="0"/>
        <pt x="1147" y="1414" on="1"/>
      </contour>
      <contour>
        <pt x="598" y="1428" on="1"/>
        <pt x="598" y="1366" on="0"/>
        <pt x="554" y="1306" on="1"/>
        <pt x="505" y="1239" on="0"/>
        <pt x="439" y="1239" on="1"/>
        <pt x="352" y="1239" on="0"/>
        <pt x="352" y="1325" on="1"/>
        <pt x="352" y="1368" on="0"/>
        <pt x="398" y="1450" on="1"/>
        <pt x="453" y="1546" on="0"/>
        <pt x="510" y="1546" on="1"/>
        <pt x="549" y="1546" on="0"/>
        <pt x="577" y="1491" on="1"/>
        <pt x="598" y="1451" on="0"/>
      </contour>
      <contour>
        <pt x="598" y="241" on="1"/>
        <pt x="598" y="234" on="0"/>
        <pt x="565" y="103" on="1"/>
        <pt x="559" y="103" on="0"/>
        <pt x="522" y="93" on="0"/>
        <pt x="517" y="93" on="1"/>
        <pt x="413" y="972" on="1"/>
        <pt x="413" y="1031" on="0"/>
        <pt x="430" y="1090" on="1"/>
        <pt x="453" y="1168" on="0"/>
        <pt x="493" y="1176" on="1"/>
      </contour>
      <contour>
        <pt x="3797" y="1469" on="1"/>
        <pt x="3801" y="1475" on="0"/>
        <pt x="3789" y="1494" on="1"/>
        <pt x="3735" y="1468" on="0"/>
        <pt x="3727" y="1434" on="1"/>
        <pt x="3754" y="1444" on="0"/>
      </contour>
      <contour>
        <pt x="4314" y="330" on="1"/>
        <pt x="4315" y="347" on="0"/>
        <pt x="4271" y="400" on="0"/>
        <pt x="4246" y="410" on="1"/>
        <pt x="4242" y="404" on="0"/>
        <pt x="4217" y="369" on="0"/>
        <pt x="4211" y="365" on="1"/>
        <pt x="4240" y="307" on="0"/>
        <pt x="4273" y="307" on="1"/>
        <pt x="4290" y="307" on="0"/>
      </contour>
      <contour>
        <pt x="1444" y="1403" on="1"/>
        <pt x="1444" y="1415" on="0"/>
        <pt x="1436" y="1458" on="0"/>
        <pt x="1436" y="1463" on="1"/>
        <pt x="1398" y="1463" on="1"/>
        <pt x="1386" y="1439" on="1"/>
        <pt x="1386" y="1423" on="0"/>
        <pt x="1411" y="1415" on="1"/>
        <pt x="1442" y="1405" on="0"/>
      </contour>
      <contour>
        <pt x="504" y="1422" on="1"/>
        <pt x="457" y="1422" on="1"/>
        <pt x="423" y="1389" on="0"/>
        <pt x="423" y="1377" on="1"/>
        <pt x="423" y="1342" on="0"/>
        <pt x="493" y="1342" on="1"/>
        <pt x="516" y="1382" on="0"/>
      </contour>
      <contour>
        <pt x="1631" y="206" on="1"/>
        <pt x="1605" y="262" on="0"/>
        <pt x="1575" y="276" on="1"/>
        <pt x="1550" y="264" on="1"/>
        <pt x="1550" y="229" on="1"/>
        <pt x="1562" y="222" on="0"/>
        <pt x="1583" y="206" on="1"/>
      </contour>
      <contour>
        <pt x="1109" y="186" on="1"/>
        <pt x="1071" y="264" on="0"/>
        <pt x="1029" y="265" on="1"/>
        <pt x="1019" y="206" on="1"/>
        <pt x="1028" y="206" on="0"/>
        <pt x="1051" y="186" on="1"/>
      </contour>
    </TTGlyph>
    <TTGlyph name="irghizufinal" xMin="142" yMin="226" xMax="842" yMax="1588">
      <contour>
        <pt x="142" y="226" on="1"/>
        <pt x="142" y="1588" on="1"/>
        <pt x="842" y="1588" on="1"/>
        <pt x="842" y="226" on="1"/>
      </contour>
      <contour>
        <pt x="284" y="368" on="1"/>
        <pt x="700" y="368" on="1"/>
        <pt x="700" y="1447" on="1"/>
        <pt x="284" y="1447" on="1"/>
      </contour>
    </TTGlyph>
    <TTGlyph name="jehfinalarabic" xMin="142" yMin="226" xMax="842" yMax="1588">
      <contour>
        <pt x="142" y="226" on="1"/>
        <pt x="142" y="1588" on="1"/>
        <pt x="842" y="1588" on="1"/>
        <pt x="842" y="226" on="1"/>
      </contour>
      <contour>
        <pt x="284" y="368" on="1"/>
        <pt x="700" y="368" on="1"/>
        <pt x="700" y="1447" on="1"/>
        <pt x="284" y="1447" on="1"/>
      </contour>
    </TTGlyph>
    <TTGlyph name="kafringfinal" xMin="142" yMin="226" xMax="842" yMax="1588">
      <contour>
        <pt x="142" y="226" on="1"/>
        <pt x="142" y="1588" on="1"/>
        <pt x="842" y="1588" on="1"/>
        <pt x="842" y="226" on="1"/>
      </contour>
      <contour>
        <pt x="284" y="368" on="1"/>
        <pt x="700" y="368" on="1"/>
        <pt x="700" y="1447" on="1"/>
        <pt x="284" y="1447" on="1"/>
      </contour>
    </TTGlyph>
    <TTGlyph name="kafringinitial" xMin="142" yMin="226" xMax="842" yMax="1588">
      <contour>
        <pt x="142" y="226" on="1"/>
        <pt x="142" y="1588" on="1"/>
        <pt x="842" y="1588" on="1"/>
        <pt x="842" y="226" on="1"/>
      </contour>
      <contour>
        <pt x="284" y="368" on="1"/>
        <pt x="700" y="368" on="1"/>
        <pt x="700" y="1447" on="1"/>
        <pt x="284" y="1447" on="1"/>
      </contour>
    </TTGlyph>
    <TTGlyph name="kafringmedial" xMin="142" yMin="226" xMax="842" yMax="1588">
      <contour>
        <pt x="142" y="226" on="1"/>
        <pt x="142" y="1588" on="1"/>
        <pt x="842" y="1588" on="1"/>
        <pt x="842" y="226" on="1"/>
      </contour>
      <contour>
        <pt x="284" y="368" on="1"/>
        <pt x="700" y="368" on="1"/>
        <pt x="700" y="1447" on="1"/>
        <pt x="284" y="1447" on="1"/>
      </contour>
    </TTGlyph>
    <TTGlyph name="kashidaautoarabic" xMin="142" yMin="226" xMax="842" yMax="1588">
      <contour>
        <pt x="142" y="226" on="1"/>
        <pt x="142" y="1588" on="1"/>
        <pt x="842" y="1588" on="1"/>
        <pt x="842" y="226" on="1"/>
      </contour>
      <contour>
        <pt x="284" y="368" on="1"/>
        <pt x="700" y="368" on="1"/>
        <pt x="700" y="1447" on="1"/>
        <pt x="284" y="1447" on="1"/>
      </contour>
    </TTGlyph>
    <TTGlyph name="kashidaautonosidebearingarabic" xMin="142" yMin="226" xMax="842" yMax="1588">
      <contour>
        <pt x="142" y="226" on="1"/>
        <pt x="142" y="1588" on="1"/>
        <pt x="842" y="1588" on="1"/>
        <pt x="842" y="226" on="1"/>
      </contour>
      <contour>
        <pt x="284" y="368" on="1"/>
        <pt x="700" y="368" on="1"/>
        <pt x="700" y="1447" on="1"/>
        <pt x="284" y="1447" on="1"/>
      </contour>
    </TTGlyph>
    <TTGlyph name="kehehfinalarabic" xMin="142" yMin="226" xMax="842" yMax="1588">
      <contour>
        <pt x="142" y="226" on="1"/>
        <pt x="142" y="1588" on="1"/>
        <pt x="842" y="1588" on="1"/>
        <pt x="842" y="226" on="1"/>
      </contour>
      <contour>
        <pt x="284" y="368" on="1"/>
        <pt x="700" y="368" on="1"/>
        <pt x="700" y="1447" on="1"/>
        <pt x="284" y="1447" on="1"/>
      </contour>
    </TTGlyph>
    <TTGlyph name="kehehinitialarabic" xMin="142" yMin="226" xMax="842" yMax="1588">
      <contour>
        <pt x="142" y="226" on="1"/>
        <pt x="142" y="1588" on="1"/>
        <pt x="842" y="1588" on="1"/>
        <pt x="842" y="226" on="1"/>
      </contour>
      <contour>
        <pt x="284" y="368" on="1"/>
        <pt x="700" y="368" on="1"/>
        <pt x="700" y="1447" on="1"/>
        <pt x="284" y="1447" on="1"/>
      </contour>
    </TTGlyph>
    <TTGlyph name="kehehmedialarabic" xMin="142" yMin="226" xMax="842" yMax="1588">
      <contour>
        <pt x="142" y="226" on="1"/>
        <pt x="142" y="1588" on="1"/>
        <pt x="842" y="1588" on="1"/>
        <pt x="842" y="226" on="1"/>
      </contour>
      <contour>
        <pt x="284" y="368" on="1"/>
        <pt x="700" y="368" on="1"/>
        <pt x="700" y="1447" on="1"/>
        <pt x="284" y="1447" on="1"/>
      </contour>
    </TTGlyph>
    <TTGlyph name="kirghizyifinal" xMin="142" yMin="226" xMax="842" yMax="1588">
      <contour>
        <pt x="142" y="226" on="1"/>
        <pt x="142" y="1588" on="1"/>
        <pt x="842" y="1588" on="1"/>
        <pt x="842" y="226" on="1"/>
      </contour>
      <contour>
        <pt x="284" y="368" on="1"/>
        <pt x="700" y="368" on="1"/>
        <pt x="700" y="1447" on="1"/>
        <pt x="284" y="1447" on="1"/>
      </contour>
    </TTGlyph>
    <TTGlyph name="lammeemjeeminitialarabic" xMin="142" yMin="226" xMax="842" yMax="1588">
      <contour>
        <pt x="142" y="226" on="1"/>
        <pt x="142" y="1588" on="1"/>
        <pt x="842" y="1588" on="1"/>
        <pt x="842" y="226" on="1"/>
      </contour>
      <contour>
        <pt x="284" y="368" on="1"/>
        <pt x="700" y="368" on="1"/>
        <pt x="700" y="1447" on="1"/>
        <pt x="284" y="1447" on="1"/>
      </contour>
    </TTGlyph>
    <TTGlyph name="lammeemkhahinitialarabic" xMin="142" yMin="226" xMax="842" yMax="1588">
      <contour>
        <pt x="142" y="226" on="1"/>
        <pt x="142" y="1588" on="1"/>
        <pt x="842" y="1588" on="1"/>
        <pt x="842" y="226" on="1"/>
      </contour>
      <contour>
        <pt x="284" y="368" on="1"/>
        <pt x="700" y="368" on="1"/>
        <pt x="700" y="1447" on="1"/>
        <pt x="284" y="1447" on="1"/>
      </contour>
    </TTGlyph>
    <TTGlyph name="lamthreedotsabovefinal" xMin="142" yMin="226" xMax="842" yMax="1588">
      <contour>
        <pt x="142" y="226" on="1"/>
        <pt x="142" y="1588" on="1"/>
        <pt x="842" y="1588" on="1"/>
        <pt x="842" y="226" on="1"/>
      </contour>
      <contour>
        <pt x="284" y="368" on="1"/>
        <pt x="700" y="368" on="1"/>
        <pt x="700" y="1447" on="1"/>
        <pt x="284" y="1447" on="1"/>
      </contour>
    </TTGlyph>
    <TTGlyph name="lamthreedotsaboveinitial" xMin="142" yMin="226" xMax="842" yMax="1588">
      <contour>
        <pt x="142" y="226" on="1"/>
        <pt x="142" y="1588" on="1"/>
        <pt x="842" y="1588" on="1"/>
        <pt x="842" y="226" on="1"/>
      </contour>
      <contour>
        <pt x="284" y="368" on="1"/>
        <pt x="700" y="368" on="1"/>
        <pt x="700" y="1447" on="1"/>
        <pt x="284" y="1447" on="1"/>
      </contour>
    </TTGlyph>
    <TTGlyph name="lamthreedotsabovemedial" xMin="142" yMin="226" xMax="842" yMax="1588">
      <contour>
        <pt x="142" y="226" on="1"/>
        <pt x="142" y="1588" on="1"/>
        <pt x="842" y="1588" on="1"/>
        <pt x="842" y="226" on="1"/>
      </contour>
      <contour>
        <pt x="284" y="368" on="1"/>
        <pt x="700" y="368" on="1"/>
        <pt x="700" y="1447" on="1"/>
        <pt x="284" y="1447" on="1"/>
      </contour>
    </TTGlyph>
    <TTGlyph name="less" xMin="142" yMin="226" xMax="842" yMax="1588">
      <contour>
        <pt x="142" y="226" on="1"/>
        <pt x="142" y="1588" on="1"/>
        <pt x="842" y="1588" on="1"/>
        <pt x="842" y="226" on="1"/>
      </contour>
      <contour>
        <pt x="284" y="368" on="1"/>
        <pt x="700" y="368" on="1"/>
        <pt x="700" y="1447" on="1"/>
        <pt x="284" y="1447" on="1"/>
      </contour>
    </TTGlyph>
    <TTGlyph name="meemmeemisolatedarabic" xMin="142" yMin="226" xMax="842" yMax="1588">
      <contour>
        <pt x="142" y="226" on="1"/>
        <pt x="142" y="1588" on="1"/>
        <pt x="842" y="1588" on="1"/>
        <pt x="842" y="226" on="1"/>
      </contour>
      <contour>
        <pt x="284" y="368" on="1"/>
        <pt x="700" y="368" on="1"/>
        <pt x="700" y="1447" on="1"/>
        <pt x="284" y="1447" on="1"/>
      </contour>
    </TTGlyph>
    <TTGlyph name="multiply" xMin="142" yMin="226" xMax="842" yMax="1588">
      <contour>
        <pt x="142" y="226" on="1"/>
        <pt x="142" y="1588" on="1"/>
        <pt x="842" y="1588" on="1"/>
        <pt x="842" y="226" on="1"/>
      </contour>
      <contour>
        <pt x="284" y="368" on="1"/>
        <pt x="700" y="368" on="1"/>
        <pt x="700" y="1447" on="1"/>
        <pt x="284" y="1447" on="1"/>
      </contour>
    </TTGlyph>
    <TTGlyph name="noonghunnafinalarabic" xMin="142" yMin="226" xMax="842" yMax="1588">
      <contour>
        <pt x="142" y="226" on="1"/>
        <pt x="142" y="1588" on="1"/>
        <pt x="842" y="1588" on="1"/>
        <pt x="842" y="226" on="1"/>
      </contour>
      <contour>
        <pt x="284" y="368" on="1"/>
        <pt x="700" y="368" on="1"/>
        <pt x="700" y="1447" on="1"/>
        <pt x="284" y="1447" on="1"/>
      </contour>
    </TTGlyph>
    <TTGlyph name="noonjeemisolatedarabic" xMin="142" yMin="226" xMax="842" yMax="1588">
      <contour>
        <pt x="142" y="226" on="1"/>
        <pt x="142" y="1588" on="1"/>
        <pt x="842" y="1588" on="1"/>
        <pt x="842" y="226" on="1"/>
      </contour>
      <contour>
        <pt x="284" y="368" on="1"/>
        <pt x="700" y="368" on="1"/>
        <pt x="700" y="1447" on="1"/>
        <pt x="284" y="1447" on="1"/>
      </contour>
    </TTGlyph>
    <TTGlyph name="noonmeemisolatedarabic" xMin="142" yMin="226" xMax="842" yMax="1588">
      <contour>
        <pt x="142" y="226" on="1"/>
        <pt x="142" y="1588" on="1"/>
        <pt x="842" y="1588" on="1"/>
        <pt x="842" y="226" on="1"/>
      </contour>
      <contour>
        <pt x="284" y="368" on="1"/>
        <pt x="700" y="368" on="1"/>
        <pt x="700" y="1447" on="1"/>
        <pt x="284" y="1447" on="1"/>
      </contour>
    </TTGlyph>
    <TTGlyph name="noonringfinal" xMin="142" yMin="226" xMax="842" yMax="1588">
      <contour>
        <pt x="142" y="226" on="1"/>
        <pt x="142" y="1588" on="1"/>
        <pt x="842" y="1588" on="1"/>
        <pt x="842" y="226" on="1"/>
      </contour>
      <contour>
        <pt x="284" y="368" on="1"/>
        <pt x="700" y="368" on="1"/>
        <pt x="700" y="1447" on="1"/>
        <pt x="284" y="1447" on="1"/>
      </contour>
    </TTGlyph>
    <TTGlyph name="noonringinitial" xMin="142" yMin="226" xMax="842" yMax="1588">
      <contour>
        <pt x="142" y="226" on="1"/>
        <pt x="142" y="1588" on="1"/>
        <pt x="842" y="1588" on="1"/>
        <pt x="842" y="226" on="1"/>
      </contour>
      <contour>
        <pt x="284" y="368" on="1"/>
        <pt x="700" y="368" on="1"/>
        <pt x="700" y="1447" on="1"/>
        <pt x="284" y="1447" on="1"/>
      </contour>
    </TTGlyph>
    <TTGlyph name="noonringmedial" xMin="142" yMin="226" xMax="842" yMax="1588">
      <contour>
        <pt x="142" y="226" on="1"/>
        <pt x="142" y="1588" on="1"/>
        <pt x="842" y="1588" on="1"/>
        <pt x="842" y="226" on="1"/>
      </contour>
      <contour>
        <pt x="284" y="368" on="1"/>
        <pt x="700" y="368" on="1"/>
        <pt x="700" y="1447" on="1"/>
        <pt x="284" y="1447" on="1"/>
      </contour>
    </TTGlyph>
    <TTGlyph name="numbersign" xMin="142" yMin="226" xMax="842" yMax="1588">
      <contour>
        <pt x="142" y="226" on="1"/>
        <pt x="142" y="1588" on="1"/>
        <pt x="842" y="1588" on="1"/>
        <pt x="842" y="226" on="1"/>
      </contour>
      <contour>
        <pt x="284" y="368" on="1"/>
        <pt x="700" y="368" on="1"/>
        <pt x="700" y="1447" on="1"/>
        <pt x="284" y="1447" on="1"/>
      </contour>
    </TTGlyph>
    <TTGlyph name="parenleft" xMin="142" yMin="226" xMax="842" yMax="1588">
      <contour>
        <pt x="142" y="226" on="1"/>
        <pt x="142" y="1588" on="1"/>
        <pt x="842" y="1588" on="1"/>
        <pt x="842" y="226" on="1"/>
      </contour>
      <contour>
        <pt x="284" y="368" on="1"/>
        <pt x="700" y="368" on="1"/>
        <pt x="700" y="1447" on="1"/>
        <pt x="284" y="1447" on="1"/>
      </contour>
    </TTGlyph>
    <TTGlyph name="parenright" xMin="142" yMin="226" xMax="842" yMax="1588">
      <contour>
        <pt x="142" y="226" on="1"/>
        <pt x="142" y="1588" on="1"/>
        <pt x="842" y="1588" on="1"/>
        <pt x="842" y="226" on="1"/>
      </contour>
      <contour>
        <pt x="284" y="368" on="1"/>
        <pt x="700" y="368" on="1"/>
        <pt x="700" y="1447" on="1"/>
        <pt x="284" y="1447" on="1"/>
      </contour>
    </TTGlyph>
    <TTGlyph name="pashtoefinal" xMin="142" yMin="226" xMax="842" yMax="1588">
      <contour>
        <pt x="142" y="226" on="1"/>
        <pt x="142" y="1588" on="1"/>
        <pt x="842" y="1588" on="1"/>
        <pt x="842" y="226" on="1"/>
      </contour>
      <contour>
        <pt x="284" y="368" on="1"/>
        <pt x="700" y="368" on="1"/>
        <pt x="700" y="1447" on="1"/>
        <pt x="284" y="1447" on="1"/>
      </contour>
    </TTGlyph>
    <TTGlyph name="pashtoeinitial" xMin="142" yMin="226" xMax="842" yMax="1588">
      <contour>
        <pt x="142" y="226" on="1"/>
        <pt x="142" y="1588" on="1"/>
        <pt x="842" y="1588" on="1"/>
        <pt x="842" y="226" on="1"/>
      </contour>
      <contour>
        <pt x="284" y="368" on="1"/>
        <pt x="700" y="368" on="1"/>
        <pt x="700" y="1447" on="1"/>
        <pt x="284" y="1447" on="1"/>
      </contour>
    </TTGlyph>
    <TTGlyph name="pashtoemedial" xMin="142" yMin="226" xMax="842" yMax="1588">
      <contour>
        <pt x="142" y="226" on="1"/>
        <pt x="142" y="1588" on="1"/>
        <pt x="842" y="1588" on="1"/>
        <pt x="842" y="226" on="1"/>
      </contour>
      <contour>
        <pt x="284" y="368" on="1"/>
        <pt x="700" y="368" on="1"/>
        <pt x="700" y="1447" on="1"/>
        <pt x="284" y="1447" on="1"/>
      </contour>
    </TTGlyph>
    <TTGlyph name="pehfinalarabic" xMin="142" yMin="226" xMax="842" yMax="1588">
      <contour>
        <pt x="142" y="226" on="1"/>
        <pt x="142" y="1588" on="1"/>
        <pt x="842" y="1588" on="1"/>
        <pt x="842" y="226" on="1"/>
      </contour>
      <contour>
        <pt x="284" y="368" on="1"/>
        <pt x="700" y="368" on="1"/>
        <pt x="700" y="1447" on="1"/>
        <pt x="284" y="1447" on="1"/>
      </contour>
    </TTGlyph>
    <TTGlyph name="pehinitialarabic" xMin="142" yMin="226" xMax="842" yMax="1588">
      <contour>
        <pt x="142" y="226" on="1"/>
        <pt x="142" y="1588" on="1"/>
        <pt x="842" y="1588" on="1"/>
        <pt x="842" y="226" on="1"/>
      </contour>
      <contour>
        <pt x="284" y="368" on="1"/>
        <pt x="700" y="368" on="1"/>
        <pt x="700" y="1447" on="1"/>
        <pt x="284" y="1447" on="1"/>
      </contour>
    </TTGlyph>
    <TTGlyph name="pehmedialarabic" xMin="142" yMin="226" xMax="842" yMax="1588">
      <contour>
        <pt x="142" y="226" on="1"/>
        <pt x="142" y="1588" on="1"/>
        <pt x="842" y="1588" on="1"/>
        <pt x="842" y="226" on="1"/>
      </contour>
      <contour>
        <pt x="284" y="368" on="1"/>
        <pt x="700" y="368" on="1"/>
        <pt x="700" y="1447" on="1"/>
        <pt x="284" y="1447" on="1"/>
      </contour>
    </TTGlyph>
    <TTGlyph name="percent" xMin="142" yMin="226" xMax="842" yMax="1588">
      <contour>
        <pt x="142" y="226" on="1"/>
        <pt x="142" y="1588" on="1"/>
        <pt x="842" y="1588" on="1"/>
        <pt x="842" y="226" on="1"/>
      </contour>
      <contour>
        <pt x="284" y="368" on="1"/>
        <pt x="700" y="368" on="1"/>
        <pt x="700" y="1447" on="1"/>
        <pt x="284" y="1447" on="1"/>
      </contour>
    </TTGlyph>
    <TTGlyph name="period" xMin="142" yMin="226" xMax="842" yMax="1588">
      <contour>
        <pt x="142" y="226" on="1"/>
        <pt x="142" y="1588" on="1"/>
        <pt x="842" y="1588" on="1"/>
        <pt x="842" y="226" on="1"/>
      </contour>
      <contour>
        <pt x="284" y="368" on="1"/>
        <pt x="700" y="368" on="1"/>
        <pt x="700" y="1447" on="1"/>
        <pt x="284" y="1447" on="1"/>
      </contour>
    </TTGlyph>
    <TTGlyph name="plus" xMin="142" yMin="226" xMax="842" yMax="1588">
      <contour>
        <pt x="142" y="226" on="1"/>
        <pt x="142" y="1588" on="1"/>
        <pt x="842" y="1588" on="1"/>
        <pt x="842" y="226" on="1"/>
      </contour>
      <contour>
        <pt x="284" y="368" on="1"/>
        <pt x="700" y="368" on="1"/>
        <pt x="700" y="1447" on="1"/>
        <pt x="284" y="1447" on="1"/>
      </contour>
    </TTGlyph>
    <TTGlyph name="quotedbl" xMin="142" yMin="226" xMax="842" yMax="1588">
      <contour>
        <pt x="142" y="226" on="1"/>
        <pt x="142" y="1588" on="1"/>
        <pt x="842" y="1588" on="1"/>
        <pt x="842" y="226" on="1"/>
      </contour>
      <contour>
        <pt x="284" y="368" on="1"/>
        <pt x="700" y="368" on="1"/>
        <pt x="700" y="1447" on="1"/>
        <pt x="284" y="1447" on="1"/>
      </contour>
    </TTGlyph>
    <TTGlyph name="quotesingle" xMin="142" yMin="226" xMax="842" yMax="1588">
      <contour>
        <pt x="142" y="226" on="1"/>
        <pt x="142" y="1588" on="1"/>
        <pt x="842" y="1588" on="1"/>
        <pt x="842" y="226" on="1"/>
      </contour>
      <contour>
        <pt x="284" y="368" on="1"/>
        <pt x="700" y="368" on="1"/>
        <pt x="700" y="1447" on="1"/>
        <pt x="284" y="1447" on="1"/>
      </contour>
    </TTGlyph>
    <TTGlyph name="rehdotbelowdotabovefinal" xMin="142" yMin="226" xMax="842" yMax="1588">
      <contour>
        <pt x="142" y="226" on="1"/>
        <pt x="142" y="1588" on="1"/>
        <pt x="842" y="1588" on="1"/>
        <pt x="842" y="226" on="1"/>
      </contour>
      <contour>
        <pt x="284" y="368" on="1"/>
        <pt x="700" y="368" on="1"/>
        <pt x="700" y="1447" on="1"/>
        <pt x="284" y="1447" on="1"/>
      </contour>
    </TTGlyph>
    <TTGlyph name="rehringfinal" xMin="142" yMin="226" xMax="842" yMax="1588">
      <contour>
        <pt x="142" y="226" on="1"/>
        <pt x="142" y="1588" on="1"/>
        <pt x="842" y="1588" on="1"/>
        <pt x="842" y="226" on="1"/>
      </contour>
      <contour>
        <pt x="284" y="368" on="1"/>
        <pt x="700" y="368" on="1"/>
        <pt x="700" y="1447" on="1"/>
        <pt x="284" y="1447" on="1"/>
      </contour>
    </TTGlyph>
    <TTGlyph name="rrehfinalarabic" xMin="142" yMin="226" xMax="842" yMax="1588">
      <contour>
        <pt x="142" y="226" on="1"/>
        <pt x="142" y="1588" on="1"/>
        <pt x="842" y="1588" on="1"/>
        <pt x="842" y="226" on="1"/>
      </contour>
      <contour>
        <pt x="284" y="368" on="1"/>
        <pt x="700" y="368" on="1"/>
        <pt x="700" y="1447" on="1"/>
        <pt x="284" y="1447" on="1"/>
      </contour>
    </TTGlyph>
    <TTGlyph name="seendotbelowdotabovefinal" xMin="142" yMin="226" xMax="842" yMax="1588">
      <contour>
        <pt x="142" y="226" on="1"/>
        <pt x="142" y="1588" on="1"/>
        <pt x="842" y="1588" on="1"/>
        <pt x="842" y="226" on="1"/>
      </contour>
      <contour>
        <pt x="284" y="368" on="1"/>
        <pt x="700" y="368" on="1"/>
        <pt x="700" y="1447" on="1"/>
        <pt x="284" y="1447" on="1"/>
      </contour>
    </TTGlyph>
    <TTGlyph name="seendotbelowdotaboveinitial" xMin="142" yMin="226" xMax="842" yMax="1588">
      <contour>
        <pt x="142" y="226" on="1"/>
        <pt x="142" y="1588" on="1"/>
        <pt x="842" y="1588" on="1"/>
        <pt x="842" y="226" on="1"/>
      </contour>
      <contour>
        <pt x="284" y="368" on="1"/>
        <pt x="700" y="368" on="1"/>
        <pt x="700" y="1447" on="1"/>
        <pt x="284" y="1447" on="1"/>
      </contour>
    </TTGlyph>
    <TTGlyph name="seendotbelowdotabovemedial" xMin="142" yMin="226" xMax="842" yMax="1588">
      <contour>
        <pt x="142" y="226" on="1"/>
        <pt x="142" y="1588" on="1"/>
        <pt x="842" y="1588" on="1"/>
        <pt x="842" y="226" on="1"/>
      </contour>
      <contour>
        <pt x="284" y="368" on="1"/>
        <pt x="700" y="368" on="1"/>
        <pt x="700" y="1447" on="1"/>
        <pt x="284" y="1447" on="1"/>
      </contour>
    </TTGlyph>
    <TTGlyph name="shaddadammaarabic" xMin="142" yMin="226" xMax="842" yMax="1588">
      <contour>
        <pt x="142" y="226" on="1"/>
        <pt x="142" y="1588" on="1"/>
        <pt x="842" y="1588" on="1"/>
        <pt x="842" y="226" on="1"/>
      </contour>
      <contour>
        <pt x="284" y="368" on="1"/>
        <pt x="700" y="368" on="1"/>
        <pt x="700" y="1447" on="1"/>
        <pt x="284" y="1447" on="1"/>
      </contour>
    </TTGlyph>
    <TTGlyph name="shaddadammatanarabic" xMin="142" yMin="226" xMax="842" yMax="1588">
      <contour>
        <pt x="142" y="226" on="1"/>
        <pt x="142" y="1588" on="1"/>
        <pt x="842" y="1588" on="1"/>
        <pt x="842" y="226" on="1"/>
      </contour>
      <contour>
        <pt x="284" y="368" on="1"/>
        <pt x="700" y="368" on="1"/>
        <pt x="700" y="1447" on="1"/>
        <pt x="284" y="1447" on="1"/>
      </contour>
    </TTGlyph>
    <TTGlyph name="shaddafathaarabic" xMin="142" yMin="226" xMax="842" yMax="1588">
      <contour>
        <pt x="142" y="226" on="1"/>
        <pt x="142" y="1588" on="1"/>
        <pt x="842" y="1588" on="1"/>
        <pt x="842" y="226" on="1"/>
      </contour>
      <contour>
        <pt x="284" y="368" on="1"/>
        <pt x="700" y="368" on="1"/>
        <pt x="700" y="1447" on="1"/>
        <pt x="284" y="1447" on="1"/>
      </contour>
    </TTGlyph>
    <TTGlyph name="shaddakasraarabic" xMin="142" yMin="226" xMax="842" yMax="1588">
      <contour>
        <pt x="142" y="226" on="1"/>
        <pt x="142" y="1588" on="1"/>
        <pt x="842" y="1588" on="1"/>
        <pt x="842" y="226" on="1"/>
      </contour>
      <contour>
        <pt x="284" y="368" on="1"/>
        <pt x="700" y="368" on="1"/>
        <pt x="700" y="1447" on="1"/>
        <pt x="284" y="1447" on="1"/>
      </contour>
    </TTGlyph>
    <TTGlyph name="shaddakasratanarabic" xMin="142" yMin="226" xMax="842" yMax="1588">
      <contour>
        <pt x="142" y="226" on="1"/>
        <pt x="142" y="1588" on="1"/>
        <pt x="842" y="1588" on="1"/>
        <pt x="842" y="226" on="1"/>
      </contour>
      <contour>
        <pt x="284" y="368" on="1"/>
        <pt x="700" y="368" on="1"/>
        <pt x="700" y="1447" on="1"/>
        <pt x="284" y="1447" on="1"/>
      </contour>
    </TTGlyph>
    <TTGlyph name="slash" xMin="142" yMin="226" xMax="842" yMax="1588">
      <contour>
        <pt x="142" y="226" on="1"/>
        <pt x="142" y="1588" on="1"/>
        <pt x="842" y="1588" on="1"/>
        <pt x="842" y="226" on="1"/>
      </contour>
      <contour>
        <pt x="284" y="368" on="1"/>
        <pt x="700" y="368" on="1"/>
        <pt x="700" y="1447" on="1"/>
        <pt x="284" y="1447" on="1"/>
      </contour>
    </TTGlyph>
    <TTGlyph name="space" xMin="142" yMin="226" xMax="842" yMax="1588">
      <contour>
        <pt x="142" y="226" on="1"/>
        <pt x="142" y="1588" on="1"/>
        <pt x="842" y="1588" on="1"/>
        <pt x="842" y="226" on="1"/>
      </contour>
      <contour>
        <pt x="284" y="368" on="1"/>
        <pt x="700" y="368" on="1"/>
        <pt x="700" y="1447" on="1"/>
        <pt x="284" y="1447" on="1"/>
      </contour>
    </TTGlyph>
    <TTGlyph name="tchehfinalarabic" xMin="142" yMin="226" xMax="842" yMax="1588">
      <contour>
        <pt x="142" y="226" on="1"/>
        <pt x="142" y="1588" on="1"/>
        <pt x="842" y="1588" on="1"/>
        <pt x="842" y="226" on="1"/>
      </contour>
      <contour>
        <pt x="284" y="368" on="1"/>
        <pt x="700" y="368" on="1"/>
        <pt x="700" y="1447" on="1"/>
        <pt x="284" y="1447" on="1"/>
      </contour>
    </TTGlyph>
    <TTGlyph name="tchehinitialarabic" xMin="142" yMin="226" xMax="842" yMax="1588">
      <contour>
        <pt x="142" y="226" on="1"/>
        <pt x="142" y="1588" on="1"/>
        <pt x="842" y="1588" on="1"/>
        <pt x="842" y="226" on="1"/>
      </contour>
      <contour>
        <pt x="284" y="368" on="1"/>
        <pt x="700" y="368" on="1"/>
        <pt x="700" y="1447" on="1"/>
        <pt x="284" y="1447" on="1"/>
      </contour>
    </TTGlyph>
    <TTGlyph name="tchehmedialarabic" xMin="142" yMin="226" xMax="842" yMax="1588">
      <contour>
        <pt x="142" y="226" on="1"/>
        <pt x="142" y="1588" on="1"/>
        <pt x="842" y="1588" on="1"/>
        <pt x="842" y="226" on="1"/>
      </contour>
      <contour>
        <pt x="284" y="368" on="1"/>
        <pt x="700" y="368" on="1"/>
        <pt x="700" y="1447" on="1"/>
        <pt x="284" y="1447" on="1"/>
      </contour>
    </TTGlyph>
    <TTGlyph name="tehhahisolatedarabic" xMin="142" yMin="226" xMax="842" yMax="1588">
      <contour>
        <pt x="142" y="226" on="1"/>
        <pt x="142" y="1588" on="1"/>
        <pt x="842" y="1588" on="1"/>
        <pt x="842" y="226" on="1"/>
      </contour>
      <contour>
        <pt x="284" y="368" on="1"/>
        <pt x="700" y="368" on="1"/>
        <pt x="700" y="1447" on="1"/>
        <pt x="284" y="1447" on="1"/>
      </contour>
    </TTGlyph>
    <TTGlyph name="tehjeemisolatedarabic" xMin="142" yMin="226" xMax="842" yMax="1588">
      <contour>
        <pt x="142" y="226" on="1"/>
        <pt x="142" y="1588" on="1"/>
        <pt x="842" y="1588" on="1"/>
        <pt x="842" y="226" on="1"/>
      </contour>
      <contour>
        <pt x="284" y="368" on="1"/>
        <pt x="700" y="368" on="1"/>
        <pt x="700" y="1447" on="1"/>
        <pt x="284" y="1447" on="1"/>
      </contour>
    </TTGlyph>
    <TTGlyph name="tehmeemisolatedarabic" xMin="142" yMin="226" xMax="842" yMax="1588">
      <contour>
        <pt x="142" y="226" on="1"/>
        <pt x="142" y="1588" on="1"/>
        <pt x="842" y="1588" on="1"/>
        <pt x="842" y="226" on="1"/>
      </contour>
      <contour>
        <pt x="284" y="368" on="1"/>
        <pt x="700" y="368" on="1"/>
        <pt x="700" y="1447" on="1"/>
        <pt x="284" y="1447" on="1"/>
      </contour>
    </TTGlyph>
    <TTGlyph name="tehnoonfinalarabic" xMin="142" yMin="226" xMax="842" yMax="1588">
      <contour>
        <pt x="142" y="226" on="1"/>
        <pt x="142" y="1588" on="1"/>
        <pt x="842" y="1588" on="1"/>
        <pt x="842" y="226" on="1"/>
      </contour>
      <contour>
        <pt x="284" y="368" on="1"/>
        <pt x="700" y="368" on="1"/>
        <pt x="700" y="1447" on="1"/>
        <pt x="284" y="1447" on="1"/>
      </contour>
    </TTGlyph>
    <TTGlyph name="tehringfinal" xMin="142" yMin="226" xMax="842" yMax="1588">
      <contour>
        <pt x="142" y="226" on="1"/>
        <pt x="142" y="1588" on="1"/>
        <pt x="842" y="1588" on="1"/>
        <pt x="842" y="226" on="1"/>
      </contour>
      <contour>
        <pt x="284" y="368" on="1"/>
        <pt x="700" y="368" on="1"/>
        <pt x="700" y="1447" on="1"/>
        <pt x="284" y="1447" on="1"/>
      </contour>
    </TTGlyph>
    <TTGlyph name="tehringinitial" xMin="142" yMin="226" xMax="842" yMax="1588">
      <contour>
        <pt x="142" y="226" on="1"/>
        <pt x="142" y="1588" on="1"/>
        <pt x="842" y="1588" on="1"/>
        <pt x="842" y="226" on="1"/>
      </contour>
      <contour>
        <pt x="284" y="368" on="1"/>
        <pt x="700" y="368" on="1"/>
        <pt x="700" y="1447" on="1"/>
        <pt x="284" y="1447" on="1"/>
      </contour>
    </TTGlyph>
    <TTGlyph name="tehringmedial" xMin="142" yMin="226" xMax="842" yMax="1588">
      <contour>
        <pt x="142" y="226" on="1"/>
        <pt x="142" y="1588" on="1"/>
        <pt x="842" y="1588" on="1"/>
        <pt x="842" y="226" on="1"/>
      </contour>
      <contour>
        <pt x="284" y="368" on="1"/>
        <pt x="700" y="368" on="1"/>
        <pt x="700" y="1447" on="1"/>
        <pt x="284" y="1447" on="1"/>
      </contour>
    </TTGlyph>
    <TTGlyph name="ttehfinalarabic" xMin="142" yMin="226" xMax="842" yMax="1588">
      <contour>
        <pt x="142" y="226" on="1"/>
        <pt x="142" y="1588" on="1"/>
        <pt x="842" y="1588" on="1"/>
        <pt x="842" y="226" on="1"/>
      </contour>
      <contour>
        <pt x="284" y="368" on="1"/>
        <pt x="700" y="368" on="1"/>
        <pt x="700" y="1447" on="1"/>
        <pt x="284" y="1447" on="1"/>
      </contour>
    </TTGlyph>
    <TTGlyph name="ttehinitialarabic" xMin="142" yMin="226" xMax="842" yMax="1588">
      <contour>
        <pt x="142" y="226" on="1"/>
        <pt x="142" y="1588" on="1"/>
        <pt x="842" y="1588" on="1"/>
        <pt x="842" y="226" on="1"/>
      </contour>
      <contour>
        <pt x="284" y="368" on="1"/>
        <pt x="700" y="368" on="1"/>
        <pt x="700" y="1447" on="1"/>
        <pt x="284" y="1447" on="1"/>
      </contour>
    </TTGlyph>
    <TTGlyph name="ttehmedialarabic" xMin="142" yMin="226" xMax="842" yMax="1588">
      <contour>
        <pt x="142" y="226" on="1"/>
        <pt x="142" y="1588" on="1"/>
        <pt x="842" y="1588" on="1"/>
        <pt x="842" y="226" on="1"/>
      </contour>
      <contour>
        <pt x="284" y="368" on="1"/>
        <pt x="700" y="368" on="1"/>
        <pt x="700" y="1447" on="1"/>
        <pt x="284" y="1447" on="1"/>
      </contour>
    </TTGlyph>
    <TTGlyph name="uni000D" xMin="142" yMin="226" xMax="842" yMax="1588">
      <contour>
        <pt x="142" y="226" on="1"/>
        <pt x="142" y="1588" on="1"/>
        <pt x="842" y="1588" on="1"/>
        <pt x="842" y="226" on="1"/>
      </contour>
      <contour>
        <pt x="284" y="368" on="1"/>
        <pt x="700" y="368" on="1"/>
        <pt x="700" y="1447" on="1"/>
        <pt x="284" y="1447" on="1"/>
      </contour>
    </TTGlyph>
    <TTGlyph name="uni00A0" xMin="142" yMin="226" xMax="842" yMax="1588">
      <contour>
        <pt x="142" y="226" on="1"/>
        <pt x="142" y="1588" on="1"/>
        <pt x="842" y="1588" on="1"/>
        <pt x="842" y="226" on="1"/>
      </contour>
      <contour>
        <pt x="284" y="368" on="1"/>
        <pt x="700" y="368" on="1"/>
        <pt x="700" y="1447" on="1"/>
        <pt x="284" y="1447" on="1"/>
      </contour>
    </TTGlyph>
    <TTGlyph name="uni00AD" xMin="142" yMin="226" xMax="842" yMax="1588">
      <contour>
        <pt x="142" y="226" on="1"/>
        <pt x="142" y="1588" on="1"/>
        <pt x="842" y="1588" on="1"/>
        <pt x="842" y="226" on="1"/>
      </contour>
      <contour>
        <pt x="284" y="368" on="1"/>
        <pt x="700" y="368" on="1"/>
        <pt x="700" y="1447" on="1"/>
        <pt x="284" y="1447" on="1"/>
      </contour>
    </TTGlyph>
    <TTGlyph name="uni0653" xMin="142" yMin="226" xMax="842" yMax="1588">
      <contour>
        <pt x="142" y="226" on="1"/>
        <pt x="142" y="1588" on="1"/>
        <pt x="842" y="1588" on="1"/>
        <pt x="842" y="226" on="1"/>
      </contour>
      <contour>
        <pt x="284" y="368" on="1"/>
        <pt x="700" y="368" on="1"/>
        <pt x="700" y="1447" on="1"/>
        <pt x="284" y="1447" on="1"/>
      </contour>
    </TTGlyph>
    <TTGlyph name="uni0654" xMin="142" yMin="226" xMax="842" yMax="1588">
      <contour>
        <pt x="142" y="226" on="1"/>
        <pt x="142" y="1588" on="1"/>
        <pt x="842" y="1588" on="1"/>
        <pt x="842" y="226" on="1"/>
      </contour>
      <contour>
        <pt x="284" y="368" on="1"/>
        <pt x="700" y="368" on="1"/>
        <pt x="700" y="1447" on="1"/>
        <pt x="284" y="1447" on="1"/>
      </contour>
    </TTGlyph>
    <TTGlyph name="uni0655" xMin="142" yMin="226" xMax="842" yMax="1588">
      <contour>
        <pt x="142" y="226" on="1"/>
        <pt x="142" y="1588" on="1"/>
        <pt x="842" y="1588" on="1"/>
        <pt x="842" y="226" on="1"/>
      </contour>
      <contour>
        <pt x="284" y="368" on="1"/>
        <pt x="700" y="368" on="1"/>
        <pt x="700" y="1447" on="1"/>
        <pt x="284" y="1447" on="1"/>
      </contour>
    </TTGlyph>
    <TTGlyph name="uni066B" xMin="142" yMin="226" xMax="842" yMax="1588">
      <contour>
        <pt x="142" y="226" on="1"/>
        <pt x="142" y="1588" on="1"/>
        <pt x="842" y="1588" on="1"/>
        <pt x="842" y="226" on="1"/>
      </contour>
      <contour>
        <pt x="284" y="368" on="1"/>
        <pt x="700" y="368" on="1"/>
        <pt x="700" y="1447" on="1"/>
        <pt x="284" y="1447" on="1"/>
      </contour>
    </TTGlyph>
    <TTGlyph name="uni066C" xMin="142" yMin="226" xMax="842" yMax="1588">
      <contour>
        <pt x="142" y="226" on="1"/>
        <pt x="142" y="1588" on="1"/>
        <pt x="842" y="1588" on="1"/>
        <pt x="842" y="226" on="1"/>
      </contour>
      <contour>
        <pt x="284" y="368" on="1"/>
        <pt x="700" y="368" on="1"/>
        <pt x="700" y="1447" on="1"/>
        <pt x="284" y="1447" on="1"/>
      </contour>
    </TTGlyph>
    <TTGlyph name="uni0671" xMin="142" yMin="226" xMax="842" yMax="1588">
      <contour>
        <pt x="142" y="226" on="1"/>
        <pt x="142" y="1588" on="1"/>
        <pt x="842" y="1588" on="1"/>
        <pt x="842" y="226" on="1"/>
      </contour>
      <contour>
        <pt x="284" y="368" on="1"/>
        <pt x="700" y="368" on="1"/>
        <pt x="700" y="1447" on="1"/>
        <pt x="284" y="1447" on="1"/>
      </contour>
    </TTGlyph>
    <TTGlyph name="uni067C" xMin="142" yMin="226" xMax="842" yMax="1588">
      <contour>
        <pt x="142" y="226" on="1"/>
        <pt x="142" y="1588" on="1"/>
        <pt x="842" y="1588" on="1"/>
        <pt x="842" y="226" on="1"/>
      </contour>
      <contour>
        <pt x="284" y="368" on="1"/>
        <pt x="700" y="368" on="1"/>
        <pt x="700" y="1447" on="1"/>
        <pt x="284" y="1447" on="1"/>
      </contour>
    </TTGlyph>
    <TTGlyph name="uni0681" xMin="142" yMin="226" xMax="842" yMax="1588">
      <contour>
        <pt x="142" y="226" on="1"/>
        <pt x="142" y="1588" on="1"/>
        <pt x="842" y="1588" on="1"/>
        <pt x="842" y="226" on="1"/>
      </contour>
      <contour>
        <pt x="284" y="368" on="1"/>
        <pt x="700" y="368" on="1"/>
        <pt x="700" y="1447" on="1"/>
        <pt x="284" y="1447" on="1"/>
      </contour>
    </TTGlyph>
    <TTGlyph name="uni0685" xMin="142" yMin="226" xMax="842" yMax="1588">
      <contour>
        <pt x="142" y="226" on="1"/>
        <pt x="142" y="1588" on="1"/>
        <pt x="842" y="1588" on="1"/>
        <pt x="842" y="226" on="1"/>
      </contour>
      <contour>
        <pt x="284" y="368" on="1"/>
        <pt x="700" y="368" on="1"/>
        <pt x="700" y="1447" on="1"/>
        <pt x="284" y="1447" on="1"/>
      </contour>
    </TTGlyph>
    <TTGlyph name="uni0689" xMin="142" yMin="226" xMax="842" yMax="1588">
      <contour>
        <pt x="142" y="226" on="1"/>
        <pt x="142" y="1588" on="1"/>
        <pt x="842" y="1588" on="1"/>
        <pt x="842" y="226" on="1"/>
      </contour>
      <contour>
        <pt x="284" y="368" on="1"/>
        <pt x="700" y="368" on="1"/>
        <pt x="700" y="1447" on="1"/>
        <pt x="284" y="1447" on="1"/>
      </contour>
    </TTGlyph>
    <TTGlyph name="uni0693" xMin="142" yMin="226" xMax="842" yMax="1588">
      <contour>
        <pt x="142" y="226" on="1"/>
        <pt x="142" y="1588" on="1"/>
        <pt x="842" y="1588" on="1"/>
        <pt x="842" y="226" on="1"/>
      </contour>
      <contour>
        <pt x="284" y="368" on="1"/>
        <pt x="700" y="368" on="1"/>
        <pt x="700" y="1447" on="1"/>
        <pt x="284" y="1447" on="1"/>
      </contour>
    </TTGlyph>
    <TTGlyph name="uni0696" xMin="142" yMin="226" xMax="842" yMax="1588">
      <contour>
        <pt x="142" y="226" on="1"/>
        <pt x="142" y="1588" on="1"/>
        <pt x="842" y="1588" on="1"/>
        <pt x="842" y="226" on="1"/>
      </contour>
      <contour>
        <pt x="284" y="368" on="1"/>
        <pt x="700" y="368" on="1"/>
        <pt x="700" y="1447" on="1"/>
        <pt x="284" y="1447" on="1"/>
      </contour>
    </TTGlyph>
    <TTGlyph name="uni069A" xMin="142" yMin="226" xMax="842" yMax="1588">
      <contour>
        <pt x="142" y="226" on="1"/>
        <pt x="142" y="1588" on="1"/>
        <pt x="842" y="1588" on="1"/>
        <pt x="842" y="226" on="1"/>
      </contour>
      <contour>
        <pt x="284" y="368" on="1"/>
        <pt x="700" y="368" on="1"/>
        <pt x="700" y="1447" on="1"/>
        <pt x="284" y="1447" on="1"/>
      </contour>
    </TTGlyph>
    <TTGlyph name="uni06A9" xMin="142" yMin="226" xMax="842" yMax="1588">
      <contour>
        <pt x="142" y="226" on="1"/>
        <pt x="142" y="1588" on="1"/>
        <pt x="842" y="1588" on="1"/>
        <pt x="842" y="226" on="1"/>
      </contour>
      <contour>
        <pt x="284" y="368" on="1"/>
        <pt x="700" y="368" on="1"/>
        <pt x="700" y="1447" on="1"/>
        <pt x="284" y="1447" on="1"/>
      </contour>
    </TTGlyph>
    <TTGlyph name="uni06AB" xMin="142" yMin="226" xMax="842" yMax="1588">
      <contour>
        <pt x="142" y="226" on="1"/>
        <pt x="142" y="1588" on="1"/>
        <pt x="842" y="1588" on="1"/>
        <pt x="842" y="226" on="1"/>
      </contour>
      <contour>
        <pt x="284" y="368" on="1"/>
        <pt x="700" y="368" on="1"/>
        <pt x="700" y="1447" on="1"/>
        <pt x="284" y="1447" on="1"/>
      </contour>
    </TTGlyph>
    <TTGlyph name="uni06B7" xMin="142" yMin="226" xMax="842" yMax="1588">
      <contour>
        <pt x="142" y="226" on="1"/>
        <pt x="142" y="1588" on="1"/>
        <pt x="842" y="1588" on="1"/>
        <pt x="842" y="226" on="1"/>
      </contour>
      <contour>
        <pt x="284" y="368" on="1"/>
        <pt x="700" y="368" on="1"/>
        <pt x="700" y="1447" on="1"/>
        <pt x="284" y="1447" on="1"/>
      </contour>
    </TTGlyph>
    <TTGlyph name="uni06BC" xMin="142" yMin="226" xMax="842" yMax="1588">
      <contour>
        <pt x="142" y="226" on="1"/>
        <pt x="142" y="1588" on="1"/>
        <pt x="842" y="1588" on="1"/>
        <pt x="842" y="226" on="1"/>
      </contour>
      <contour>
        <pt x="284" y="368" on="1"/>
        <pt x="700" y="368" on="1"/>
        <pt x="700" y="1447" on="1"/>
        <pt x="284" y="1447" on="1"/>
      </contour>
    </TTGlyph>
    <TTGlyph name="uni06BE" xMin="142" yMin="226" xMax="842" yMax="1588">
      <contour>
        <pt x="142" y="226" on="1"/>
        <pt x="142" y="1588" on="1"/>
        <pt x="842" y="1588" on="1"/>
        <pt x="842" y="226" on="1"/>
      </contour>
      <contour>
        <pt x="284" y="368" on="1"/>
        <pt x="700" y="368" on="1"/>
        <pt x="700" y="1447" on="1"/>
        <pt x="284" y="1447" on="1"/>
      </contour>
    </TTGlyph>
    <TTGlyph name="uni06C2" xMin="142" yMin="226" xMax="842" yMax="1588">
      <contour>
        <pt x="142" y="226" on="1"/>
        <pt x="142" y="1588" on="1"/>
        <pt x="842" y="1588" on="1"/>
        <pt x="842" y="226" on="1"/>
      </contour>
      <contour>
        <pt x="284" y="368" on="1"/>
        <pt x="700" y="368" on="1"/>
        <pt x="700" y="1447" on="1"/>
        <pt x="284" y="1447" on="1"/>
      </contour>
    </TTGlyph>
    <TTGlyph name="uni06C7" xMin="142" yMin="226" xMax="842" yMax="1588">
      <contour>
        <pt x="142" y="226" on="1"/>
        <pt x="142" y="1588" on="1"/>
        <pt x="842" y="1588" on="1"/>
        <pt x="842" y="226" on="1"/>
      </contour>
      <contour>
        <pt x="284" y="368" on="1"/>
        <pt x="700" y="368" on="1"/>
        <pt x="700" y="1447" on="1"/>
        <pt x="284" y="1447" on="1"/>
      </contour>
    </TTGlyph>
    <TTGlyph name="uni06C9" xMin="142" yMin="226" xMax="842" yMax="1588">
      <contour>
        <pt x="142" y="226" on="1"/>
        <pt x="142" y="1588" on="1"/>
        <pt x="842" y="1588" on="1"/>
        <pt x="842" y="226" on="1"/>
      </contour>
      <contour>
        <pt x="284" y="368" on="1"/>
        <pt x="700" y="368" on="1"/>
        <pt x="700" y="1447" on="1"/>
        <pt x="284" y="1447" on="1"/>
      </contour>
    </TTGlyph>
    <TTGlyph name="uni06CC" xMin="142" yMin="226" xMax="842" yMax="1588">
      <contour>
        <pt x="142" y="226" on="1"/>
        <pt x="142" y="1588" on="1"/>
        <pt x="842" y="1588" on="1"/>
        <pt x="842" y="226" on="1"/>
      </contour>
      <contour>
        <pt x="284" y="368" on="1"/>
        <pt x="700" y="368" on="1"/>
        <pt x="700" y="1447" on="1"/>
        <pt x="284" y="1447" on="1"/>
      </contour>
    </TTGlyph>
    <TTGlyph name="uni06CD" xMin="142" yMin="226" xMax="842" yMax="1588">
      <contour>
        <pt x="142" y="226" on="1"/>
        <pt x="142" y="1588" on="1"/>
        <pt x="842" y="1588" on="1"/>
        <pt x="842" y="226" on="1"/>
      </contour>
      <contour>
        <pt x="284" y="368" on="1"/>
        <pt x="700" y="368" on="1"/>
        <pt x="700" y="1447" on="1"/>
        <pt x="284" y="1447" on="1"/>
      </contour>
    </TTGlyph>
    <TTGlyph name="uni06D0" xMin="142" yMin="226" xMax="842" yMax="1588">
      <contour>
        <pt x="142" y="226" on="1"/>
        <pt x="142" y="1588" on="1"/>
        <pt x="842" y="1588" on="1"/>
        <pt x="842" y="226" on="1"/>
      </contour>
      <contour>
        <pt x="284" y="368" on="1"/>
        <pt x="700" y="368" on="1"/>
        <pt x="700" y="1447" on="1"/>
        <pt x="284" y="1447" on="1"/>
      </contour>
    </TTGlyph>
    <TTGlyph name="uni06D1" xMin="142" yMin="226" xMax="842" yMax="1588">
      <contour>
        <pt x="142" y="226" on="1"/>
        <pt x="142" y="1588" on="1"/>
        <pt x="842" y="1588" on="1"/>
        <pt x="842" y="226" on="1"/>
      </contour>
      <contour>
        <pt x="284" y="368" on="1"/>
        <pt x="700" y="368" on="1"/>
        <pt x="700" y="1447" on="1"/>
        <pt x="284" y="1447" on="1"/>
      </contour>
    </TTGlyph>
    <TTGlyph name="uni06D3" xMin="142" yMin="226" xMax="842" yMax="1588">
      <contour>
        <pt x="142" y="226" on="1"/>
        <pt x="142" y="1588" on="1"/>
        <pt x="842" y="1588" on="1"/>
        <pt x="842" y="226" on="1"/>
      </contour>
      <contour>
        <pt x="284" y="368" on="1"/>
        <pt x="700" y="368" on="1"/>
        <pt x="700" y="1447" on="1"/>
        <pt x="284" y="1447" on="1"/>
      </contour>
    </TTGlyph>
    <TTGlyph name="uni06D4" xMin="142" yMin="226" xMax="842" yMax="1588">
      <contour>
        <pt x="142" y="226" on="1"/>
        <pt x="142" y="1588" on="1"/>
        <pt x="842" y="1588" on="1"/>
        <pt x="842" y="226" on="1"/>
      </contour>
      <contour>
        <pt x="284" y="368" on="1"/>
        <pt x="700" y="368" on="1"/>
        <pt x="700" y="1447" on="1"/>
        <pt x="284" y="1447" on="1"/>
      </contour>
    </TTGlyph>
    <TTGlyph name="uni06F0" xMin="142" yMin="226" xMax="842" yMax="1588">
      <contour>
        <pt x="142" y="226" on="1"/>
        <pt x="142" y="1588" on="1"/>
        <pt x="842" y="1588" on="1"/>
        <pt x="842" y="226" on="1"/>
      </contour>
      <contour>
        <pt x="284" y="368" on="1"/>
        <pt x="700" y="368" on="1"/>
        <pt x="700" y="1447" on="1"/>
        <pt x="284" y="1447" on="1"/>
      </contour>
    </TTGlyph>
    <TTGlyph name="uni06F1" xMin="142" yMin="226" xMax="842" yMax="1588">
      <contour>
        <pt x="142" y="226" on="1"/>
        <pt x="142" y="1588" on="1"/>
        <pt x="842" y="1588" on="1"/>
        <pt x="842" y="226" on="1"/>
      </contour>
      <contour>
        <pt x="284" y="368" on="1"/>
        <pt x="700" y="368" on="1"/>
        <pt x="700" y="1447" on="1"/>
        <pt x="284" y="1447" on="1"/>
      </contour>
    </TTGlyph>
    <TTGlyph name="uni06F2" xMin="142" yMin="226" xMax="842" yMax="1588">
      <contour>
        <pt x="142" y="226" on="1"/>
        <pt x="142" y="1588" on="1"/>
        <pt x="842" y="1588" on="1"/>
        <pt x="842" y="226" on="1"/>
      </contour>
      <contour>
        <pt x="284" y="368" on="1"/>
        <pt x="700" y="368" on="1"/>
        <pt x="700" y="1447" on="1"/>
        <pt x="284" y="1447" on="1"/>
      </contour>
    </TTGlyph>
    <TTGlyph name="uni06F3" xMin="142" yMin="226" xMax="842" yMax="1588">
      <contour>
        <pt x="142" y="226" on="1"/>
        <pt x="142" y="1588" on="1"/>
        <pt x="842" y="1588" on="1"/>
        <pt x="842" y="226" on="1"/>
      </contour>
      <contour>
        <pt x="284" y="368" on="1"/>
        <pt x="700" y="368" on="1"/>
        <pt x="700" y="1447" on="1"/>
        <pt x="284" y="1447" on="1"/>
      </contour>
    </TTGlyph>
    <TTGlyph name="uni06F4" xMin="142" yMin="226" xMax="842" yMax="1588">
      <contour>
        <pt x="142" y="226" on="1"/>
        <pt x="142" y="1588" on="1"/>
        <pt x="842" y="1588" on="1"/>
        <pt x="842" y="226" on="1"/>
      </contour>
      <contour>
        <pt x="284" y="368" on="1"/>
        <pt x="700" y="368" on="1"/>
        <pt x="700" y="1447" on="1"/>
        <pt x="284" y="1447" on="1"/>
      </contour>
    </TTGlyph>
    <TTGlyph name="uni06F5" xMin="142" yMin="226" xMax="842" yMax="1588">
      <contour>
        <pt x="142" y="226" on="1"/>
        <pt x="142" y="1588" on="1"/>
        <pt x="842" y="1588" on="1"/>
        <pt x="842" y="226" on="1"/>
      </contour>
      <contour>
        <pt x="284" y="368" on="1"/>
        <pt x="700" y="368" on="1"/>
        <pt x="700" y="1447" on="1"/>
        <pt x="284" y="1447" on="1"/>
      </contour>
    </TTGlyph>
    <TTGlyph name="uni06F6" xMin="142" yMin="226" xMax="842" yMax="1588">
      <contour>
        <pt x="142" y="226" on="1"/>
        <pt x="142" y="1588" on="1"/>
        <pt x="842" y="1588" on="1"/>
        <pt x="842" y="226" on="1"/>
      </contour>
      <contour>
        <pt x="284" y="368" on="1"/>
        <pt x="700" y="368" on="1"/>
        <pt x="700" y="1447" on="1"/>
        <pt x="284" y="1447" on="1"/>
      </contour>
    </TTGlyph>
    <TTGlyph name="uni06F7" xMin="142" yMin="226" xMax="842" yMax="1588">
      <contour>
        <pt x="142" y="226" on="1"/>
        <pt x="142" y="1588" on="1"/>
        <pt x="842" y="1588" on="1"/>
        <pt x="842" y="226" on="1"/>
      </contour>
      <contour>
        <pt x="284" y="368" on="1"/>
        <pt x="700" y="368" on="1"/>
        <pt x="700" y="1447" on="1"/>
        <pt x="284" y="1447" on="1"/>
      </contour>
    </TTGlyph>
    <TTGlyph name="uni06F8" xMin="142" yMin="226" xMax="842" yMax="1588">
      <contour>
        <pt x="142" y="226" on="1"/>
        <pt x="142" y="1588" on="1"/>
        <pt x="842" y="1588" on="1"/>
        <pt x="842" y="226" on="1"/>
      </contour>
      <contour>
        <pt x="284" y="368" on="1"/>
        <pt x="700" y="368" on="1"/>
        <pt x="700" y="1447" on="1"/>
        <pt x="284" y="1447" on="1"/>
      </contour>
    </TTGlyph>
    <TTGlyph name="uni06F9" xMin="142" yMin="226" xMax="842" yMax="1588">
      <contour>
        <pt x="142" y="226" on="1"/>
        <pt x="142" y="1588" on="1"/>
        <pt x="842" y="1588" on="1"/>
        <pt x="842" y="226" on="1"/>
      </contour>
      <contour>
        <pt x="284" y="368" on="1"/>
        <pt x="700" y="368" on="1"/>
        <pt x="700" y="1447" on="1"/>
        <pt x="284" y="1447" on="1"/>
      </contour>
    </TTGlyph>
    <TTGlyph name="uni2010" xMin="352" yMin="-420" xMax="4468" yMax="1618">
      <contour>
        <pt x="4344" y="1529" on="1"/>
        <pt x="4345" y="1501" on="0"/>
        <pt x="4248" y="1438" on="1"/>
        <pt x="4198" y="1408" on="0"/>
        <pt x="4148" y="1379" on="1"/>
        <pt x="4070" y="1325" on="0"/>
        <pt x="3911" y="1219" on="1"/>
        <pt x="3876" y="1219" on="1"/>
        <pt x="3863" y="1232" on="0"/>
        <pt x="3863" y="1259" on="1"/>
        <pt x="3863" y="1304" on="0"/>
        <pt x="4071" y="1435" on="1"/>
        <pt x="4189" y="1505" on="0"/>
        <pt x="4307" y="1575" on="1"/>
        <pt x="4344" y="1575" on="1"/>
      </contour>
      <contour>
        <pt x="3893" y="1565" on="1"/>
        <pt x="3897" y="1520" on="0"/>
        <pt x="3890" y="1498" on="1"/>
        <pt x="3863" y="1416" on="0"/>
        <pt x="3821" y="1375" on="1"/>
        <pt x="3798" y="1353" on="0"/>
        <pt x="3721" y="1325" on="1"/>
        <pt x="3651" y="1300" on="0"/>
        <pt x="3628" y="1300" on="1"/>
        <pt x="3617" y="1300" on="0"/>
        <pt x="3578" y="1311" on="0"/>
        <pt x="3567" y="1311" on="1"/>
        <pt x="3508" y="1311" on="0"/>
        <pt x="3472" y="1250" on="1"/>
        <pt x="3434" y="1250" on="1"/>
        <pt x="3434" y="1294" on="1"/>
        <pt x="3433" y="1335" on="0"/>
        <pt x="3538" y="1418" on="1"/>
        <pt x="3564" y="1421" on="0"/>
        <pt x="3621" y="1435" on="1"/>
        <pt x="3635" y="1440" on="0"/>
        <pt x="3645" y="1461" on="1"/>
        <pt x="3659" y="1488" on="0"/>
        <pt x="3662" y="1493" on="1"/>
        <pt x="3702" y="1538" on="0"/>
        <pt x="3741" y="1583" on="1"/>
        <pt x="3776" y="1618" on="0"/>
        <pt x="3817" y="1618" on="1"/>
        <pt x="3838" y="1618" on="0"/>
      </contour>
      <contour>
        <pt x="3802" y="261" on="1"/>
        <pt x="3802" y="197" on="0"/>
        <pt x="3759" y="93" on="1"/>
        <pt x="3721" y="93" on="1"/>
        <pt x="3577" y="1116" on="1"/>
        <pt x="3589" y="1180" on="0"/>
        <pt x="3641" y="1248" on="1"/>
        <pt x="3661" y="1248" on="0"/>
        <pt x="3675" y="1225" on="1"/>
        <pt x="3680" y="1029" on="0"/>
        <pt x="3703" y="886" on="1"/>
      </contour>
      <contour>
        <pt x="3269" y="1303" on="1"/>
        <pt x="3226" y="1255" on="0"/>
        <pt x="3079" y="1187" on="1"/>
        <pt x="2946" y="1126" on="0"/>
        <pt x="2916" y="1126" on="1"/>
        <pt x="2878" y="1126" on="0"/>
        <pt x="2860" y="1163" on="1"/>
        <pt x="2917" y="1199" on="0"/>
        <pt x="3034" y="1276" on="1"/>
        <pt x="3025" y="1300" on="0"/>
        <pt x="2988" y="1300" on="1"/>
        <pt x="2974" y="1300" on="0"/>
        <pt x="2926" y="1279" on="1"/>
        <pt x="2869" y="1255" on="0"/>
        <pt x="2851" y="1250" on="1"/>
        <pt x="2851" y="1284" on="1"/>
        <pt x="2851" y="1334" on="0"/>
        <pt x="2934" y="1377" on="1"/>
        <pt x="3004" y="1413" on="0"/>
        <pt x="3045" y="1413" on="1"/>
        <pt x="3082" y="1413" on="0"/>
        <pt x="3269" y="1360" on="1"/>
      </contour>
      <contour>
        <pt x="4468" y="271" on="1"/>
        <pt x="4468" y="111" on="0"/>
        <pt x="4342" y="-95" on="1"/>
        <pt x="4196" y="-338" on="0"/>
        <pt x="4012" y="-338" on="1"/>
        <pt x="3970" y="-338" on="0"/>
        <pt x="3838" y="-321" on="1"/>
        <pt x="3680" y="-303" on="0"/>
        <pt x="3639" y="-284" on="1"/>
        <pt x="3639" y="-276" on="0"/>
        <pt x="3642" y="-258" on="1"/>
        <pt x="3681" y="-235" on="0"/>
        <pt x="3715" y="-235" on="1"/>
        <pt x="3726" y="-235" on="0"/>
        <pt x="3765" y="-245" on="0"/>
        <pt x="3776" y="-245" on="1"/>
        <pt x="3942" y="-245" on="0"/>
        <pt x="4041" y="-203" on="1"/>
        <pt x="4131" y="-163" on="0"/>
        <pt x="4240" y="-36" on="1"/>
        <pt x="4342" y="83" on="0"/>
        <pt x="4386" y="188" on="1"/>
        <pt x="4371" y="205" on="1"/>
        <pt x="4362" y="179" on="0"/>
        <pt x="4324" y="161" on="1"/>
        <pt x="4290" y="143" on="0"/>
        <pt x="4258" y="143" on="1"/>
        <pt x="4203" y="143" on="0"/>
        <pt x="4158" y="206" on="1"/>
        <pt x="4120" y="260" on="0"/>
        <pt x="4120" y="302" on="1"/>
        <pt x="4120" y="360" on="0"/>
        <pt x="4156" y="452" on="1"/>
        <pt x="4203" y="573" on="0"/>
        <pt x="4273" y="573" on="1"/>
        <pt x="4314" y="573" on="0"/>
        <pt x="4377" y="489" on="1"/>
        <pt x="4468" y="367" on="0"/>
      </contour>
      <contour>
        <pt x="2276" y="1551" on="1"/>
        <pt x="2276" y="1504" on="0"/>
        <pt x="2189" y="1443" on="1"/>
        <pt x="2130" y="1406" on="0"/>
        <pt x="2070" y="1369" on="1"/>
        <pt x="1908" y="1262" on="0"/>
        <pt x="1821" y="1198" on="1"/>
        <pt x="1785" y="1220" on="0"/>
        <pt x="1785" y="1244" on="1"/>
        <pt x="1785" y="1291" on="0"/>
        <pt x="1867" y="1346" on="1"/>
        <pt x="1935" y="1385" on="0"/>
        <pt x="2003" y="1425" on="1"/>
        <pt x="2091" y="1485" on="0"/>
        <pt x="2262" y="1587" on="1"/>
        <pt x="2276" y="1572" on="0"/>
      </contour>
      <contour>
        <pt x="1641" y="1249" on="1"/>
        <pt x="1641" y="1188" on="0"/>
        <pt x="1600" y="1188" on="1"/>
        <pt x="1590" y="1188" on="0"/>
        <pt x="1506" y="1249" on="0"/>
        <pt x="1493" y="1249" on="1"/>
        <pt x="1485" y="1249" on="0"/>
        <pt x="1384" y="1163" on="1"/>
        <pt x="1270" y="1067" on="0"/>
        <pt x="1220" y="1037" on="1"/>
        <pt x="1159" y="1003" on="0"/>
        <pt x="1124" y="1004" on="1"/>
        <pt x="1079" y="1004" on="1"/>
        <pt x="1079" y="1041" on="1"/>
        <pt x="1159" y="1096" on="0"/>
        <pt x="1238" y="1152" on="1"/>
        <pt x="1342" y="1225" on="0"/>
        <pt x="1386" y="1285" on="1"/>
        <pt x="1347" y="1316" on="0"/>
        <pt x="1308" y="1349" on="1"/>
        <pt x="1273" y="1381" on="0"/>
        <pt x="1273" y="1413" on="1"/>
        <pt x="1273" y="1457" on="0"/>
        <pt x="1399" y="1597" on="0"/>
        <pt x="1442" y="1597" on="1"/>
        <pt x="1525" y="1597" on="0"/>
        <pt x="1525" y="1460" on="1"/>
        <pt x="1525" y="1438" on="0"/>
        <pt x="1523" y="1407" on="1"/>
        <pt x="1520" y="1381" on="0"/>
        <pt x="1521" y="1380" on="1"/>
        <pt x="1559" y="1343" on="0"/>
        <pt x="1596" y="1307" on="1"/>
        <pt x="1641" y="1262" on="0"/>
      </contour>
      <contour>
        <pt x="3526" y="348" on="1"/>
        <pt x="3526" y="235" on="0"/>
        <pt x="3150" y="107" on="1"/>
        <pt x="2833" y="0" on="0"/>
        <pt x="2738" y="0" on="1"/>
        <pt x="2726" y="0" on="0"/>
        <pt x="2519" y="-10" on="0"/>
        <pt x="2506" y="-10" on="1"/>
        <pt x="2161" y="-10" on="0"/>
        <pt x="2096" y="184" on="1"/>
        <pt x="2016" y="103" on="0"/>
        <pt x="1899" y="78" on="1"/>
        <pt x="1804" y="57" on="0"/>
        <pt x="1772" y="-9" on="1"/>
        <pt x="1647" y="2" on="0"/>
        <pt x="1512" y="54" on="1"/>
        <pt x="1503" y="57" on="0"/>
        <pt x="1478" y="86" on="1"/>
        <pt x="1456" y="112" on="0"/>
        <pt x="1442" y="112" on="1"/>
        <pt x="1422" y="112" on="0"/>
        <pt x="1355" y="75" on="1"/>
        <pt x="1284" y="35" on="0"/>
        <pt x="1275" y="13" on="1"/>
        <pt x="1181" y="-215" on="0"/>
        <pt x="1072" y="-316" on="1"/>
        <pt x="960" y="-420" on="0"/>
        <pt x="797" y="-420" on="1"/>
        <pt x="786" y="-420" on="0"/>
        <pt x="653" y="-409" on="0"/>
        <pt x="639" y="-409" on="1"/>
        <pt x="627" y="-409" on="0"/>
        <pt x="590" y="-392" on="1"/>
        <pt x="545" y="-371" on="0"/>
        <pt x="527" y="-367" on="1"/>
        <pt x="527" y="-329" on="1"/>
        <pt x="534" y="-327" on="0"/>
        <pt x="795" y="-327" on="0"/>
        <pt x="825" y="-315" on="1"/>
        <pt x="903" y="-284" on="0"/>
        <pt x="1010" y="-199" on="1"/>
        <pt x="1144" y="-92" on="0"/>
        <pt x="1171" y="-4" on="1"/>
        <pt x="1171" y="6" on="0"/>
        <pt x="1153" y="17" on="1"/>
        <pt x="1135" y="20" on="0"/>
        <pt x="1097" y="20" on="1"/>
        <pt x="1081" y="20" on="1"/>
        <pt x="964" y="20" on="0"/>
        <pt x="918" y="84" on="1"/>
        <pt x="905" y="103" on="0"/>
        <pt x="905" y="169" on="1"/>
        <pt x="905" y="226" on="0"/>
        <pt x="951" y="323" on="1"/>
        <pt x="1007" y="440" on="0"/>
        <pt x="1074" y="440" on="1"/>
        <pt x="1124" y="440" on="0"/>
        <pt x="1197" y="319" on="1"/>
        <pt x="1233" y="251" on="0"/>
        <pt x="1270" y="184" on="1"/>
        <pt x="1321" y="193" on="0"/>
        <pt x="1409" y="227" on="1"/>
        <pt x="1424" y="238" on="0"/>
        <pt x="1516" y="330" on="1"/>
        <pt x="1585" y="399" on="0"/>
        <pt x="1621" y="399" on="1"/>
        <pt x="1623" y="399" on="0"/>
        <pt x="1805" y="225" on="0"/>
        <pt x="1887" y="225" on="1"/>
        <pt x="1958" y="225" on="0"/>
        <pt x="2034" y="268" on="1"/>
        <pt x="2072" y="290" on="0"/>
        <pt x="2072" y="338" on="1"/>
        <pt x="1980" y="988" on="1"/>
        <pt x="1986" y="1022" on="0"/>
        <pt x="1994" y="1057" on="1"/>
        <pt x="2008" y="1108" on="0"/>
        <pt x="2047" y="1126" on="1"/>
        <pt x="2054" y="1119" on="0"/>
        <pt x="2067" y="1102" on="1"/>
        <pt x="2080" y="972" on="0"/>
        <pt x="2105" y="743" on="1"/>
        <pt x="2132" y="646" on="0"/>
        <pt x="2160" y="455" on="1"/>
        <pt x="2162" y="250" on="0"/>
        <pt x="2297" y="188" on="1"/>
        <pt x="2370" y="153" on="0"/>
        <pt x="2568" y="153" on="1"/>
        <pt x="2703" y="153" on="0"/>
        <pt x="2724" y="155" on="1"/>
        <pt x="2820" y="163" on="0"/>
        <pt x="2891" y="201" on="1"/>
        <pt x="2840" y="298" on="0"/>
        <pt x="2840" y="333" on="1"/>
        <pt x="2840" y="346" on="0"/>
        <pt x="2858" y="383" on="1"/>
        <pt x="2882" y="431" on="0"/>
        <pt x="2887" y="447" on="1"/>
        <pt x="2914" y="521" on="0"/>
        <pt x="2955" y="582" on="1"/>
        <pt x="2975" y="609" on="0"/>
        <pt x="3118" y="696" on="0"/>
        <pt x="3147" y="696" on="1"/>
        <pt x="3245" y="696" on="0"/>
        <pt x="3372" y="570" on="1"/>
        <pt x="3372" y="532" on="0"/>
        <pt x="3341" y="532" on="1"/>
        <pt x="3328" y="532" on="0"/>
        <pt x="3257" y="573" on="0"/>
        <pt x="3244" y="573" on="1"/>
        <pt x="3196" y="573" on="0"/>
        <pt x="3095" y="528" on="1"/>
        <pt x="2973" y="473" on="0"/>
        <pt x="2973" y="415" on="1"/>
        <pt x="2973" y="366" on="0"/>
        <pt x="3033" y="305" on="1"/>
        <pt x="3091" y="246" on="0"/>
        <pt x="3127" y="246" on="1"/>
        <pt x="3137" y="246" on="0"/>
        <pt x="3283" y="303" on="1"/>
        <pt x="3295" y="307" on="0"/>
        <pt x="3381" y="348" on="1"/>
        <pt x="3445" y="378" on="0"/>
        <pt x="3460" y="378" on="1"/>
        <pt x="3512" y="378" on="1"/>
        <pt x="3526" y="365" on="0"/>
      </contour>
      <contour>
        <pt x="1170" y="1405" on="1"/>
        <pt x="1156" y="1312" on="0"/>
        <pt x="962" y="1221" on="1"/>
        <pt x="951" y="1218" on="0"/>
        <pt x="920" y="1218" on="1"/>
        <pt x="910" y="1218" on="0"/>
        <pt x="770" y="1239" on="0"/>
        <pt x="756" y="1239" on="1"/>
        <pt x="744" y="1239" on="0"/>
        <pt x="712" y="1211" on="1"/>
        <pt x="662" y="1167" on="0"/>
        <pt x="650" y="1158" on="1"/>
        <pt x="650" y="1222" on="1"/>
        <pt x="649" y="1248" on="0"/>
        <pt x="748" y="1362" on="0"/>
        <pt x="767" y="1362" on="1"/>
        <pt x="779" y="1362" on="0"/>
        <pt x="917" y="1331" on="0"/>
        <pt x="930" y="1331" on="1"/>
        <pt x="972" y="1331" on="0"/>
        <pt x="1063" y="1372" on="1"/>
        <pt x="1105" y="1393" on="0"/>
        <pt x="1147" y="1414" on="1"/>
      </contour>
      <contour>
        <pt x="598" y="1428" on="1"/>
        <pt x="598" y="1366" on="0"/>
        <pt x="554" y="1306" on="1"/>
        <pt x="505" y="1239" on="0"/>
        <pt x="439" y="1239" on="1"/>
        <pt x="352" y="1239" on="0"/>
        <pt x="352" y="1325" on="1"/>
        <pt x="352" y="1368" on="0"/>
        <pt x="398" y="1450" on="1"/>
        <pt x="453" y="1546" on="0"/>
        <pt x="510" y="1546" on="1"/>
        <pt x="549" y="1546" on="0"/>
        <pt x="577" y="1491" on="1"/>
        <pt x="598" y="1451" on="0"/>
      </contour>
      <contour>
        <pt x="598" y="241" on="1"/>
        <pt x="598" y="234" on="0"/>
        <pt x="565" y="103" on="1"/>
        <pt x="559" y="103" on="0"/>
        <pt x="522" y="93" on="0"/>
        <pt x="517" y="93" on="1"/>
        <pt x="413" y="972" on="1"/>
        <pt x="413" y="1031" on="0"/>
        <pt x="430" y="1090" on="1"/>
        <pt x="453" y="1168" on="0"/>
        <pt x="493" y="1176" on="1"/>
      </contour>
      <contour>
        <pt x="3797" y="1469" on="1"/>
        <pt x="3801" y="1475" on="0"/>
        <pt x="3789" y="1494" on="1"/>
        <pt x="3735" y="1468" on="0"/>
        <pt x="3727" y="1434" on="1"/>
        <pt x="3754" y="1444" on="0"/>
      </contour>
      <contour>
        <pt x="4314" y="330" on="1"/>
        <pt x="4315" y="347" on="0"/>
        <pt x="4271" y="400" on="0"/>
        <pt x="4246" y="410" on="1"/>
        <pt x="4242" y="404" on="0"/>
        <pt x="4217" y="369" on="0"/>
        <pt x="4211" y="365" on="1"/>
        <pt x="4240" y="307" on="0"/>
        <pt x="4273" y="307" on="1"/>
        <pt x="4290" y="307" on="0"/>
      </contour>
      <contour>
        <pt x="1444" y="1403" on="1"/>
        <pt x="1444" y="1415" on="0"/>
        <pt x="1436" y="1458" on="0"/>
        <pt x="1436" y="1463" on="1"/>
        <pt x="1398" y="1463" on="1"/>
        <pt x="1386" y="1439" on="1"/>
        <pt x="1386" y="1423" on="0"/>
        <pt x="1411" y="1415" on="1"/>
        <pt x="1442" y="1405" on="0"/>
      </contour>
      <contour>
        <pt x="504" y="1422" on="1"/>
        <pt x="457" y="1422" on="1"/>
        <pt x="423" y="1389" on="0"/>
        <pt x="423" y="1377" on="1"/>
        <pt x="423" y="1342" on="0"/>
        <pt x="493" y="1342" on="1"/>
        <pt x="516" y="1382" on="0"/>
      </contour>
      <contour>
        <pt x="1631" y="206" on="1"/>
        <pt x="1605" y="262" on="0"/>
        <pt x="1575" y="276" on="1"/>
        <pt x="1550" y="264" on="1"/>
        <pt x="1550" y="229" on="1"/>
        <pt x="1562" y="222" on="0"/>
        <pt x="1583" y="206" on="1"/>
      </contour>
      <contour>
        <pt x="1109" y="186" on="1"/>
        <pt x="1071" y="264" on="0"/>
        <pt x="1029" y="265" on="1"/>
        <pt x="1019" y="206" on="1"/>
        <pt x="1028" y="206" on="0"/>
        <pt x="1051" y="186" on="1"/>
      </contour>
    </TTGlyph>
    <TTGlyph name="uni2011" xMin="352" yMin="-420" xMax="4468" yMax="1618">
      <contour>
        <pt x="4344" y="1529" on="1"/>
        <pt x="4345" y="1501" on="0"/>
        <pt x="4248" y="1438" on="1"/>
        <pt x="4198" y="1408" on="0"/>
        <pt x="4148" y="1379" on="1"/>
        <pt x="4070" y="1325" on="0"/>
        <pt x="3911" y="1219" on="1"/>
        <pt x="3876" y="1219" on="1"/>
        <pt x="3863" y="1232" on="0"/>
        <pt x="3863" y="1259" on="1"/>
        <pt x="3863" y="1304" on="0"/>
        <pt x="4071" y="1435" on="1"/>
        <pt x="4189" y="1505" on="0"/>
        <pt x="4307" y="1575" on="1"/>
        <pt x="4344" y="1575" on="1"/>
      </contour>
      <contour>
        <pt x="3893" y="1565" on="1"/>
        <pt x="3897" y="1520" on="0"/>
        <pt x="3890" y="1498" on="1"/>
        <pt x="3863" y="1416" on="0"/>
        <pt x="3821" y="1375" on="1"/>
        <pt x="3798" y="1353" on="0"/>
        <pt x="3721" y="1325" on="1"/>
        <pt x="3651" y="1300" on="0"/>
        <pt x="3628" y="1300" on="1"/>
        <pt x="3617" y="1300" on="0"/>
        <pt x="3578" y="1311" on="0"/>
        <pt x="3567" y="1311" on="1"/>
        <pt x="3508" y="1311" on="0"/>
        <pt x="3472" y="1250" on="1"/>
        <pt x="3434" y="1250" on="1"/>
        <pt x="3434" y="1294" on="1"/>
        <pt x="3433" y="1335" on="0"/>
        <pt x="3538" y="1418" on="1"/>
        <pt x="3564" y="1421" on="0"/>
        <pt x="3621" y="1435" on="1"/>
        <pt x="3635" y="1440" on="0"/>
        <pt x="3645" y="1461" on="1"/>
        <pt x="3659" y="1488" on="0"/>
        <pt x="3662" y="1493" on="1"/>
        <pt x="3702" y="1538" on="0"/>
        <pt x="3741" y="1583" on="1"/>
        <pt x="3776" y="1618" on="0"/>
        <pt x="3817" y="1618" on="1"/>
        <pt x="3838" y="1618" on="0"/>
      </contour>
      <contour>
        <pt x="3802" y="261" on="1"/>
        <pt x="3802" y="197" on="0"/>
        <pt x="3759" y="93" on="1"/>
        <pt x="3721" y="93" on="1"/>
        <pt x="3577" y="1116" on="1"/>
        <pt x="3589" y="1180" on="0"/>
        <pt x="3641" y="1248" on="1"/>
        <pt x="3661" y="1248" on="0"/>
        <pt x="3675" y="1225" on="1"/>
        <pt x="3680" y="1029" on="0"/>
        <pt x="3703" y="886" on="1"/>
      </contour>
      <contour>
        <pt x="3269" y="1303" on="1"/>
        <pt x="3226" y="1255" on="0"/>
        <pt x="3079" y="1187" on="1"/>
        <pt x="2946" y="1126" on="0"/>
        <pt x="2916" y="1126" on="1"/>
        <pt x="2878" y="1126" on="0"/>
        <pt x="2860" y="1163" on="1"/>
        <pt x="2917" y="1199" on="0"/>
        <pt x="3034" y="1276" on="1"/>
        <pt x="3025" y="1300" on="0"/>
        <pt x="2988" y="1300" on="1"/>
        <pt x="2974" y="1300" on="0"/>
        <pt x="2926" y="1279" on="1"/>
        <pt x="2869" y="1255" on="0"/>
        <pt x="2851" y="1250" on="1"/>
        <pt x="2851" y="1284" on="1"/>
        <pt x="2851" y="1334" on="0"/>
        <pt x="2934" y="1377" on="1"/>
        <pt x="3004" y="1413" on="0"/>
        <pt x="3045" y="1413" on="1"/>
        <pt x="3082" y="1413" on="0"/>
        <pt x="3269" y="1360" on="1"/>
      </contour>
      <contour>
        <pt x="4468" y="271" on="1"/>
        <pt x="4468" y="111" on="0"/>
        <pt x="4342" y="-95" on="1"/>
        <pt x="4196" y="-338" on="0"/>
        <pt x="4012" y="-338" on="1"/>
        <pt x="3970" y="-338" on="0"/>
        <pt x="3838" y="-321" on="1"/>
        <pt x="3680" y="-303" on="0"/>
        <pt x="3639" y="-284" on="1"/>
        <pt x="3639" y="-276" on="0"/>
        <pt x="3642" y="-258" on="1"/>
        <pt x="3681" y="-235" on="0"/>
        <pt x="3715" y="-235" on="1"/>
        <pt x="3726" y="-235" on="0"/>
        <pt x="3765" y="-245" on="0"/>
        <pt x="3776" y="-245" on="1"/>
        <pt x="3942" y="-245" on="0"/>
        <pt x="4041" y="-203" on="1"/>
        <pt x="4131" y="-163" on="0"/>
        <pt x="4240" y="-36" on="1"/>
        <pt x="4342" y="83" on="0"/>
        <pt x="4386" y="188" on="1"/>
        <pt x="4371" y="205" on="1"/>
        <pt x="4362" y="179" on="0"/>
        <pt x="4324" y="161" on="1"/>
        <pt x="4290" y="143" on="0"/>
        <pt x="4258" y="143" on="1"/>
        <pt x="4203" y="143" on="0"/>
        <pt x="4158" y="206" on="1"/>
        <pt x="4120" y="260" on="0"/>
        <pt x="4120" y="302" on="1"/>
        <pt x="4120" y="360" on="0"/>
        <pt x="4156" y="452" on="1"/>
        <pt x="4203" y="573" on="0"/>
        <pt x="4273" y="573" on="1"/>
        <pt x="4314" y="573" on="0"/>
        <pt x="4377" y="489" on="1"/>
        <pt x="4468" y="367" on="0"/>
      </contour>
      <contour>
        <pt x="2276" y="1551" on="1"/>
        <pt x="2276" y="1504" on="0"/>
        <pt x="2189" y="1443" on="1"/>
        <pt x="2130" y="1406" on="0"/>
        <pt x="2070" y="1369" on="1"/>
        <pt x="1908" y="1262" on="0"/>
        <pt x="1821" y="1198" on="1"/>
        <pt x="1785" y="1220" on="0"/>
        <pt x="1785" y="1244" on="1"/>
        <pt x="1785" y="1291" on="0"/>
        <pt x="1867" y="1346" on="1"/>
        <pt x="1935" y="1385" on="0"/>
        <pt x="2003" y="1425" on="1"/>
        <pt x="2091" y="1485" on="0"/>
        <pt x="2262" y="1587" on="1"/>
        <pt x="2276" y="1572" on="0"/>
      </contour>
      <contour>
        <pt x="1641" y="1249" on="1"/>
        <pt x="1641" y="1188" on="0"/>
        <pt x="1600" y="1188" on="1"/>
        <pt x="1590" y="1188" on="0"/>
        <pt x="1506" y="1249" on="0"/>
        <pt x="1493" y="1249" on="1"/>
        <pt x="1485" y="1249" on="0"/>
        <pt x="1384" y="1163" on="1"/>
        <pt x="1270" y="1067" on="0"/>
        <pt x="1220" y="1037" on="1"/>
        <pt x="1159" y="1003" on="0"/>
        <pt x="1124" y="1004" on="1"/>
        <pt x="1079" y="1004" on="1"/>
        <pt x="1079" y="1041" on="1"/>
        <pt x="1159" y="1096" on="0"/>
        <pt x="1238" y="1152" on="1"/>
        <pt x="1342" y="1225" on="0"/>
        <pt x="1386" y="1285" on="1"/>
        <pt x="1347" y="1316" on="0"/>
        <pt x="1308" y="1349" on="1"/>
        <pt x="1273" y="1381" on="0"/>
        <pt x="1273" y="1413" on="1"/>
        <pt x="1273" y="1457" on="0"/>
        <pt x="1399" y="1597" on="0"/>
        <pt x="1442" y="1597" on="1"/>
        <pt x="1525" y="1597" on="0"/>
        <pt x="1525" y="1460" on="1"/>
        <pt x="1525" y="1438" on="0"/>
        <pt x="1523" y="1407" on="1"/>
        <pt x="1520" y="1381" on="0"/>
        <pt x="1521" y="1380" on="1"/>
        <pt x="1559" y="1343" on="0"/>
        <pt x="1596" y="1307" on="1"/>
        <pt x="1641" y="1262" on="0"/>
      </contour>
      <contour>
        <pt x="3526" y="348" on="1"/>
        <pt x="3526" y="235" on="0"/>
        <pt x="3150" y="107" on="1"/>
        <pt x="2833" y="0" on="0"/>
        <pt x="2738" y="0" on="1"/>
        <pt x="2726" y="0" on="0"/>
        <pt x="2519" y="-10" on="0"/>
        <pt x="2506" y="-10" on="1"/>
        <pt x="2161" y="-10" on="0"/>
        <pt x="2096" y="184" on="1"/>
        <pt x="2016" y="103" on="0"/>
        <pt x="1899" y="78" on="1"/>
        <pt x="1804" y="57" on="0"/>
        <pt x="1772" y="-9" on="1"/>
        <pt x="1647" y="2" on="0"/>
        <pt x="1512" y="54" on="1"/>
        <pt x="1503" y="57" on="0"/>
        <pt x="1478" y="86" on="1"/>
        <pt x="1456" y="112" on="0"/>
        <pt x="1442" y="112" on="1"/>
        <pt x="1422" y="112" on="0"/>
        <pt x="1355" y="75" on="1"/>
        <pt x="1284" y="35" on="0"/>
        <pt x="1275" y="13" on="1"/>
        <pt x="1181" y="-215" on="0"/>
        <pt x="1072" y="-316" on="1"/>
        <pt x="960" y="-420" on="0"/>
        <pt x="797" y="-420" on="1"/>
        <pt x="786" y="-420" on="0"/>
        <pt x="653" y="-409" on="0"/>
        <pt x="639" y="-409" on="1"/>
        <pt x="627" y="-409" on="0"/>
        <pt x="590" y="-392" on="1"/>
        <pt x="545" y="-371" on="0"/>
        <pt x="527" y="-367" on="1"/>
        <pt x="527" y="-329" on="1"/>
        <pt x="534" y="-327" on="0"/>
        <pt x="795" y="-327" on="0"/>
        <pt x="825" y="-315" on="1"/>
        <pt x="903" y="-284" on="0"/>
        <pt x="1010" y="-199" on="1"/>
        <pt x="1144" y="-92" on="0"/>
        <pt x="1171" y="-4" on="1"/>
        <pt x="1171" y="6" on="0"/>
        <pt x="1153" y="17" on="1"/>
        <pt x="1135" y="20" on="0"/>
        <pt x="1097" y="20" on="1"/>
        <pt x="1081" y="20" on="1"/>
        <pt x="964" y="20" on="0"/>
        <pt x="918" y="84" on="1"/>
        <pt x="905" y="103" on="0"/>
        <pt x="905" y="169" on="1"/>
        <pt x="905" y="226" on="0"/>
        <pt x="951" y="323" on="1"/>
        <pt x="1007" y="440" on="0"/>
        <pt x="1074" y="440" on="1"/>
        <pt x="1124" y="440" on="0"/>
        <pt x="1197" y="319" on="1"/>
        <pt x="1233" y="251" on="0"/>
        <pt x="1270" y="184" on="1"/>
        <pt x="1321" y="193" on="0"/>
        <pt x="1409" y="227" on="1"/>
        <pt x="1424" y="238" on="0"/>
        <pt x="1516" y="330" on="1"/>
        <pt x="1585" y="399" on="0"/>
        <pt x="1621" y="399" on="1"/>
        <pt x="1623" y="399" on="0"/>
        <pt x="1805" y="225" on="0"/>
        <pt x="1887" y="225" on="1"/>
        <pt x="1958" y="225" on="0"/>
        <pt x="2034" y="268" on="1"/>
        <pt x="2072" y="290" on="0"/>
        <pt x="2072" y="338" on="1"/>
        <pt x="1980" y="988" on="1"/>
        <pt x="1986" y="1022" on="0"/>
        <pt x="1994" y="1057" on="1"/>
        <pt x="2008" y="1108" on="0"/>
        <pt x="2047" y="1126" on="1"/>
        <pt x="2054" y="1119" on="0"/>
        <pt x="2067" y="1102" on="1"/>
        <pt x="2080" y="972" on="0"/>
        <pt x="2105" y="743" on="1"/>
        <pt x="2132" y="646" on="0"/>
        <pt x="2160" y="455" on="1"/>
        <pt x="2162" y="250" on="0"/>
        <pt x="2297" y="188" on="1"/>
        <pt x="2370" y="153" on="0"/>
        <pt x="2568" y="153" on="1"/>
        <pt x="2703" y="153" on="0"/>
        <pt x="2724" y="155" on="1"/>
        <pt x="2820" y="163" on="0"/>
        <pt x="2891" y="201" on="1"/>
        <pt x="2840" y="298" on="0"/>
        <pt x="2840" y="333" on="1"/>
        <pt x="2840" y="346" on="0"/>
        <pt x="2858" y="383" on="1"/>
        <pt x="2882" y="431" on="0"/>
        <pt x="2887" y="447" on="1"/>
        <pt x="2914" y="521" on="0"/>
        <pt x="2955" y="582" on="1"/>
        <pt x="2975" y="609" on="0"/>
        <pt x="3118" y="696" on="0"/>
        <pt x="3147" y="696" on="1"/>
        <pt x="3245" y="696" on="0"/>
        <pt x="3372" y="570" on="1"/>
        <pt x="3372" y="532" on="0"/>
        <pt x="3341" y="532" on="1"/>
        <pt x="3328" y="532" on="0"/>
        <pt x="3257" y="573" on="0"/>
        <pt x="3244" y="573" on="1"/>
        <pt x="3196" y="573" on="0"/>
        <pt x="3095" y="528" on="1"/>
        <pt x="2973" y="473" on="0"/>
        <pt x="2973" y="415" on="1"/>
        <pt x="2973" y="366" on="0"/>
        <pt x="3033" y="305" on="1"/>
        <pt x="3091" y="246" on="0"/>
        <pt x="3127" y="246" on="1"/>
        <pt x="3137" y="246" on="0"/>
        <pt x="3283" y="303" on="1"/>
        <pt x="3295" y="307" on="0"/>
        <pt x="3381" y="348" on="1"/>
        <pt x="3445" y="378" on="0"/>
        <pt x="3460" y="378" on="1"/>
        <pt x="3512" y="378" on="1"/>
        <pt x="3526" y="365" on="0"/>
      </contour>
      <contour>
        <pt x="1170" y="1405" on="1"/>
        <pt x="1156" y="1312" on="0"/>
        <pt x="962" y="1221" on="1"/>
        <pt x="951" y="1218" on="0"/>
        <pt x="920" y="1218" on="1"/>
        <pt x="910" y="1218" on="0"/>
        <pt x="770" y="1239" on="0"/>
        <pt x="756" y="1239" on="1"/>
        <pt x="744" y="1239" on="0"/>
        <pt x="712" y="1211" on="1"/>
        <pt x="662" y="1167" on="0"/>
        <pt x="650" y="1158" on="1"/>
        <pt x="650" y="1222" on="1"/>
        <pt x="649" y="1248" on="0"/>
        <pt x="748" y="1362" on="0"/>
        <pt x="767" y="1362" on="1"/>
        <pt x="779" y="1362" on="0"/>
        <pt x="917" y="1331" on="0"/>
        <pt x="930" y="1331" on="1"/>
        <pt x="972" y="1331" on="0"/>
        <pt x="1063" y="1372" on="1"/>
        <pt x="1105" y="1393" on="0"/>
        <pt x="1147" y="1414" on="1"/>
      </contour>
      <contour>
        <pt x="598" y="1428" on="1"/>
        <pt x="598" y="1366" on="0"/>
        <pt x="554" y="1306" on="1"/>
        <pt x="505" y="1239" on="0"/>
        <pt x="439" y="1239" on="1"/>
        <pt x="352" y="1239" on="0"/>
        <pt x="352" y="1325" on="1"/>
        <pt x="352" y="1368" on="0"/>
        <pt x="398" y="1450" on="1"/>
        <pt x="453" y="1546" on="0"/>
        <pt x="510" y="1546" on="1"/>
        <pt x="549" y="1546" on="0"/>
        <pt x="577" y="1491" on="1"/>
        <pt x="598" y="1451" on="0"/>
      </contour>
      <contour>
        <pt x="598" y="241" on="1"/>
        <pt x="598" y="234" on="0"/>
        <pt x="565" y="103" on="1"/>
        <pt x="559" y="103" on="0"/>
        <pt x="522" y="93" on="0"/>
        <pt x="517" y="93" on="1"/>
        <pt x="413" y="972" on="1"/>
        <pt x="413" y="1031" on="0"/>
        <pt x="430" y="1090" on="1"/>
        <pt x="453" y="1168" on="0"/>
        <pt x="493" y="1176" on="1"/>
      </contour>
      <contour>
        <pt x="3797" y="1469" on="1"/>
        <pt x="3801" y="1475" on="0"/>
        <pt x="3789" y="1494" on="1"/>
        <pt x="3735" y="1468" on="0"/>
        <pt x="3727" y="1434" on="1"/>
        <pt x="3754" y="1444" on="0"/>
      </contour>
      <contour>
        <pt x="4314" y="330" on="1"/>
        <pt x="4315" y="347" on="0"/>
        <pt x="4271" y="400" on="0"/>
        <pt x="4246" y="410" on="1"/>
        <pt x="4242" y="404" on="0"/>
        <pt x="4217" y="369" on="0"/>
        <pt x="4211" y="365" on="1"/>
        <pt x="4240" y="307" on="0"/>
        <pt x="4273" y="307" on="1"/>
        <pt x="4290" y="307" on="0"/>
      </contour>
      <contour>
        <pt x="1444" y="1403" on="1"/>
        <pt x="1444" y="1415" on="0"/>
        <pt x="1436" y="1458" on="0"/>
        <pt x="1436" y="1463" on="1"/>
        <pt x="1398" y="1463" on="1"/>
        <pt x="1386" y="1439" on="1"/>
        <pt x="1386" y="1423" on="0"/>
        <pt x="1411" y="1415" on="1"/>
        <pt x="1442" y="1405" on="0"/>
      </contour>
      <contour>
        <pt x="504" y="1422" on="1"/>
        <pt x="457" y="1422" on="1"/>
        <pt x="423" y="1389" on="0"/>
        <pt x="423" y="1377" on="1"/>
        <pt x="423" y="1342" on="0"/>
        <pt x="493" y="1342" on="1"/>
        <pt x="516" y="1382" on="0"/>
      </contour>
      <contour>
        <pt x="1631" y="206" on="1"/>
        <pt x="1605" y="262" on="0"/>
        <pt x="1575" y="276" on="1"/>
        <pt x="1550" y="264" on="1"/>
        <pt x="1550" y="229" on="1"/>
        <pt x="1562" y="222" on="0"/>
        <pt x="1583" y="206" on="1"/>
      </contour>
      <contour>
        <pt x="1109" y="186" on="1"/>
        <pt x="1071" y="264" on="0"/>
        <pt x="1029" y="265" on="1"/>
        <pt x="1019" y="206" on="1"/>
        <pt x="1028" y="206" on="0"/>
        <pt x="1051" y="186" on="1"/>
      </contour>
    </TTGlyph>
    <TTGlyph name="uniE000" xMin="0" yMin="0" xMax="1715" yMax="1715">
      <contour>
        <pt x="0" y="1715" on="1"/>
        <pt x="1715" y="1715" on="1"/>
        <pt x="1715" y="0" on="1"/>
        <pt x="0" y="0" on="1"/>
      </contour>
    </TTGlyph>
    <TTGlyph name="uniFB51" xMin="345" yMin="-424" xMax="3027" yMax="1735">
      <contour>
        <pt x="2945" y="1330" on="1"/>
        <pt x="2889" y="1275" on="0"/>
        <pt x="2755" y="1202" on="1"/>
        <pt x="2644" y="1142" on="0"/>
        <pt x="2532" y="1082" on="1"/>
        <pt x="2486" y="1082" on="1"/>
        <pt x="2486" y="1126" on="1"/>
        <pt x="2485" y="1193" on="0"/>
        <pt x="2933" y="1388" on="1"/>
      </contour>
      <contour>
        <pt x="2055" y="1706" on="1"/>
        <pt x="2055" y="1665" on="0"/>
        <pt x="1972" y="1617" on="1"/>
        <pt x="1925" y="1593" on="0"/>
        <pt x="1878" y="1570" on="1"/>
        <pt x="1801" y="1525" on="0"/>
        <pt x="1608" y="1439" on="1"/>
        <pt x="1594" y="1454" on="0"/>
        <pt x="1594" y="1480" on="1"/>
        <pt x="1594" y="1531" on="0"/>
        <pt x="1628" y="1547" on="1"/>
        <pt x="1756" y="1611" on="0"/>
        <pt x="2007" y="1735" on="1"/>
        <pt x="2043" y="1735" on="1"/>
        <pt x="2043" y="1732" on="0"/>
        <pt x="2055" y="1720" on="0"/>
      </contour>
      <contour>
        <pt x="2690" y="912" on="1"/>
        <pt x="2649" y="829" on="0"/>
        <pt x="2574" y="787" on="1"/>
        <pt x="2527" y="762" on="0"/>
        <pt x="2447" y="736" on="1"/>
        <pt x="2374" y="713" on="0"/>
        <pt x="2352" y="713" on="1"/>
        <pt x="2341" y="713" on="0"/>
        <pt x="2227" y="733" on="0"/>
        <pt x="2214" y="733" on="1"/>
        <pt x="2200" y="733" on="0"/>
        <pt x="2173" y="711" on="1"/>
        <pt x="2133" y="679" on="0"/>
        <pt x="2121" y="672" on="1"/>
        <pt x="2106" y="686" on="0"/>
        <pt x="2106" y="707" on="1"/>
        <pt x="2106" y="744" on="0"/>
        <pt x="2192" y="856" on="0"/>
        <pt x="2219" y="856" on="1"/>
        <pt x="2232" y="856" on="0"/>
        <pt x="2344" y="836" on="0"/>
        <pt x="2357" y="836" on="1"/>
        <pt x="2524" y="836" on="0"/>
        <pt x="2676" y="958" on="1"/>
      </contour>
      <contour>
        <pt x="2915" y="251" on="1"/>
        <pt x="2915" y="213" on="0"/>
        <pt x="2898" y="155" on="1"/>
        <pt x="2878" y="83" on="0"/>
        <pt x="2850" y="70" on="1"/>
        <pt x="2771" y="36" on="0"/>
        <pt x="2634" y="23" on="1"/>
        <pt x="2361" y="-4" on="0"/>
        <pt x="2250" y="-4" on="1"/>
        <pt x="2058" y="-4" on="0"/>
        <pt x="1986" y="40" on="1"/>
        <pt x="1910" y="86" on="0"/>
        <pt x="1897" y="236" on="1"/>
        <pt x="1866" y="592" on="0"/>
        <pt x="1811" y="983" on="1"/>
        <pt x="1805" y="1034" on="0"/>
        <pt x="1820" y="1094" on="1"/>
        <pt x="1794" y="1109" on="0"/>
        <pt x="1741" y="1091" on="1"/>
        <pt x="1734" y="1098" on="0"/>
        <pt x="1720" y="1114" on="1"/>
        <pt x="1716" y="1125" on="0"/>
        <pt x="1738" y="1167" on="1"/>
        <pt x="1712" y="1187" on="0"/>
        <pt x="1666" y="1226" on="1"/>
        <pt x="1677" y="1285" on="0"/>
        <pt x="1809" y="1419" on="0"/>
        <pt x="1855" y="1419" on="1"/>
        <pt x="1881" y="1419" on="0"/>
        <pt x="1915" y="1396" on="1"/>
        <pt x="1952" y="1371" on="0"/>
        <pt x="1952" y="1342" on="1"/>
        <pt x="1952" y="1317" on="0"/>
        <pt x="1919" y="1275" on="0"/>
        <pt x="1896" y="1275" on="1"/>
        <pt x="1882" y="1275" on="0"/>
        <pt x="1852" y="1292" on="1"/>
        <pt x="1816" y="1313" on="0"/>
        <pt x="1805" y="1316" on="1"/>
        <pt x="1788" y="1300" on="1"/>
        <pt x="1814" y="1266" on="0"/>
        <pt x="1865" y="1266" on="1"/>
        <pt x="1878" y="1266" on="0"/>
        <pt x="1883" y="1245" on="0"/>
        <pt x="1896" y="1245" on="1"/>
        <pt x="1899" y="1245" on="0"/>
        <pt x="2014" y="1253" on="0"/>
        <pt x="2074" y="1253" on="1"/>
        <pt x="2060" y="1212" on="0"/>
        <pt x="2002" y="1183" on="1"/>
        <pt x="1913" y="1138" on="0"/>
        <pt x="1910" y="1136" on="1"/>
        <pt x="1910" y="1056" on="0"/>
        <pt x="1924" y="964" on="1"/>
        <pt x="1945" y="795" on="0"/>
        <pt x="1979" y="523" on="1"/>
        <pt x="1980" y="471" on="0"/>
        <pt x="1983" y="367" on="1"/>
        <pt x="1987" y="225" on="0"/>
        <pt x="2073" y="171" on="1"/>
        <pt x="2124" y="139" on="0"/>
        <pt x="2321" y="139" on="1"/>
        <pt x="2327" y="139" on="0"/>
        <pt x="2496" y="159" on="1"/>
        <pt x="2672" y="180" on="0"/>
        <pt x="2735" y="183" on="1"/>
        <pt x="2767" y="184" on="0"/>
        <pt x="2812" y="216" on="1"/>
        <pt x="2803" y="247" on="0"/>
        <pt x="2764" y="319" on="1"/>
        <pt x="2731" y="382" on="0"/>
        <pt x="2731" y="395" on="1"/>
        <pt x="2731" y="410" on="0"/>
        <pt x="2763" y="476" on="1"/>
        <pt x="2809" y="476" on="1"/>
        <pt x="2915" y="359" on="0"/>
      </contour>
      <contour>
        <pt x="2485" y="492" on="1"/>
        <pt x="2485" y="423" on="0"/>
        <pt x="2441" y="293" on="1"/>
        <pt x="2436" y="293" on="0"/>
        <pt x="2410" y="283" on="0"/>
        <pt x="2404" y="283" on="1"/>
        <pt x="2406" y="333" on="0"/>
        <pt x="2399" y="430" on="1"/>
        <pt x="2394" y="458" on="0"/>
        <pt x="2361" y="523" on="1"/>
        <pt x="2332" y="582" on="0"/>
        <pt x="2332" y="595" on="1"/>
        <pt x="2332" y="633" on="0"/>
        <pt x="2376" y="671" on="1"/>
        <pt x="2411" y="667" on="0"/>
        <pt x="2450" y="594" on="1"/>
        <pt x="2485" y="528" on="0"/>
      </contour>
      <contour>
        <pt x="1420" y="1419" on="1"/>
        <pt x="1420" y="1382" on="0"/>
        <pt x="1385" y="1348" on="1"/>
        <pt x="1373" y="1352" on="0"/>
        <pt x="1331" y="1377" on="1"/>
        <pt x="1296" y="1398" on="0"/>
        <pt x="1281" y="1398" on="1"/>
        <pt x="1268" y="1398" on="0"/>
        <pt x="1161" y="1312" on="1"/>
        <pt x="1030" y="1208" on="0"/>
        <pt x="976" y="1173" on="1"/>
        <pt x="918" y="1187" on="1"/>
        <pt x="954" y="1228" on="0"/>
        <pt x="1079" y="1337" on="1"/>
        <pt x="1185" y="1428" on="0"/>
        <pt x="1185" y="1439" on="1"/>
        <pt x="1185" y="1448" on="0"/>
        <pt x="1133" y="1515" on="0"/>
        <pt x="1133" y="1531" on="1"/>
        <pt x="1133" y="1613" on="0"/>
        <pt x="1158" y="1642" on="1"/>
        <pt x="1180" y="1670" on="0"/>
        <pt x="1267" y="1726" on="0"/>
        <pt x="1287" y="1726" on="1"/>
        <pt x="1365" y="1726" on="0"/>
        <pt x="1365" y="1631" on="1"/>
        <pt x="1365" y="1602" on="0"/>
        <pt x="1357" y="1554" on="1"/>
        <pt x="1349" y="1512" on="0"/>
        <pt x="1350" y="1508" on="1"/>
        <pt x="1420" y="1432" on="0"/>
      </contour>
      <contour>
        <pt x="3027" y="-229" on="1"/>
        <pt x="3027" y="-253" on="0"/>
        <pt x="2942" y="-331" on="0"/>
        <pt x="2925" y="-331" on="1"/>
        <pt x="2913" y="-331" on="0"/>
        <pt x="2839" y="-280" on="0"/>
        <pt x="2828" y="-280" on="1"/>
        <pt x="2817" y="-280" on="0"/>
        <pt x="2742" y="-352" on="0"/>
        <pt x="2731" y="-352" on="1"/>
        <pt x="2715" y="-352" on="0"/>
        <pt x="2681" y="-328" on="1"/>
        <pt x="2655" y="-309" on="0"/>
        <pt x="2629" y="-289" on="1"/>
        <pt x="2627" y="-284" on="0"/>
        <pt x="2627" y="-277" on="1"/>
        <pt x="2627" y="-241" on="0"/>
        <pt x="2703" y="-167" on="0"/>
        <pt x="2731" y="-167" on="1"/>
        <pt x="2741" y="-167" on="0"/>
        <pt x="2803" y="-199" on="0"/>
        <pt x="2817" y="-199" on="1"/>
        <pt x="2830" y="-199" on="0"/>
        <pt x="2912" y="-137" on="0"/>
        <pt x="2925" y="-137" on="1"/>
        <pt x="2952" y="-137" on="0"/>
        <pt x="2992" y="-180" on="1"/>
        <pt x="3027" y="-219" on="0"/>
      </contour>
      <contour>
        <pt x="1461" y="1066" on="1"/>
        <pt x="1461" y="1022" on="0"/>
        <pt x="1437" y="971" on="1"/>
        <pt x="1408" y="908" on="0"/>
        <pt x="1365" y="899" on="1"/>
        <pt x="1319" y="890" on="0"/>
        <pt x="1272" y="883" on="1"/>
        <pt x="1263" y="881" on="0"/>
        <pt x="1204" y="836" on="0"/>
        <pt x="1190" y="836" on="1"/>
        <pt x="1113" y="836" on="0"/>
        <pt x="1113" y="922" on="1"/>
        <pt x="1113" y="986" on="0"/>
        <pt x="1169" y="1040" on="1"/>
        <pt x="1181" y="1013" on="0"/>
        <pt x="1212" y="958" on="1"/>
        <pt x="1248" y="971" on="0"/>
        <pt x="1264" y="1013" on="1"/>
        <pt x="1283" y="1063" on="0"/>
        <pt x="1291" y="1071" on="1"/>
        <pt x="1316" y="1057" on="0"/>
        <pt x="1326" y="1038" on="1"/>
        <pt x="1341" y="1012" on="0"/>
        <pt x="1353" y="999" on="1"/>
        <pt x="1378" y="1040" on="0"/>
        <pt x="1434" y="1121" on="1"/>
        <pt x="1461" y="1108" on="0"/>
      </contour>
      <contour>
        <pt x="1021" y="1531" on="1"/>
        <pt x="1021" y="1484" on="0"/>
        <pt x="823" y="1385" on="1"/>
        <pt x="763" y="1355" on="0"/>
        <pt x="648" y="1276" on="1"/>
        <pt x="612" y="1276" on="1"/>
        <pt x="612" y="1330" on="1"/>
        <pt x="611" y="1370" on="0"/>
        <pt x="818" y="1472" on="1"/>
        <pt x="841" y="1484" on="0"/>
        <pt x="973" y="1562" on="1"/>
        <pt x="1008" y="1562" on="1"/>
        <pt x="1021" y="1548" on="0"/>
      </contour>
      <contour>
        <pt x="1594" y="231" on="1"/>
        <pt x="1594" y="193" on="0"/>
        <pt x="1539" y="119" on="1"/>
        <pt x="1506" y="143" on="0"/>
        <pt x="1443" y="188" on="1"/>
        <pt x="1421" y="201" on="0"/>
        <pt x="1358" y="201" on="1"/>
        <pt x="1288" y="201" on="0"/>
        <pt x="1181" y="157" on="1"/>
        <pt x="1063" y="110" on="0"/>
        <pt x="1043" y="61" on="1"/>
        <pt x="1021" y="6" on="0"/>
        <pt x="1021" y="-90" on="1"/>
        <pt x="1021" y="-103" on="0"/>
        <pt x="1062" y="-217" on="0"/>
        <pt x="1062" y="-229" on="1"/>
        <pt x="1062" y="-263" on="0"/>
        <pt x="1008" y="-335" on="1"/>
        <pt x="972" y="-380" on="0"/>
        <pt x="936" y="-423" on="1"/>
        <pt x="910" y="-423" on="0"/>
        <pt x="901" y="-411" on="1"/>
        <pt x="830" y="-251" on="0"/>
        <pt x="826" y="-239" on="1"/>
        <pt x="816" y="-206" on="0"/>
        <pt x="816" y="-99" on="1"/>
        <pt x="816" y="40" on="1"/>
        <pt x="807" y="51" on="1"/>
        <pt x="787" y="56" on="0"/>
        <pt x="743" y="48" on="1"/>
        <pt x="692" y="37" on="0"/>
        <pt x="688" y="37" on="1"/>
        <pt x="556" y="37" on="0"/>
        <pt x="461" y="141" on="1"/>
        <pt x="442" y="163" on="0"/>
        <pt x="423" y="238" on="1"/>
        <pt x="406" y="303" on="0"/>
        <pt x="406" y="330" on="1"/>
        <pt x="406" y="614" on="1"/>
        <pt x="406" y="623" on="0"/>
        <pt x="398" y="686" on="1"/>
        <pt x="390" y="754" on="0"/>
        <pt x="388" y="779" on="1"/>
        <pt x="388" y="798" on="0"/>
        <pt x="372" y="1024" on="1"/>
        <pt x="370" y="1043" on="0"/>
        <pt x="345" y="1127" on="0"/>
        <pt x="345" y="1143" on="1"/>
        <pt x="345" y="1189" on="0"/>
        <pt x="411" y="1255" on="1"/>
        <pt x="449" y="1237" on="0"/>
        <pt x="454" y="1199" on="1"/>
        <pt x="498" y="840" on="0"/>
        <pt x="498" y="750" on="1"/>
        <pt x="498" y="460" on="1"/>
        <pt x="498" y="313" on="0"/>
        <pt x="568" y="249" on="1"/>
        <pt x="632" y="190" on="0"/>
        <pt x="770" y="190" on="1"/>
        <pt x="837" y="190" on="0"/>
        <pt x="900" y="242" on="1"/>
        <pt x="931" y="288" on="0"/>
        <pt x="1004" y="374" on="1"/>
        <pt x="1038" y="374" on="1"/>
        <pt x="1051" y="361" on="0"/>
        <pt x="1051" y="333" on="1"/>
        <pt x="1051" y="278" on="0"/>
        <pt x="917" y="110" on="0"/>
        <pt x="917" y="69" on="1"/>
        <pt x="917" y="61" on="0"/>
        <pt x="918" y="53" on="1"/>
        <pt x="924" y="6" on="1"/>
        <pt x="964" y="84" on="0"/>
        <pt x="1004" y="147" on="1"/>
        <pt x="1056" y="232" on="0"/>
        <pt x="1195" y="296" on="1"/>
        <pt x="1324" y="354" on="0"/>
        <pt x="1425" y="354" on="1"/>
        <pt x="1477" y="354" on="0"/>
        <pt x="1528" y="327" on="1"/>
        <pt x="1594" y="292" on="0"/>
      </contour>
      <contour>
        <pt x="1666" y="-311" on="1"/>
        <pt x="1666" y="-342" on="0"/>
        <pt x="1622" y="-380" on="1"/>
        <pt x="1584" y="-413" on="0"/>
        <pt x="1568" y="-413" on="1"/>
        <pt x="1557" y="-413" on="0"/>
        <pt x="1494" y="-372" on="0"/>
        <pt x="1481" y="-372" on="1"/>
        <pt x="1469" y="-372" on="0"/>
        <pt x="1402" y="-424" on="0"/>
        <pt x="1389" y="-424" on="1"/>
        <pt x="1358" y="-424" on="0"/>
        <pt x="1321" y="-389" on="1"/>
        <pt x="1287" y="-358" on="0"/>
        <pt x="1287" y="-342" on="1"/>
        <pt x="1287" y="-317" on="0"/>
        <pt x="1330" y="-276" on="1"/>
        <pt x="1372" y="-240" on="0"/>
        <pt x="1389" y="-240" on="1"/>
        <pt x="1425" y="-240" on="0"/>
        <pt x="1486" y="-301" on="1"/>
        <pt x="1545" y="-240" on="0"/>
        <pt x="1579" y="-240" on="1"/>
        <pt x="1615" y="-240" on="0"/>
        <pt x="1643" y="-270" on="1"/>
        <pt x="1666" y="-294" on="0"/>
      </contour>
      <contour>
        <pt x="1276" y="1590" on="1"/>
        <pt x="1253" y="1613" on="0"/>
        <pt x="1228" y="1613" on="1"/>
        <pt x="1226" y="1611" on="0"/>
        <pt x="1226" y="1553" on="1"/>
        <pt x="1263" y="1553" on="1"/>
        <pt x="1276" y="1565" on="0"/>
      </contour>
    </TTGlyph>
</ttFont>
